<?xml version="1.0" encoding="UTF-8" standalone="no"?>
<!-- Created with Inkscape (http://www.inkscape.org/) -->

<svg
   xmlns:dc="http://purl.org/dc/elements/1.1/"
   xmlns:cc="http://creativecommons.org/ns#"
   xmlns:rdf="http://www.w3.org/1999/02/22-rdf-syntax-ns#"
   xmlns:svg="http://www.w3.org/2000/svg"
   xmlns="http://www.w3.org/2000/svg"
   xmlns:sodipodi="http://sodipodi.sourceforge.net/DTD/sodipodi-0.dtd"
   xmlns:inkscape="http://www.inkscape.org/namespaces/inkscape"
   width="850"
   height="920"
   viewBox="0 0 224.89583 243.41667"
   version="1.1"
   id="svg8"
   inkscape:version="0.92.1 r15371"
   sodipodi:docname="floorplan.svg"
   inkscape:export-filename="C:\Users\sbl.BRIENZ\Downloads\floorplan.png"
   inkscape:export-xdpi="299.97177"
   inkscape:export-ydpi="299.97177"
   enable-background="new">
  <defs
     id="defs2">
    <filter
       style="color-interpolation-filters:sRGB;"
       inkscape:label="Lightness-Contrast"
       id="filter6085">
      <feFlood
         flood-opacity="0.47451"
         flood-color="rgb(0,0,0)"
         result="flood"
         id="feFlood6075" />
      <feComposite
         in="flood"
         in2="SourceGraphic"
         operator="in"
         result="composite1"
         id="feComposite6077" />
      <feGaussianBlur
         in="composite1"
         stdDeviation="0.3"
         result="blur"
         id="feGaussianBlur6079" />
      <feOffset
         dx="0"
         dy="0.4"
         result="offset"
         id="feOffset6081" />
      <feComposite
         in="SourceGraphic"
         in2="offset"
         operator="over"
         result="fbSourceGraphic"
         id="feComposite6083" />
      <feColorMatrix
         id="feColorMatrix6211"
         values="1 0 0 0.2 -0 0 1 0 0.2 -0 0 0 1 0.2 -0 0 0 0 1 0"
         in="fbSourceGraphic" />
    </filter>
  </defs>
  <sodipodi:namedview
     id="base"
     pagecolor="#ffffff"
     bordercolor="#666666"
     borderopacity="1.0"
     inkscape:pageopacity="0.0"
     inkscape:pageshadow="2"
     inkscape:zoom="5.6568544"
     inkscape:cx="283.83724"
     inkscape:cy="278.34549"
     inkscape:document-units="mm"
     inkscape:current-layer="layer16"
     showgrid="false"
     fit-margin-top="0"
     fit-margin-left="0"
     fit-margin-right="0"
     fit-margin-bottom="0"
     showguides="true"
     inkscape:guide-bbox="true"
     inkscape:window-width="2560"
     inkscape:window-height="1361"
     inkscape:window-x="2391"
     inkscape:window-y="-9"
     inkscape:window-maximized="1"
     units="px">
    <sodipodi:guide
       position="2.5985874,38.052459"
       orientation="1,0"
       id="guide21"
       inkscape:locked="false" />
    <sodipodi:guide
       position="-2.8584437,-3.1233214"
       orientation="0,1"
       id="guide23"
       inkscape:locked="false" />
    <sodipodi:guide
       position="64.208705,127.68006"
       orientation="1,0"
       id="guide25"
       inkscape:locked="false" />
    <sodipodi:guide
       position="150.22259,123.58211"
       orientation="1,0"
       id="guide29"
       inkscape:locked="false" />
    <sodipodi:guide
       position="60.617935,-44.393596"
       orientation="0,1"
       id="guide37"
       inkscape:locked="false" />
    <sodipodi:guide
       position="69.448395,1.8588766"
       orientation="0,1"
       id="guide39"
       inkscape:locked="false" />
    <sodipodi:guide
       position="3.6601351e-007,36.44606"
       orientation="1,0"
       id="guide41"
       inkscape:locked="false" />
    <sodipodi:guide
       position="16.536459,42.304691"
       orientation="1,0"
       id="guide43"
       inkscape:locked="false" />
    <sodipodi:guide
       position="66.901785,125.97917"
       orientation="1,0"
       id="guide853"
       inkscape:locked="false" />
    <sodipodi:guide
       position="148.08443,125.65345"
       orientation="1,0"
       id="guide855"
       inkscape:locked="false" />
    <sodipodi:guide
       position="18.520833,48.966523"
       orientation="1,0"
       id="guide857"
       inkscape:locked="false" />
    <sodipodi:guide
       position="69.736605,5.0267905"
       orientation="0,1"
       id="guide861"
       inkscape:locked="false" />
    <sodipodi:guide
       position="152.93862,-21.573284"
       orientation="0,1"
       id="guide863"
       inkscape:locked="false" />
    <sodipodi:guide
       position="152.98586,-5.1785664"
       orientation="0,1"
       id="guide865"
       inkscape:locked="false" />
    <sodipodi:guide
       position="153.17485,28.083337"
       orientation="0,1"
       id="guide867"
       inkscape:locked="false" />
    <sodipodi:guide
       position="155.6317,49.108264"
       orientation="0,1"
       id="guide869"
       inkscape:locked="false" />
    <sodipodi:guide
       position="155.06473,69.9442"
       orientation="0,1"
       id="guide871"
       inkscape:locked="false" />
    <sodipodi:guide
       position="69.689355,-46.566959"
       orientation="0,1"
       id="guide873"
       inkscape:locked="false" />
    <sodipodi:guide
       position="60.219575,-4.3063564"
       orientation="1,0"
       id="guide875"
       inkscape:locked="false" />
    <sodipodi:guide
       position="22.18044,90.09324"
       orientation="0,1"
       id="guide883"
       inkscape:locked="false" />
    <sodipodi:guide
       position="23.396516,89.15779"
       orientation="0,1"
       id="guide885"
       inkscape:locked="false" />
    <sodipodi:guide
       position="33.171898,100.5702"
       orientation="1,0"
       id="guide887"
       inkscape:locked="false" />
    <sodipodi:guide
       position="34.621835,101.97337"
       orientation="1,0"
       id="guide889"
       inkscape:locked="false" />
    <sodipodi:guide
       position="39.299052,86.72564"
       orientation="0,1"
       id="guide891"
       inkscape:locked="false" />
    <sodipodi:guide
       position="38.129748,85.04184"
       orientation="0,1"
       id="guide893"
       inkscape:locked="false" />
    <sodipodi:guide
       position="20.239394,92.45523"
       orientation="1,0"
       id="guide895"
       inkscape:locked="false" />
    <sodipodi:guide
       position="81.685374,59.78609"
       orientation="0,1"
       id="guide901"
       inkscape:locked="false" />
    <sodipodi:guide
       position="81.983034,58.76083"
       orientation="0,1"
       id="guide903"
       inkscape:locked="false" />
    <sodipodi:guide
       position="97.924174,63.52333"
       orientation="1,0"
       id="guide905"
       inkscape:locked="false" />
    <sodipodi:guide
       position="110.75647,64.64781"
       orientation="1,0"
       id="guide907"
       inkscape:locked="false" />
    <sodipodi:guide
       position="70.986285,0.80054354"
       orientation="0,1"
       id="guide913"
       inkscape:locked="false" />
    <sodipodi:guide
       position="80.294855,0.80054454"
       orientation="1,0"
       id="guide915"
       inkscape:locked="false" />
    <sodipodi:guide
       position="93.461214,-0.17704246"
       orientation="1,0"
       id="guide917"
       inkscape:locked="false" />
    <sodipodi:guide
       position="8.3296493,116.39038"
       orientation="0,1"
       id="guide923"
       inkscape:locked="false" />
    <sodipodi:guide
       position="67.521905,18.014996"
       orientation="0,1"
       id="guide925"
       inkscape:locked="false" />
    <sodipodi:guide
       position="151.65749,91.95243"
       orientation="0,1"
       id="guide927"
       inkscape:locked="false" />
    <sodipodi:guide
       position="150.46464,119.31734"
       orientation="0,1"
       id="guide929"
       inkscape:locked="false" />
    <sodipodi:guide
       position="3.2033484,45.002497"
       orientation="0,1"
       id="guide931"
       inkscape:locked="false" />
    <sodipodi:guide
       position="1.3726714,31.622184"
       orientation="0,1"
       id="guide933"
       inkscape:locked="false" />
    <sodipodi:guide
       position="5.3424594,30.037777"
       orientation="0,1"
       id="guide935"
       inkscape:locked="false" />
    <sodipodi:guide
       position="3.3687124,1.2635646"
       orientation="0,1"
       id="guide937"
       inkscape:locked="false" />
    <sodipodi:guide
       position="45.268345,0.80054454"
       orientation="1,0"
       id="guide939"
       inkscape:locked="false" />
    <sodipodi:guide
       position="23.76289,105.1388"
       orientation="1,0"
       id="guide5797"
       inkscape:locked="false" />
    <sodipodi:guide
       position="20.239394,106.69323"
       orientation="0,1"
       id="guide5799"
       inkscape:locked="false" />
    <sodipodi:guide
       position="18.008202,104.85768"
       orientation="1,0"
       id="guide5801"
       inkscape:locked="false" />
    <sodipodi:guide
       position="19.727994,100.62435"
       orientation="0,1"
       id="guide5803"
       inkscape:locked="false" />
    <sodipodi:guide
       position="160.86929,26.711529"
       orientation="1,0"
       id="guide5967"
       inkscape:locked="false" />
    <sodipodi:guide
       position="43.209443,224.48814"
       orientation="1,0"
       id="guide4894"
       inkscape:locked="false" />
    <sodipodi:guide
       position="10.851143,58.760831"
       orientation="1,0"
       id="guide6422"
       inkscape:locked="false" />
    <sodipodi:guide
       position="38.914443,9.728611"
       orientation="0,1"
       id="guide6424"
       inkscape:locked="false" />
  </sodipodi:namedview>
  <metadata
     id="metadata5">
    <rdf:RDF>
      <cc:Work
         rdf:about="">
        <dc:format>image/svg+xml</dc:format>
        <dc:type
           rdf:resource="http://purl.org/dc/dcmitype/StillImage" />
        <dc:title />
      </cc:Work>
    </rdf:RDF>
  </metadata>
  <g
     inkscape:groupmode="layer"
     id="layer1"
     inkscape:label="BACKGROUND"
     style="display:none"
     sodipodi:insensitive="true"
     transform="translate(0,-7.9375)">
    <rect
       style="opacity:1;fill:#ffffff;fill-opacity:1;stroke:none;stroke-width:0.5;stroke-linecap:round;stroke-linejoin:round;stroke-miterlimit:4;stroke-dasharray:none;stroke-opacity:1"
       id="rect4724"
       width="241.03542"
       height="262.88272"
       x="-8.7312498"
       y="-6.3499999" />
  </g>
  <g
     inkscape:groupmode="layer"
     id="layer2"
     inkscape:label="Walls"
     style="display:inline"
     transform="translate(-54.806547,123.94813)"
     sodipodi:insensitive="true">
    <path
       style="fill:#2c2c2c;fill-opacity:1;stroke:none;stroke-width:0.35756892px;stroke-linecap:butt;stroke-linejoin:miter;stroke-opacity:1"
       d="m 268.67155,-114.33112 v 36.982105 h -2.8896 v -33.026455 l -109.71362,-0.006 V 22.573126 h -3.63954 V -110.38134 l -83.262488,0.006 v 56.041593 h 18.905639 v -4.560145 h 2.64127 v 45.578827 h -2.73157 V -51.602177 H 69.166302 v 37.703272 H 65.654463 V -114.33112 c 67.660967,0.0367 135.355537,-0.002 203.017087,0 z"
       id="path46"
       inkscape:connector-curvature="0"
       sodipodi:nodetypes="ccccccccccccccccccccc" />
    <path
       style="fill:#2c2c2c;fill-opacity:1;stroke:none;stroke-width:0.35756892px;stroke-linecap:butt;stroke-linejoin:miter;stroke-opacity:1"
       d="m 88.002523,2.9004387 v 1.292999 l -22.34806,-0.0096 V 51.140309 H 128.52626 V 47.5469 h -1.69313 l -10e-4,-2.335169 H 69.166302 V 6.3250317 h 21.517987 l -3e-6,-3.440554 z"
       id="path859"
       inkscape:connector-curvature="0"
       sodipodi:nodetypes="ccccccccccccc" />
    <path
       style="fill:#2c2c2c;fill-opacity:1;stroke:none;stroke-width:0.35756892px;stroke-linecap:butt;stroke-linejoin:miter;stroke-opacity:1"
       d="m 147.03771,51.140278 h 5.39108 V 109.85161 H 268.67153 V 76.074184 h -2.8896 V 106.91443 H 156.06833 V 40.125922 h -3.63954 v 5.073169 h -2.90526 v 2.30167 h -2.48582 z"
       id="path877"
       inkscape:connector-curvature="0" />
    <path
       style="fill:#2c2c2c;fill-opacity:1;stroke:none;stroke-width:0.35756892px;stroke-linecap:butt;stroke-linejoin:miter;stroke-opacity:1"
       d="m 265.78193,-47.606167 h 2.8896 v 28.158559 h -2.8896 z"
       id="path879"
       inkscape:connector-curvature="0" />
    <path
       style="fill:#2c2c2c;fill-opacity:1;stroke:none;stroke-width:0.35756892px;stroke-linecap:butt;stroke-linejoin:miter;stroke-opacity:1"
       d="m 265.78193,8.9663437 h 2.8896 V 53.917813 h -2.8896 z"
       id="path881"
       inkscape:connector-curvature="0" />
    <path
       style="fill:#626262;fill-opacity:1;stroke:none;stroke-width:0.35756892px;stroke-linecap:butt;stroke-linejoin:miter;stroke-opacity:1"
       d="m 69.166302,-74.836429 h 23.84052 v 1.264206 h -23.84052 z"
       id="path897"
       inkscape:connector-curvature="0" />
    <path
       style="fill:#626262;fill-opacity:1;stroke:none;stroke-width:0.35756892px;stroke-linecap:butt;stroke-linejoin:miter;stroke-opacity:1"
       d="m 110.48435,-74.836429 v 6.826674 h 41.94444 v -2.275558 h -39.98493 v -4.551116 z"
       id="path899"
       inkscape:connector-curvature="0" />
    <path
       style="fill:#626262;fill-opacity:1;stroke:none;stroke-width:0.35756892px;stroke-linecap:butt;stroke-linejoin:miter;stroke-opacity:1"
       d="m 156.06833,-33.878071 h 41.92495 v 1.38558 h -41.92495 z"
       id="path909"
       inkscape:connector-curvature="0" />
    <path
       style="fill:#626262;fill-opacity:1;stroke:none;stroke-width:0.35756892px;stroke-linecap:butt;stroke-linejoin:miter;stroke-opacity:1"
       d="m 215.33537,-33.878071 v 1.38558 h 50.44656 v -1.38558 z"
       id="path911"
       inkscape:connector-curvature="0" />
    <path
       style="fill:#626262;fill-opacity:1;stroke:none;stroke-width:0.35756892px;stroke-linecap:butt;stroke-linejoin:miter;stroke-opacity:1"
       d="m 156.06833,44.407173 h 18.09995 v 1.430276 h -18.09995 z"
       id="path919"
       inkscape:connector-curvature="0" />
    <path
       style="fill:#626262;fill-opacity:1;stroke:none;stroke-width:0.35756892px;stroke-linecap:butt;stroke-linejoin:miter;stroke-opacity:1"
       d="m 191.96184,44.407163 v 1.430276 h 73.82009 v -1.430276 z"
       id="path921"
       inkscape:connector-curvature="0" />
    <rect
       style="opacity:1;fill:#2c2c2c;fill-opacity:1;stroke:none;stroke-width:0.25;stroke-linejoin:round;stroke-miterlimit:4;stroke-dasharray:none;stroke-opacity:1;paint-order:normal"
       id="rect5927"
       width="14.527147"
       height="14.282794"
       x="138.20357"
       y="-17.31056" />
  </g>
  <g
     inkscape:groupmode="layer"
     id="layer3"
     inkscape:label="Windows"
     transform="translate(-54.806547,123.94813)"
     sodipodi:insensitive="true">
    <path
       style="fill:#fefefe;fill-opacity:1;stroke:#000000;stroke-width:0.35756892px;stroke-linecap:butt;stroke-linejoin:miter;stroke-opacity:1"
       d="M 265.78193,-19.447608 V 8.9663437 h 2.8896 V -19.447608 Z"
       id="path942"
       inkscape:connector-curvature="0" />
    <path
       style="fill:#fefefe;fill-opacity:1;stroke:#000000;stroke-width:0.31575081px;stroke-linecap:butt;stroke-linejoin:miter;stroke-opacity:1"
       d="m 265.78195,53.917813 v 22.156391 h 2.8896 V 53.917813 Z"
       id="path942-2"
       inkscape:connector-curvature="0" />
    <path
       style="fill:#fefefe;fill-opacity:1;stroke:#000000;stroke-width:0.36583483px;stroke-linecap:butt;stroke-linejoin:miter;stroke-opacity:1"
       d="m 265.78195,-77.349015 v 29.742851 h 2.8896 v -29.742851 z"
       id="path942-9"
       inkscape:connector-curvature="0" />
    <path
       style="fill:#fefefe;fill-opacity:1;stroke:#000000;stroke-width:0.4576247px;stroke-linecap:butt;stroke-linejoin:miter;stroke-opacity:1"
       d="m 98.780691,45.21088 v 5.885527 H 121.63035 V 45.21088 Z"
       id="path942-9-8"
       inkscape:connector-curvature="0" />
  </g>
  <g
     inkscape:groupmode="layer"
     id="layer4"
     inkscape:label="Doors"
     transform="translate(-54.806547,123.94813)"
     style="display:inline"
     sodipodi:insensitive="true">
    <path
       style="fill:none;stroke:#000000;stroke-width:0.35756892px;stroke-linecap:butt;stroke-linejoin:miter;stroke-opacity:1"
       d="m 215.33537,-32.49249 v -1.385581 c -0.43909,-11.074685 -7.64604,-18.036736 -17.34209,-18.380543 v 19.766081"
       id="path1005-2"
       inkscape:connector-curvature="0"
       sodipodi:nodetypes="cccc" />
    <path
       style="fill:none;stroke:#000000;stroke-width:1.35144174;stroke-linecap:butt;stroke-linejoin:miter;stroke-miterlimit:4;stroke-dasharray:none;stroke-opacity:1"
       d="M 90.156095,-13.315167 V 2.8872707"
       id="path1067"
       inkscape:connector-curvature="0" />
    <path
       style="fill:none;stroke:#000000;stroke-width:0.67572087;stroke-linecap:butt;stroke-linejoin:miter;stroke-miterlimit:4;stroke-dasharray:none;stroke-opacity:1"
       d="m 90.456619,-73.572223 v 14.680491"
       id="path1069"
       inkscape:connector-curvature="0" />
    <path
       style="fill:none;stroke:#000000;stroke-width:0.36565682px;stroke-linecap:butt;stroke-linejoin:miter;stroke-opacity:1"
       d="m 191.90489,44.41267 v 1.416921 c -0.449,11.32519 -7.81898,18.444716 -17.73434,18.796291 V 44.41271"
       id="path1005-2-6"
       inkscape:connector-curvature="0"
       sodipodi:nodetypes="cccc" />
    <path
       style="fill:none;stroke:#000000;stroke-width:0.36565685px;stroke-linecap:butt;stroke-linejoin:miter;stroke-opacity:1"
       d="m 152.42879,22.573126 h 1.41692 c 11.3252,0.449 18.44473,7.81898 18.79629,17.73434 h -20.21316"
       id="path1005-2-6-9"
       inkscape:connector-curvature="0"
       sodipodi:nodetypes="cccc" />
    <path
       style="fill:none;stroke:#000000;stroke-width:0.37979847px;stroke-linecap:butt;stroke-linejoin:miter;stroke-opacity:1"
       d="m 128.47176,51.140328 v -1.471719 c 0.46636,-11.763196 8.12137,-19.158069 18.4202,-19.523225 v 20.994891"
       id="path1005-2-6-9-8"
       inkscape:connector-curvature="0"
       sodipodi:nodetypes="cccc" />
    <path
       style="fill:none;stroke:#000000;stroke-width:0.36161679px;stroke-linecap:butt;stroke-linejoin:miter;stroke-opacity:1"
       d="m 110.53611,-73.572163 v -1.401266 c -0.44403,-11.200072 -7.73258,-18.240936 -17.538379,-18.588615 v 19.989824"
       id="path1005-2-6-9-8-2"
       inkscape:connector-curvature="0"
       sodipodi:nodetypes="cccc" />
  </g>
  <g
     inkscape:groupmode="layer"
     id="layer5"
     inkscape:label="Furniture"
     transform="translate(0,124.09925)"
     style="display:inline">
    <path
       style="opacity:1;fill:#dfdfdf;fill-opacity:1;stroke:none;stroke-width:0.35756892px;stroke-linecap:butt;stroke-linejoin:miter;stroke-opacity:1"
       d="M 27.530741,6.1739117 V 30.789755 H 68.461212 V 45.06058 H 14.359755 V 6.1739117 Z"
       id="path1072"
       inkscape:connector-curvature="0" />
    <rect
       style="display:inline;opacity:1;fill:#f9f9f9;fill-opacity:1;stroke:#b2b2b2;stroke-width:0.25;stroke-linejoin:round;stroke-miterlimit:4;stroke-dasharray:none;stroke-opacity:1;paint-order:normal"
       id="rect5902-6"
       width="3.7482173"
       height="10.636106"
       x="39.858379"
       y="31.410604"
       ry="0.60076159" />
    <rect
       style="opacity:1;fill:#dfdfdf;fill-opacity:1;stroke:none;stroke-width:0.67572087;stroke-miterlimit:4;stroke-dasharray:none"
       id="rect2537"
       width="14.225209"
       height="50.699192"
       x="83.397026"
       y="-68.160873" />
    <rect
       style="opacity:1;fill:#dfdfdf;fill-opacity:1;stroke:none;stroke-width:0.71106285;stroke-miterlimit:4;stroke-dasharray:none"
       id="rect2539"
       width="19.80006"
       height="32.418465"
       x="35.877743"
       y="-44.76902" />
    <rect
       style="opacity:1;fill:#dfdfdf;fill-opacity:1;stroke:none;stroke-width:0.67572087;stroke-miterlimit:4;stroke-dasharray:none"
       id="rect2541"
       width="7.9187207"
       height="7.9187207"
       x="42.018253"
       y="-11.015788" />
    <rect
       style="opacity:1;fill:#dfdfdf;fill-opacity:1;stroke:none;stroke-width:0.67572087;stroke-miterlimit:4;stroke-dasharray:none"
       id="rect2541-7"
       width="7.9187207"
       height="7.9187207"
       x="56.578972"
       y="-23.948069" />
    <rect
       style="opacity:1;fill:#dfdfdf;fill-opacity:1;stroke:none;stroke-width:0.67572087;stroke-miterlimit:4;stroke-dasharray:none"
       id="rect2541-2"
       width="7.9187207"
       height="7.9187207"
       x="56.578972"
       y="-41.221497" />
    <rect
       style="opacity:1;fill:#dfdfdf;fill-opacity:1;stroke:none;stroke-width:0.67572087;stroke-miterlimit:4;stroke-dasharray:none"
       id="rect2541-3"
       width="7.9187207"
       height="7.9187207"
       x="42.159653"
       y="-53.926704" />
    <rect
       style="opacity:1;fill:#dfdfdf;fill-opacity:1;stroke:none;stroke-width:0.67572087;stroke-miterlimit:4;stroke-dasharray:none"
       id="rect2570"
       width="15.863927"
       height="35.539051"
       x="14.359756"
       y="-110.52662" />
    <rect
       style="opacity:1;fill:#dfdfdf;fill-opacity:1;stroke:none;stroke-width:0.72873849;stroke-miterlimit:4;stroke-dasharray:none"
       id="rect2572"
       width="16.578491"
       height="15.848017"
       x="56.61417"
       y="-110.52662" />
    <rect
       style="opacity:1;fill:#dfdfdf;fill-opacity:1;stroke:none;stroke-width:0.67572087;stroke-miterlimit:4;stroke-dasharray:none"
       id="rect2576"
       width="20.534676"
       height="18.469069"
       x="77.087563"
       y="-110.52662" />
    <rect
       style="opacity:1;fill:#dfdfdf;fill-opacity:1;stroke:none;stroke-width:0.5;stroke-miterlimit:4;stroke-dasharray:none;stroke-opacity:0.96323532"
       id="light.bedroom_4"
       width="38.221565"
       height="52.996826"
       x="160.52884"
       y="53.766758"
       inkscape:label="#rect2580" />
    <rect
       style="opacity:1;fill:#dfdfdf;fill-opacity:1;stroke:none;stroke-width:0.67572087;stroke-miterlimit:4;stroke-dasharray:none"
       id="rect2582"
       width="15.909838"
       height="40.380703"
       x="101.26179"
       y="45.686337" />
    <rect
       style="opacity:1;fill:#dfdfdf;fill-opacity:1;stroke:none;stroke-width:0.67572087;stroke-miterlimit:4;stroke-dasharray:none"
       id="rect2584"
       width="11.285045"
       height="11.285045"
       x="146.93663"
       y="95.478851" />
    <rect
       style="opacity:1;fill:#dfdfdf;fill-opacity:1;stroke:none;stroke-width:0.67572087;stroke-miterlimit:4;stroke-dasharray:none"
       id="rect2586"
       width="45.674843"
       height="11.767828"
       x="101.26179"
       y="94.996048" />
    <rect
       style="opacity:1;fill:#dfdfdf;fill-opacity:1;stroke:none;stroke-width:0.81577045;stroke-miterlimit:4;stroke-dasharray:none"
       id="rect2588"
       width="13.096745"
       height="15.411631"
       x="101.26179"
       y="-3.9505634" />
    <rect
       style="opacity:1;fill:#dfdfdf;fill-opacity:1;stroke:none;stroke-width:0.67572087;stroke-miterlimit:4;stroke-dasharray:none"
       id="rect2590"
       width="35.893524"
       height="16.658882"
       x="101.26179"
       y="-32.643593" />
    <rect
       style="opacity:1;fill:#dfdfdf;fill-opacity:1;stroke:none;stroke-width:0.67572087;stroke-miterlimit:4;stroke-dasharray:none"
       id="rect2596"
       width="20.790081"
       height="54.09507"
       x="101.26179"
       y="-88.124283" />
    <rect
       style="opacity:1;fill:#dfdfdf;fill-opacity:1;stroke:none;stroke-width:0.67572087;stroke-miterlimit:4;stroke-dasharray:none"
       id="rect2598"
       width="39.026096"
       height="18.785137"
       x="101.26179"
       y="-52.814327" />
    <rect
       style="opacity:1;fill:#dfdfdf;fill-opacity:1;stroke:none;stroke-width:0.67572087;stroke-miterlimit:4;stroke-dasharray:none"
       id="rect2600"
       width="48.831116"
       height="13.728093"
       x="162.14429"
       y="-47.757278" />
    <rect
       style="opacity:1;fill:#dfdfdf;fill-opacity:1;stroke:none;stroke-width:0.67572087;stroke-miterlimit:4;stroke-dasharray:none"
       id="rect2602"
       width="30.348663"
       height="10.01193"
       x="141.72104"
       y="-107.81981"
       transform="rotate(26.838285)" />
    <rect
       style="opacity:1;fill:#dfdfdf;fill-opacity:1;stroke:none;stroke-width:0.67572087;stroke-miterlimit:4;stroke-dasharray:none"
       id="rect2604"
       width="73.820091"
       height="8.9934912"
       x="137.15532"
       y="-110.52662" />
    <rect
       style="fill:#dfdfdf;fill-opacity:1;stroke:none;stroke-width:0.28886098;stroke-linejoin:round;stroke-miterlimit:4;stroke-dasharray:none;stroke-opacity:1;paint-order:normal"
       id="light.livingroom_plant"
       width="9.9956045"
       height="10.286886"
       x="200.75011"
       y="-5.3956323"
       inkscape:label="#rect5569" />
    <g
       id="g5900"
       style="opacity:0.4">
      <rect
         ry="0.5"
         y="9.3168945"
         x="14.585156"
         height="12.666927"
         width="12.666927"
         id="rect5757"
         style="opacity:1;fill:#000000;fill-opacity:1;stroke:#afafaf;stroke-width:0.35299999;stroke-linejoin:round;stroke-miterlimit:4;stroke-dasharray:none;stroke-opacity:1;paint-order:normal" />
      <circle
         r="2.0091796"
         cy="12.615918"
         cx="17.999939"
         id="path5759"
         style="opacity:1;fill:#000000;fill-opacity:1;stroke:#db0000;stroke-width:0.35299999;stroke-linejoin:round;stroke-miterlimit:4;stroke-dasharray:none;stroke-opacity:1;paint-order:normal" />
      <circle
         r="2.0091796"
         cy="18.693071"
         cx="18.008202"
         id="path5759-9"
         style="display:inline;opacity:1;fill:#000000;fill-opacity:1;stroke:#db0000;stroke-width:0.35299999;stroke-linejoin:round;stroke-miterlimit:4;stroke-dasharray:none;stroke-opacity:1;paint-order:normal" />
      <circle
         r="2.0091796"
         cy="12.624189"
         cx="23.746353"
         id="path5759-9-8"
         style="display:inline;opacity:1;fill:#000000;fill-opacity:1;stroke:#db0000;stroke-width:0.35299999;stroke-linejoin:round;stroke-miterlimit:4;stroke-dasharray:none;stroke-opacity:1;paint-order:normal" />
      <circle
         r="2.0091796"
         cy="18.693071"
         cx="23.779428"
         id="path5759-9-9"
         style="display:inline;opacity:1;fill:#000000;fill-opacity:1;stroke:#db0000;stroke-width:0.35299999;stroke-linejoin:round;stroke-miterlimit:4;stroke-dasharray:none;stroke-opacity:1;paint-order:normal" />
    </g>
    <rect
       style="opacity:1;fill:#f9f9f9;fill-opacity:1;stroke:#b2b2b2;stroke-width:0.25;stroke-linejoin:round;stroke-miterlimit:4;stroke-dasharray:none;stroke-opacity:1;paint-order:normal"
       id="rect5902"
       width="11.46291"
       height="10.494606"
       x="27.985291"
       y="31.481352"
       ry="0.59276915" />
    <g
       id="g5910"
       transform="translate(-4.7940472,0.00117521)">
      <circle
         r="1.3388532"
         cy="43.528957"
         cx="44.404327"
         id="path5906"
         style="opacity:1;fill:#cecece;fill-opacity:1;stroke:#b2b2b2;stroke-width:0.25;stroke-linejoin:round;stroke-miterlimit:4;stroke-dasharray:none;stroke-opacity:1;paint-order:normal" />
      <rect
         transform="rotate(-41.023785)"
         ry="0.64999998"
         y="54.406403"
         x="4.3191714"
         height="8.1719656"
         width="1.2394624"
         id="rect5904"
         style="opacity:1;fill:#cecece;fill-opacity:1;stroke:#b2b2b2;stroke-width:0.25;stroke-linejoin:round;stroke-miterlimit:4;stroke-dasharray:none;stroke-opacity:1;paint-order:normal" />
    </g>
    <path
       style="fill:#dfdfdf;fill-opacity:1;stroke:none;stroke-width:0.26458332px;stroke-linecap:butt;stroke-linejoin:miter;stroke-opacity:1"
       d="m 97.616779,-85.43753 c -6.749167,-3.487907 -14.236856,-0.821513 -14.236856,4.134115 0,4.955628 5.711371,8.077874 14.236856,4.637961 z"
       id="path4881"
       inkscape:connector-curvature="0"
       sodipodi:nodetypes="czcc" />
    <path
       style="fill:#dfdfdf;fill-opacity:1;stroke:none;stroke-width:0.26458332px;stroke-linecap:butt;stroke-linejoin:miter;stroke-opacity:1"
       d="m 43.209442,-100.10982 c -4.233251,0 -8.217708,-3.18674 -5.919602,-10.41412 h 11.473799 c 2.530099,7.20792 -1.320946,10.41412 -5.554197,10.41412 z"
       id="path4896"
       inkscape:connector-curvature="0"
       sodipodi:nodetypes="zccz" />
    <path
       style="fill:#dfdfdf;stroke:none;stroke-width:0.5;stroke-linecap:butt;stroke-linejoin:miter;stroke-opacity:1;fill-opacity:1;stroke-miterlimit:4;stroke-dasharray:none"
       d="m 147.26026,26.476568 h 35.57819 V 8.8151145 h 19.5771 V 44.255843 h -55.15529 z"
       id="light.living_room_under_couch"
       inkscape:connector-curvature="0"
       inkscape:label="#path6215" />
  </g>
  <g
     inkscape:groupmode="layer"
     id="layer12"
     inkscape:label="Plants"
     style="display:inline"
     transform="translate(0,-7.9375)" />
  <g
     inkscape:groupmode="layer"
     id="layer11"
     inkscape:label="Arrows"
     style="display:inline"
     transform="translate(0,-7.9375)" />
  <g
     inkscape:groupmode="layer"
     id="layer9"
     inkscape:label="Media"
     transform="translate(0,124.09925)"
     style="display:inline">
    <path
       id="binary_sensor.tv_power_status"
       d="m 184.64688,-25.044552 -0.56398,0.563998 1.036,1.036 h -2.136 c -0.44402,0 -0.8,0.356002 -0.8,0.800006 v 3.999998 c 0,0.444004 0.35598,0.800006 0.8,0.800006 h 6.4 c 0.44402,0 0.80001,-0.356002 0.80001,-0.800006 v -3.999998 c 0,-0.444004 -0.35598,-0.800006 -0.80001,-0.800006 h -2.13597 l 1.03597,-1.036 -0.56399,-0.563998 -1.536,1.536004 -1.53603,-1.536004 m -1.66398,2.400004 h 5.20002 v 3.999998 h -5.20002 v -3.999998 m 6.2,0 a 0.40000048,0.40000048 0 0 1 0.4,0.399994 0.40000048,0.40000048 0 0 1 -0.4,0.399998 0.40000048,0.40000048 0 0 1 -0.39998,-0.399998 0.40000048,0.40000048 0 0 1 0.39998,-0.399994 m 0,1.2 a 0.40000048,0.40000048 0 0 1 0.4,0.399996 0.40000048,0.40000048 0 0 1 -0.4,0.399996 0.40000048,0.40000048 0 0 1 -0.39998,-0.399996 0.40000048,0.40000048 0 0 1 0.39998,-0.399996 z"
       inkscape:connector-curvature="0"
       style="fill:#6f96a4;fill-opacity:1;stroke-width:0.40000042"
       inkscape:label="#path2838" />
    <path
       id="binary_sensor.computer_power_status"
       d="m 123.82167,-25.871695 h -6.54544 v -4.363631 h 6.54544 m 0,-0.727263 h -6.54544 c -0.40364,0 -0.72728,0.323637 -0.72728,0.727263 v 4.363631 a 0.7272719,0.7272719 0 0 0 0.72728,0.727277 h 2.54544 v 0.727276 h -0.72726 v 0.727263 h 2.90908 v -0.727263 h -0.72726 v -0.727276 h 2.54544 a 0.7272719,0.7272719 0 0 0 0.72728,-0.727277 v -4.363631 c 0,-0.403626 -0.32728,-0.727263 -0.72728,-0.727263 z"
       inkscape:connector-curvature="0"
       style="fill:#6f96a4;fill-opacity:1;stroke-width:0.36363593"
       inkscape:label="#path4691" />
  </g>
  <g
     inkscape:groupmode="layer"
     id="layer13"
     inkscape:label="Devices" />
  <g
     inkscape:groupmode="layer"
     id="layer15"
     inkscape:label="Sensors"
     transform="translate(0,-7.9375)">
    <rect
       style="opacity:0.99842517;fill:#6f96a4;fill-opacity:1;stroke:none;stroke-width:0.2688134;stroke-linecap:round;stroke-linejoin:miter;stroke-miterlimit:4;stroke-dasharray:none;stroke-opacity:1"
       id="binary_sensor.bathroomdoor_state"
       width="17.949865"
       height="1.6775172"
       x="37.989471"
       y="57.045403"
       inkscape:label="#rect4681" />
    <rect
       style="opacity:0.99842517;fill:#6f96a4;fill-opacity:1;stroke:none;stroke-width:0.29917616;stroke-linecap:round;stroke-linejoin:miter;stroke-miterlimit:4;stroke-dasharray:none;stroke-opacity:1"
       id="binary_sensor.entrancedoor_state"
       width="18.790302"
       height="1.9849359"
       x="73.48497"
       y="179.42503"
       inkscape:label="#rect4681" />
    <rect
       style="opacity:0.99842517;fill:#6f96a4;fill-opacity:1;stroke:none;stroke-width:0.42265645;stroke-linecap:round;stroke-linejoin:miter;stroke-miterlimit:4;stroke-dasharray:none;stroke-opacity:1"
       id="binary_sensor.officewindow_state"
       width="2.5327182"
       height="29.391008"
       x="211.15587"
       y="54.71059"
       inkscape:label="#rect4681" />
    <rect
       style="opacity:0.99842517;fill:#6f96a4;fill-opacity:1;stroke:none;stroke-width:0.36772484;stroke-linecap:round;stroke-linejoin:miter;stroke-miterlimit:4;stroke-dasharray:none;stroke-opacity:1"
       id="binary_sensor.bedroomwindow_state"
       width="2.5784519"
       height="21.853113"
       x="211.13095"
       y="185.95374"
       inkscape:label="#rect4681" />
    <rect
       style="opacity:0.99842517;fill:#6f96a4;fill-opacity:1;stroke:none;stroke-width:0.42241201;stroke-linecap:round;stroke-linejoin:miter;stroke-miterlimit:4;stroke-dasharray:none;stroke-opacity:1"
       id="binary_sensor.kitchenwindow_state"
       width="22.405125"
       height="3.3185737"
       x="44.192928"
       y="178.0914"
       inkscape:label="#rect4681" />
    <rect
       style="opacity:0.99842517;fill:#6f96a4;fill-opacity:1;stroke:none;stroke-width:0.41378766;stroke-linecap:round;stroke-linejoin:miter;stroke-miterlimit:4;stroke-dasharray:none;stroke-opacity:1"
       id="binary_sensor.livingroomwindow_state"
       width="2.5422783"
       height="28.064571"
       x="211.14488"
       y="112.61341"
       inkscape:label="#rect4681" />
    <rect
       style="opacity:0.99842517;fill:#6f96a4;fill-opacity:1;stroke:none;stroke-width:0.24253076;stroke-linecap:round;stroke-linejoin:miter;stroke-miterlimit:4;stroke-dasharray:none;stroke-opacity:1"
       id="binary_sensor.officedoor_state"
       width="17.69499"
       height="1.3851911"
       x="143.00897"
       y="98.007561"
       inkscape:label="#rect4681" />
    <rect
       style="opacity:0.99842517;fill:#6f96a4;fill-opacity:1;stroke:none;stroke-width:0.24832603;stroke-linecap:round;stroke-linejoin:miter;stroke-miterlimit:4;stroke-dasharray:none;stroke-opacity:1"
       id="binary_sensor.bedroomdoor_state"
       width="18.092554"
       height="1.4202702"
       x="119.18118"
       y="176.29245"
       inkscape:label="#rect4681" />
    <rect
       style="opacity:0.99842517;fill:#6f96a4;fill-opacity:1;stroke:none;stroke-width:0.28570116;stroke-linecap:round;stroke-linejoin:miter;stroke-miterlimit:4;stroke-dasharray:none;stroke-opacity:1"
       id="binary_sensor.livingroomdoor_state"
       width="1.8785565"
       height="18.106144"
       x="99.375107"
       y="154.26859"
       inkscape:label="#rect4681" />
  </g>
  <g
     inkscape:groupmode="layer"
     id="layer7"
     inkscape:label="Switchs"
     transform="translate(0,124.09925)"
     style="display:inline">
    <path
       id="switch.bedroom_fan"
       class="fan"
       d="m 121.99643,74.44474 a 0.99850297,0.99850297 0 0 0 -0.99847,0.99849 0.99850297,0.99850297 0 0 0 0.99847,0.99849 0.99850297,0.99850297 0 0 0 0.99849,-0.99849 0.99850297,0.99850297 0 0 0 -0.99849,-0.99849 m 0.49926,-8.98653 c 4.49328,0 4.60309,3.56465 2.24665,4.74289 -0.98853,0.48924 -1.42787,1.5377 -1.6176,2.4663 0.47929,0.19963 0.89868,0.50924 1.21817,0.90863 3.69448,-1.99702 7.66851,-1.2082 7.66851,2.36644 0,4.49329 -3.56464,4.5931 -4.74289,2.22666 -0.49924,-0.98853 -1.55767,-1.42784 -2.48626,-1.61756 -0.19963,0.47929 -0.50925,0.88868 -0.90863,1.22814 1.98702,3.6845 1.1982,7.64854 -2.37644,7.64854 -4.49328,0 -4.58315,-3.57465 -2.22667,-4.75285 0.97853,-0.48929 1.41789,-1.52774 1.61756,-2.44634 -0.48925,-0.19964 -0.91859,-0.51925 -1.23813,-0.91863 -3.68446,1.97705 -7.63854,1.1982 -7.63854,-2.36645 0,-4.49328 3.55465,-4.6031 4.73289,-2.23666 0.49925,0.98853 1.5477,1.41788 2.47629,1.6076 0.18983,-0.47928 0.50926,-0.89864 0.91864,-1.21817 -1.98701,-3.68447 -1.1982,-7.63854 2.35645,-7.63854 z"
       inkscape:connector-curvature="0"
       style="display:inline;fill:#ffffff;fill-opacity:1;stroke:#818181;stroke-width:0.5;stroke-miterlimit:4;stroke-dasharray:none;stroke-opacity:1"
       inkscape:label="#path5975" />
    <path
       id="switch.bathroom_heater"
       class="heater"
       d="m 66.305466,-89.986445 -1.419998,2.190009 1.419998,2.210003 h -0.0102 l -1.990001,3.099968 -1.729999,-0.899981 1.419999,-2.210003 -1.419999,-2.199987 2.000001,-3.100006 1.729999,0.909997 m 6,-0.109985 -1.419999,2.209966 1.419999,2.200025 -0.0098,0.01134 -1.99,3.090028 -1.73,-0.900019 1.419999,-2.199987 -1.419999,-2.200025 2.000002,-3.099968 1.729999,0.890003 m 6.049999,0 -1.44,2.209965 1.44,2.200025 v 0.01134 l -2.000001,3.090028 -1.750001,-0.900019 1.420003,-2.199987 -1.420003,-2.200025 2.000001,-3.099969 1.750001,0.890004 m -17.999999,19.10997 v -7.999974 a 1.9999999,1.9999999 0 0 1 2.000001,-2.000013 h 15.999998 a 1.9999999,1.9999999 0 0 1 2.000001,2.000013 v 7.999974 H 78.355496 V -72.98371 H 62.355467 v 1.999975 h -2.000001 m 4.000003,-8.002696 a 0.99999992,0.99999992 0 0 0 -1.000003,0.999988 v 2.000012 a 0.99999992,0.99999992 0 0 0 1.000003,0.999988 0.99999992,0.99999992 0 0 0 0.999998,-0.999988 v -2.000012 a 0.99999992,0.99999992 0 0 0 -0.999998,-0.999988 m 3.999998,0 a 0.99999992,0.99999992 0 0 0 -0.999999,0.999988 v 2.000012 a 0.99999992,0.99999992 0 0 0 0.999999,0.999988 0.99999992,0.99999992 0 0 0 0.999999,-0.999988 v -2.000012 a 0.99999992,0.99999992 0 0 0 -0.999999,-0.999988 m 3.999998,0 a 0.99999992,0.99999992 0 0 0 -0.999998,0.999988 v 2.000012 a 0.99999992,0.99999992 0 0 0 0.999998,0.999988 0.99999992,0.99999992 0 0 0 1.000003,-0.999988 v -2.000012 a 0.99999992,0.99999992 0 0 0 -1.000003,-0.999988 m 4.000003,0 a 0.99999992,0.99999992 0 0 0 -1.000003,0.999988 v 2.000012 a 0.99999992,0.99999992 0 0 0 1.000003,0.999988 0.99999992,0.99999992 0 0 0 0.999998,-0.999988 v -2.000012 a 0.99999992,0.99999992 0 0 0 -0.999998,-0.999988 z"
       inkscape:connector-curvature="0"
       style="fill:#ffffff;fill-opacity:1;stroke:#818181;stroke-width:0.5;stroke-linecap:round;stroke-linejoin:round;stroke-miterlimit:4;stroke-dasharray:none;stroke-opacity:1"
       inkscape:label="#path4723" />
    <path
       id="fan.livingroom_fan"
       class="fan"
       d="m 137.9629,3.7957466 a 0.99850297,0.99850297 0 0 0 -0.99847,0.99849 0.99850297,0.99850297 0 0 0 0.99847,0.99849 0.99850297,0.99850297 0 0 0 0.99849,-0.99849 0.99850297,0.99850297 0 0 0 -0.99849,-0.99849 m 0.49926,-8.98653 c 4.49328,0 4.60309,3.56465 2.24665,4.74288997 -0.98853,0.48924 -1.42787,1.53770003 -1.6176,2.46630003 0.47929,0.19963 0.89868,0.50924 1.21817,0.90863 3.69448,-1.99702 7.66851,-1.2082 7.66851,2.36644 0,4.4932902 -3.56464,4.5931002 -4.74289,2.22666 -0.49924,-0.98853 -1.55767,-1.42784 -2.48626,-1.61756 -0.19963,0.47929 -0.50925,0.88868 -0.90863,1.22814 1.98702,3.6845004 1.1982,7.6485404 -2.37644,7.6485404 -4.49328,0 -4.58315,-3.57465 -2.22667,-4.75285 0.97853,-0.4892902 1.41789,-1.5277404 1.61756,-2.4463404 -0.48925,-0.19964 -0.91859,-0.51925 -1.23813,-0.91863 -3.68446,1.97705 -7.63854,1.1982 -7.63854,-2.36645 0,-4.49328003 3.55465,-4.60310003 4.73289,-2.23666 0.49925,0.98853 1.5477,1.41788 2.47629,1.6076 0.18983,-0.47928 0.50926,-0.89864 0.91864,-1.21817 -1.98701,-3.68447 -1.1982,-7.63854 2.35645,-7.63854 z"
       inkscape:connector-curvature="0"
       style="display:inline;fill:#ffffff;fill-opacity:1;stroke:#818181;stroke-width:0.5;stroke-miterlimit:4;stroke-dasharray:none;stroke-opacity:1"
       inkscape:label="#path5975" />
  </g>
  <g
     inkscape:groupmode="layer"
     id="layer6"
     inkscape:label="Lights"
     style="display:inline"
     transform="translate(0,124.09925)">
    <path
       id="light.bedroom_2"
       d="m 142.90673,56.347367 a 7.0000699,7.0000699 0 0 0 -7.00014,6.999999 c 0,2.379971 1.19009,4.469989 3.00006,5.740017 v 2.260039 a 1.0000101,1.0000101 0 0 0 1.00001,0.99997 h 6.00009 a 1.0000101,1.0000101 0 0 0 1,-0.99997 v -2.260039 c 1.81002,-1.270028 3.00002,-3.360046 3.00002,-5.740017 a 7.0000699,7.0000699 0 0 0 -7.00004,-6.999999 m -3.00007,18.999984 a 1.0000101,1.0000101 0 0 0 1.00001,1.000016 h 4.00002 a 1.0000101,1.0000101 0 0 0 1.00006,-1.000016 V 74.3474 h -6.00009 z"
       inkscape:connector-curvature="0"
       style="fill:#ffffff;fill-opacity:1;stroke:#818181;stroke-width:0.5;stroke-miterlimit:4;stroke-dasharray:none;stroke-opacity:1"
       inkscape:label="#path2607" />
    <path
       id="light.living_room_ceiling_lamp"
       d="m 167.51392,-11.338001 a 7.0000087,7.0000087 0 0 0 -7.00003,7.0000108 c 0,2.379949 1.19003,4.46995999 3.00004,5.7400114 v 2.2599983 a 1.0000013,1.0000013 0 0 0 1.00004,0.9999565 h 5.99994 a 1.0000013,1.0000013 0 0 0 1,-0.9999565 V 1.4020212 c 1.80996,-1.27005141 3.00004,-3.3600624 3.00004,-5.7400114 a 7.0000087,7.0000087 0 0 0 -7.00003,-7.0000108 m -2.99995,18.9999837 a 1.0000013,1.0000013 0 0 0 1,1.0000159 h 3.9999 a 1.0000013,1.0000013 0 0 0 1.00004,-1.0000159 V 6.6620124 h -5.99994 z"
       inkscape:connector-curvature="0"
       style="fill:#ffffff;fill-opacity:1;stroke:#818181;stroke-width:0.5;stroke-miterlimit:4;stroke-dasharray:none;stroke-opacity:1;"
       inkscape:label="#path2607-0-5" />
    <path
       id="light.living_room_corner_lamp"
       d="m 205.68371,26.256014 a 7.0000059,7.0000059 0 0 0 -6.99998,7.000009 c 0,2.379962 1.18999,4.46997 2.99995,5.740018 v 2.260005 a 1.000001,1.000001 0 0 0 0.99999,0.999956 h 6.00003 a 1.000001,1.000001 0 0 0 1,-0.999956 v -2.260005 c 1.81,-1.270048 3.00004,-3.360056 3.00004,-5.740018 a 7.0000059,7.0000059 0 0 0 -7.00003,-7.000009 m -3.00004,18.99998 a 1.000001,1.000001 0 0 0 1.00005,1.00002 h 3.99994 a 1.000001,1.000001 0 0 0 1.00004,-1.00002 v -0.999952 h -6.00003 z"
       inkscape:connector-curvature="0"
       style="fill:#ffffff;fill-opacity:1;stroke:#818181;stroke-width:0.5;stroke-miterlimit:4;stroke-dasharray:none;stroke-opacity:1"
       inkscape:label="#path2607-0-4" />
    <path
       id="light.kitchen_1"
       d="m 54.71797,-61.593211 a 6.9999995,6.9999995 0 0 0 -6.999997,7.000011 c 0,2.37996 1.19001,4.469967 2.999994,5.740009 v 2.260007 a 1,1 0 0 0 1.000014,0.999969 h 5.999983 a 1,1 0 0 0 1.000019,-0.999969 v -2.260007 c 1.809975,-1.270042 2.999989,-3.360049 2.999989,-5.740009 a 6.9999995,6.9999995 0 0 0 -7.000002,-7.000011 m -2.999989,18.999985 a 1,1 0 0 0 1.000015,1.000015 h 3.999949 a 1,1 0 0 0 1.000019,-1.000015 v -0.999959 h -5.999983 z"
       inkscape:connector-curvature="0"
       style="fill:#ffffff;fill-opacity:1;stroke:#818181;stroke-width:0.5;stroke-miterlimit:4;stroke-dasharray:none;stroke-opacity:1"
       inkscape:label="#path2607-0-51" />
    <path
       id="light.kitchen_2"
       d="m 55.759005,9.1496626 a 7.0000042,7.0000042 0 0 0 -7.000006,7.0000164 c 0,2.379952 1.190015,4.469965 2.999991,5.740004 v 2.260004 a 1.0000007,1.0000007 0 0 0 1.000015,0.999969 h 5.999991 a 1.0000007,1.0000007 0 0 0 1.000016,-0.999969 v -2.260004 c 1.80998,-1.270039 2.999995,-3.360052 2.999995,-5.740004 A 7.0000042,7.0000042 0 0 0 55.759005,9.1496626 m -3,18.9999804 a 1.0000007,1.0000007 0 0 0 1.000025,1.00002 h 3.999947 a 1.0000007,1.0000007 0 0 0 1.000019,-1.00002 v -0.999951 h -5.999991 z"
       inkscape:connector-curvature="0"
       style="fill:#ffffff;fill-opacity:1;stroke:#818181;stroke-width:0.5;stroke-linejoin:round;stroke-miterlimit:4;stroke-dasharray:none;stroke-opacity:1;paint-order:normal"
       inkscape:label="#path2607-0-6" />
    <path
       id="light.computer_lamp_bulb"
       d="m 103.24514,-34.954202 a 6.9999995,6.9999995 0 0 0 -6.999996,7.00001 c 0,2.37996 1.19001,4.46997 3,5.74001 v 2.26001 a 1,1 0 0 0 1.000006,0.99997 h 5.99998 a 1,1 0 0 0 1.00002,-0.99997 v -2.26001 c 1.80998,-1.27004 2.99999,-3.36005 2.99999,-5.74001 a 6.9999995,6.9999995 0 0 0 -7,-7.00001 m -2.99999,18.99999 a 1,1 0 0 0 1.00002,1.00001 h 3.99995 a 1,1 0 0 0 1.00001,-1.00001 v -0.99996 h -5.99998 z"
       inkscape:connector-curvature="0"
       style="display:inline;fill:#ffffff;fill-opacity:1;stroke:#818181;stroke-width:0.5;stroke-miterlimit:4;stroke-dasharray:none;stroke-opacity:1"
       inkscape:label="#path2607-0-51" />
    <path
       id="light.office_ceiling"
       d="m 146.22258,-86.077375 a 6.9999995,6.9999995 0 0 0 -7,7.00001 c 0,2.37996 1.19001,4.46997 3.00001,5.74001 v 2.26001 a 1,1 0 0 0 1,0.99997 h 5.99998 a 1,1 0 0 0 1.00002,-0.99997 v -2.26001 c 1.80998,-1.27004 2.99999,-3.36005 2.99999,-5.74001 a 6.9999995,6.9999995 0 0 0 -7,-7.00001 m -2.99999,18.99999 a 1,1 0 0 0 1.00002,1.00001 h 3.99995 a 1,1 0 0 0 1.00001,-1.00001 v -0.99996 h -5.99998 z"
       inkscape:connector-curvature="0"
       style="display:inline;fill:#ffffff;fill-opacity:1;stroke:#818181;stroke-width:0.5;stroke-miterlimit:4;stroke-dasharray:none;stroke-opacity:1"
       inkscape:label="#path2607-0-51" />
    <path
       id="light.outdoor_1"
       d="m 93.461214,65.330437 a 7.0000699,7.0000699 0 0 0 -7.00014,7 c 0,2.37997 1.19009,4.46999 3.00006,5.74002 v 2.26004 a 1.0000101,1.0000101 0 0 0 1.00001,0.99997 h 6.00009 a 1.0000101,1.0000101 0 0 0 1,-0.99997 v -2.26004 c 1.81002,-1.27003 3.000016,-3.36005 3.000016,-5.74002 a 7.0000699,7.0000699 0 0 0 -7.000036,-7 m -3.00007,18.99998 a 1.0000101,1.0000101 0 0 0 1.00001,1.00002 h 4.00002 a 1.0000101,1.0000101 0 0 0 1.00006,-1.00002 v -0.99995 h -6.00009 z"
       inkscape:connector-curvature="0"
       style="display:inline;fill:#ffffff;fill-opacity:1;stroke:#818181;stroke-width:0.5;stroke-miterlimit:4;stroke-dasharray:none;stroke-opacity:1"
       inkscape:label="#path2607" />
    <path
       id="light.bedroom_nightstand"
       d="m 147.22257,92.205521 a 7.0000699,7.0000699 0 0 0 -7.00014,7.000012 c 0,2.379967 1.19009,4.469987 3.00006,5.740017 v 2.26004 a 1.0000101,1.0000101 0 0 0 1.00001,0.99997 h 6.00009 a 1.0000101,1.0000101 0 0 0 1,-0.99997 v -2.26004 c 1.81002,-1.27003 3.00002,-3.36005 3.00002,-5.740017 a 7.0000699,7.0000699 0 0 0 -7.00004,-7.000012 m -3.00007,18.999989 a 1.0000101,1.0000101 0 0 0 1.00001,1.00002 h 4.00002 a 1.0000101,1.0000101 0 0 0 1.00006,-1.00002 v -0.99995 h -6.00009 z"
       inkscape:connector-curvature="0"
       style="display:inline;fill:#ffffff;fill-opacity:1;stroke:#818181;stroke-width:0.5;stroke-miterlimit:4;stroke-dasharray:none;stroke-opacity:1"
       inkscape:label="#path2607" />
    <path
       id="group.bathroom_ceiling"
       d="m 49.268348,-102.65405 a 6.9999995,6.9999995 0 0 0 -6.999997,7.000013 c 0,2.37996 1.19001,4.46997 2.999994,5.74001 v 2.26001 a 1,1 0 0 0 1.000014,0.99997 h 5.999983 a 1,1 0 0 0 1.000019,-0.99997 v -2.26001 c 1.809975,-1.27004 2.999989,-3.36005 2.999989,-5.74001 a 6.9999995,6.9999995 0 0 0 -7.000002,-7.000013 m -2.999989,18.999993 a 1,1 0 0 0 1.000015,1.00001 h 3.999949 a 1,1 0 0 0 1.000019,-1.00001 v -0.99996 h -5.999983 z"
       inkscape:connector-curvature="0"
       style="display:inline;fill:#ffffff;fill-opacity:1;stroke:#818181;stroke-width:0.5;stroke-miterlimit:4;stroke-dasharray:none;stroke-opacity:1"
       inkscape:label="#path2607-0-51" />
    <path
       id="switch.ikea_planter"
       d="m 132.8505,-45.585182 c -5.53956,1.23102 -6.83212,5.028711 -8.11237,8.210871 l 1.1633,0.40625 0.58472,-1.41567 c 0.29545,0.10469 0.6032,0.18471 0.82479,0.18471 6.77059,0 8.61712,-10.463641 8.61712,-10.463641 -0.6155,1.23103 -4.92408,1.38491 -8.0016,2.00041 -3.07755,0.6155 -4.30858,3.23141 -4.30858,4.462441 0,1.23102 1.07714,2.30816 1.07714,2.30816 2.00041,-5.693461 8.15548,-5.693461 8.15548,-5.693461 z"
       inkscape:connector-curvature="0"
       style="fill:#ffffff;fill-opacity:1;stroke:#818181;stroke-width:0.61550784;stroke-opacity:1"
       inkscape:label="#path4734" />
    <path
       id="light.tv_light_bulb"
       d="m 205.21288,-36.991769 a 7.0000088,7.0000088 0 0 0 -7.00003,7.00001 c 0,2.37995 1.19003,4.46996 3.00004,5.74001 v 2.26 a 1.0000013,1.0000013 0 0 0 1.00004,0.99996 h 5.99994 a 1.0000013,1.0000013 0 0 0 1,-0.99996 v -2.26 c 1.80996,-1.27005 3.00004,-3.36006 3.00004,-5.74001 a 7.0000088,7.0000088 0 0 0 -7.00003,-7.00001 m -2.99995,18.99998 a 1.0000013,1.0000013 0 0 0 1,1.00002 h 3.9999 a 1.0000013,1.0000013 0 0 0 1.00004,-1.00002 v -0.99997 h -5.99994 z"
       inkscape:connector-curvature="0"
       style="display:inline;fill:#ffffff;fill-opacity:1;stroke:#818181;stroke-width:0.5;stroke-miterlimit:4;stroke-dasharray:none;stroke-opacity:1"
       inkscape:label="#path2607-0-5" />
    <path
       style="opacity:0.99842517;fill:#f99600;fill-opacity:1;stroke:#818181;stroke-width:0.5;stroke-linecap:round;stroke-linejoin:miter;stroke-miterlimit:4;stroke-dasharray:none;stroke-opacity:1;filter:url(#filter6085)"
       id="path5929"
       sodipodi:type="arc"
       sodipodi:cx="1024.3066"
       sodipodi:cy="-43.261253"
       sodipodi:rx="7.9375"
       sodipodi:ry="7.9375"
       sodipodi:start="0"
       sodipodi:end="6.2806371"
       sodipodi:open="true"
       d="m 1032.2441,-43.261253 a 7.9375,7.9375 0 0 1 -7.9324,7.937498 7.9375,7.9375 0 0 1 -7.9426,-7.927385 7.9375,7.9375 0 0 1 7.9224,-7.947599 7.9375,7.9375 0 0 1 7.9526,7.917259" />
    <path
       id="light.bedroom_corner_left"
       d="m 206.21471,88.562391 a 7.0000058,7.0000058 0 0 0 -6.99998,7.00001 c 0,2.37996 1.18999,4.469969 2.99995,5.740019 v 2.26 a 1.000001,1.000001 0 0 0 0.99999,0.99996 h 6.00003 a 1.000001,1.000001 0 0 0 1,-0.99996 v -2.26 c 1.81,-1.27005 3.00004,-3.360059 3.00004,-5.740019 a 7.0000058,7.0000058 0 0 0 -7.00003,-7.00001 m -3.00004,18.999979 a 1.000001,1.000001 0 0 0 1.00005,1.00002 h 3.99994 a 1.000001,1.000001 0 0 0 1.00004,-1.00002 v -0.99995 h -6.00003 z"
       inkscape:connector-curvature="0"
       style="display:inline;fill:#ffffff;fill-opacity:1;stroke:#818181;stroke-width:0.5;stroke-miterlimit:4;stroke-dasharray:none;stroke-opacity:1"
       inkscape:label="#path2607-0-4" />
    <path
       inkscape:label="#path2607-0-4"
       style="display:inline;fill:#ffffff;fill-opacity:1;stroke:#818181;stroke-width:0.5;stroke-miterlimit:4;stroke-dasharray:none;stroke-opacity:1"
       inkscape:connector-curvature="0"
       d="m 106.75648,88.562391 a 7.0000058,7.0000058 0 0 0 -6.99998,7.00001 c 0,2.37996 1.18999,4.469969 2.99995,5.740019 v 2.26 a 1.000001,1.000001 0 0 0 0.99999,0.99996 h 6.00003 a 1.000001,1.000001 0 0 0 1,-0.99996 v -2.26 c 1.81,-1.27005 3.00004,-3.360059 3.00004,-5.740019 a 7.0000058,7.0000058 0 0 0 -7.00003,-7.00001 m -3.00004,18.999979 a 1.000001,1.000001 0 0 0 1.00005,1.00002 h 3.99994 a 1.000001,1.000001 0 0 0 1.00004,-1.00002 v -0.99995 h -6.00003 z"
       id="light.bedroom_corner_right" />
  </g>
  <g
     inkscape:groupmode="layer"
     id="layer16"
     inkscape:label="Locks">
    <path
       id="lock.home"
       d="m 83.33049,165.00827 a 1.2142537,1.2142537 0 0 0 1.214254,-1.21423 c 0,-0.67392 -0.546414,-1.21426 -1.214254,-1.21426 a 1.2142537,1.2142537 0 0 0 -1.214254,1.21426 1.2142537,1.2142537 0 0 0 1.214254,1.21423 m 3.642761,-5.46414 a 1.2142537,1.2142537 0 0 1 1.214254,1.21426 v 6.07127 a 1.2142537,1.2142537 0 0 1 -1.214254,1.21426 h -7.285522 a 1.2142537,1.2142537 0 0 1 -1.214254,-1.21426 v -6.07127 c 0,-0.67391 0.546414,-1.21426 1.214254,-1.21426 h 0.607126 v -1.21423 a 3.0356343,3.0356343 0 0 1 3.035635,-3.03565 3.0356343,3.0356343 0 0 1 3.035635,3.03565 v 1.21423 h 0.607126 m -3.642761,-3.03562 a 1.8213805,1.8213805 0 0 0 -1.821381,1.82139 v 1.21423 h 3.642762 v -1.21423 a 1.8213805,1.8213805 0 0 0 -1.821381,-1.82139 z"
       inkscape:connector-curvature="0"
       style="fill:#ffffff;fill-opacity:1;stroke:#818181;stroke-width:0.60712683;stroke-opacity:1"
       inkscape:label="#path4666" />
  </g>
  <g
     inkscape:groupmode="layer"
     id="layer10"
     inkscape:label="Temps"
     transform="translate(0,124.09925)"
     style="display:inline">
    <text
       xml:space="preserve"
       style="font-style:normal;font-variant:normal;font-weight:normal;font-stretch:normal;font-size:4.23333311px;line-height:1.25;font-family:sans-serif;-inkscape-font-specification:'sans-serif, Normal';font-variant-ligatures:normal;font-variant-caps:normal;font-variant-numeric:normal;font-feature-settings:normal;text-align:center;letter-spacing:0px;word-spacing:0px;writing-mode:lr-tb;text-anchor:middle;fill:#000000;fill-opacity:1;stroke:none;stroke-width:0.35756892"
       x="87.319229"
       y="-100.42213"
       id="climate.bathroom"
       inkscape:label="#text2907"><tspan
         sodipodi:role="line"
         id="tspan2905"
         x="87.319229"
         y="-100.42213"
         style="font-style:normal;font-variant:normal;font-weight:normal;font-stretch:normal;font-size:4.23333311px;font-family:sans-serif;-inkscape-font-specification:'sans-serif, Normal';font-variant-ligatures:normal;font-variant-caps:normal;font-variant-numeric:normal;font-feature-settings:normal;text-align:center;writing-mode:lr-tb;text-anchor:middle;stroke-width:0.35756892">Temp</tspan></text>
    <text
       xml:space="preserve"
       style="font-style:normal;font-variant:normal;font-weight:normal;font-stretch:normal;font-size:4.23333311px;line-height:1.25;font-family:sans-serif;-inkscape-font-specification:'sans-serif, Normal';font-variant-ligatures:normal;font-variant-caps:normal;font-variant-numeric:normal;font-feature-settings:normal;text-align:end;letter-spacing:0px;word-spacing:0px;writing-mode:lr-tb;text-anchor:end;fill:#000000;fill-opacity:1;stroke:none;stroke-width:0.35756892"
       x="190.66557"
       y="100.48758"
       id="sensor.netatmo_bedroom_temperature"
       inkscape:label="#text2907-5"><tspan
         sodipodi:role="line"
         id="tspan2905-6"
         x="190.66557"
         y="100.48758"
         style="font-style:normal;font-variant:normal;font-weight:normal;font-stretch:normal;font-size:4.23333311px;font-family:sans-serif;-inkscape-font-specification:'sans-serif, Normal';font-variant-ligatures:normal;font-variant-caps:normal;font-variant-numeric:normal;font-feature-settings:normal;text-align:end;writing-mode:lr-tb;text-anchor:end;stroke-width:0.35756892">Temp</tspan></text>
    <text
       xml:space="preserve"
       style="font-style:normal;font-variant:normal;font-weight:normal;font-stretch:normal;font-size:4.23333311px;line-height:1.25;font-family:sans-serif;-inkscape-font-specification:'sans-serif, Normal';font-variant-ligatures:normal;font-variant-caps:normal;font-variant-numeric:normal;font-feature-settings:normal;text-align:center;letter-spacing:0px;word-spacing:0px;writing-mode:lr-tb;text-anchor:middle;fill:#000000;fill-opacity:1;stroke:none;stroke-width:0.35756892"
       x="48.20639"
       y="57.482491"
       id="sensor.netatmo_outdoormodule_temperature"
       inkscape:label="#text2907"><tspan
         sodipodi:role="line"
         id="tspan2905-7"
         x="48.20639"
         y="57.482491"
         style="font-style:normal;font-variant:normal;font-weight:normal;font-stretch:normal;font-size:4.23333311px;font-family:sans-serif;-inkscape-font-specification:'sans-serif, Normal';font-variant-ligatures:normal;font-variant-caps:normal;font-variant-numeric:normal;font-feature-settings:normal;text-align:center;writing-mode:lr-tb;text-anchor:middle;stroke-width:0.35756892">Temp</tspan></text>
    <text
       xml:space="preserve"
       style="font-style:normal;font-variant:normal;font-weight:normal;font-stretch:normal;font-size:4.23333311px;line-height:1.25;font-family:sans-serif;-inkscape-font-specification:'sans-serif, Normal';font-variant-ligatures:normal;font-variant-caps:normal;font-variant-numeric:normal;font-feature-settings:normal;text-align:center;letter-spacing:0px;word-spacing:0px;writing-mode:lr-tb;text-anchor:middle;display:inline;fill:#000000;fill-opacity:1;stroke:none;stroke-width:0.35756892"
       x="161.68036"
       y="-27.297869"
       id="climate.thermostat"
       inkscape:label="#text2907"><tspan
         sodipodi:role="line"
         id="tspan2905-7-6"
         x="161.68036"
         y="-27.297869"
         style="font-style:normal;font-variant:normal;font-weight:normal;font-stretch:normal;font-size:4.23333311px;font-family:sans-serif;-inkscape-font-specification:'sans-serif, Normal';font-variant-ligatures:normal;font-variant-caps:normal;font-variant-numeric:normal;font-feature-settings:normal;text-align:center;writing-mode:lr-tb;text-anchor:middle;stroke-width:0.35756892">Temp</tspan></text>
    <text
       xml:space="preserve"
       style="font-style:normal;font-variant:normal;font-weight:normal;font-stretch:normal;font-size:4.23333311px;line-height:1.25;font-family:sans-serif;-inkscape-font-specification:'sans-serif, Normal';font-variant-ligatures:normal;font-variant-caps:normal;font-variant-numeric:normal;font-feature-settings:normal;text-align:center;letter-spacing:0px;word-spacing:0px;writing-mode:lr-tb;text-anchor:middle;display:inline;fill:#000000;fill-opacity:1;stroke:none;stroke-width:0.35756892"
       x="68.074387"
       y="-5.8458982"
       id="sensor.kitchen_temperature"
       inkscape:label="#text2907-5"><tspan
         sodipodi:role="line"
         id="tspan2905-6-7"
         x="68.074387"
         y="-5.8458982"
         style="font-style:normal;font-variant:normal;font-weight:normal;font-stretch:normal;font-size:4.23333311px;font-family:sans-serif;-inkscape-font-specification:'sans-serif, Normal';font-variant-ligatures:normal;font-variant-caps:normal;font-variant-numeric:normal;font-feature-settings:normal;text-align:center;writing-mode:lr-tb;text-anchor:middle;stroke-width:0.35756892">Temp</tspan></text>
    <text
       xml:space="preserve"
       style="font-style:normal;font-variant:normal;font-weight:normal;font-stretch:normal;font-size:4.23333311px;line-height:1.25;font-family:sans-serif;-inkscape-font-specification:'sans-serif, Normal';font-variant-ligatures:normal;font-variant-caps:normal;font-variant-numeric:normal;font-feature-settings:normal;text-align:center;letter-spacing:0px;word-spacing:0px;writing-mode:lr-tb;text-anchor:middle;display:inline;fill:#000000;fill-opacity:1;stroke:none;stroke-width:0.35756892"
       x="179.26128"
       y="-76.221855"
       id="sensor.netatmo_office_temperature"
       inkscape:label="#text2907-5"><tspan
         sodipodi:role="line"
         id="tspan2905-6-7-3"
         x="179.26128"
         y="-76.221855"
         style="font-style:normal;font-variant:normal;font-weight:normal;font-stretch:normal;font-size:4.23333311px;font-family:sans-serif;-inkscape-font-specification:'sans-serif, Normal';font-variant-ligatures:normal;font-variant-caps:normal;font-variant-numeric:normal;font-feature-settings:normal;text-align:center;writing-mode:lr-tb;text-anchor:middle;stroke-width:0.35756892">Temp</tspan></text>
    <text
       xml:space="preserve"
       style="font-style:normal;font-variant:normal;font-weight:normal;font-stretch:normal;font-size:4.23333311px;line-height:1.25;font-family:sans-serif;-inkscape-font-specification:'sans-serif, Normal';font-variant-ligatures:normal;font-variant-caps:normal;font-variant-numeric:normal;font-feature-settings:normal;text-align:center;letter-spacing:0px;word-spacing:0px;writing-mode:lr-tb;text-anchor:middle;display:inline;fill:#000000;fill-opacity:1;stroke:none;stroke-width:0.35756892"
       x="-17.837826"
       y="-217.74419"
       id="sensor.tsl2561_ambient_light"
       inkscape:label="#text2907-5"
       transform="rotate(90)"><tspan
         sodipodi:role="line"
         id="tspan2905-6-7-9"
         x="-17.837826"
         y="-217.74419"
         style="font-style:normal;font-variant:normal;font-weight:normal;font-stretch:normal;font-size:4.23333311px;font-family:sans-serif;-inkscape-font-specification:'sans-serif, Normal';font-variant-ligatures:normal;font-variant-caps:normal;font-variant-numeric:normal;font-feature-settings:normal;text-align:center;writing-mode:lr-tb;text-anchor:middle;stroke-width:0.35756892">Lux</tspan></text>
  </g>
  <g
     inkscape:groupmode="layer"
     id="layer8"
     inkscape:label="Weather"
     transform="translate(0,124.09925)"
     style="display:inline">
    <path
       id="path2790"
       d="m 59.183709,56.259774 a 1.3514409,1.3514409 0 0 1 -1.351445,1.351438 1.3514409,1.3514409 0 0 1 -1.351433,-1.351438 c 0,-0.443264 0.213526,-0.835186 0.54057,-1.081153 v -2.162286 a 0.81086451,0.81086451 0 0 1 0.810863,-0.810858 0.81086451,0.81086451 0 0 1 0.810866,0.810858 v 2.162286 c 0.327053,0.245967 0.540579,0.637889 0.540579,1.081153 m -1.621728,-2.432577 v 1.667667 c -0.316236,0.110817 -0.54058,0.410825 -0.54058,0.76491 a 0.81086451,0.81086451 0 0 0 0.810863,0.810862 0.81086451,0.81086451 0 0 0 0.810866,-0.810862 c 0,-0.354085 -0.224337,-0.654093 -0.540571,-0.76491 v -1.667667 z"
       inkscape:connector-curvature="0"
       style="fill:#2f00f8;fill-opacity:1;stroke-width:0.27028814"
       inkscape:label="#path2790" />
    <path
       id="path2790-0"
       d="m 97.432609,-79.895433 a 1.3514409,1.3514409 0 0 1 -1.351444,1.35144 1.3514409,1.3514409 0 0 1 -1.351433,-1.35144 c 0,-0.44327 0.213526,-0.83519 0.54057,-1.08116 v -2.16231 a 0.81086451,0.81086451 0 0 1 0.810863,-0.81086 0.81086451,0.81086451 0 0 1 0.810866,0.81086 v 2.16231 c 0.327052,0.24597 0.540578,0.63789 0.540578,1.08116 m -1.621728,-2.4326 v 1.66768 c -0.316235,0.11082 -0.540579,0.41083 -0.540579,0.76492 a 0.81086451,0.81086451 0 0 0 0.810863,0.81086 0.81086451,0.81086451 0 0 0 0.810866,-0.81086 c 0,-0.35409 -0.224337,-0.6541 -0.540571,-0.76492 v -1.66768 z"
       inkscape:connector-curvature="0"
       style="fill:#2f00f8;fill-opacity:1;stroke-width:0.27028814"
       inkscape:label="#path2790-0" />
    <path
       id="path2790-5"
       d="m 157.39603,104.79336 a 1.3514409,1.3514409 0 0 1 -1.35145,1.35143 1.3514409,1.3514409 0 0 1 -1.35143,-1.35143 c 0,-0.44328 0.21352,-0.8352 0.54056,-1.08116 v -2.1623 a 0.81086451,0.81086451 0 0 1 0.81087,-0.81087 0.81086451,0.81086451 0 0 1 0.81087,0.81087 v 2.1623 c 0.32705,0.24596 0.54058,0.63788 0.54058,1.08116 m -1.62173,-2.4326 v 1.66768 c -0.31625,0.11082 -0.54059,0.41083 -0.54059,0.76492 a 0.81086451,0.81086451 0 0 0 0.81087,0.81086 0.81086451,0.81086451 0 0 0 0.81087,-0.81086 c 0,-0.35409 -0.22434,-0.6541 -0.54057,-0.76492 v -1.66768 z"
       inkscape:connector-curvature="0"
       style="fill:#2f00f8;fill-opacity:1;stroke-width:0.27028814"
       inkscape:label="#path2790-5" />
    <path
       id="path2790-5-2-4"
       d="m 116.30866,-44.64151 a 1.3514409,1.3514409 0 0 1 -1.35145,1.35143 1.3514409,1.3514409 0 0 1 -1.35143,-1.35143 c 0,-0.44328 0.21352,-0.8352 0.54056,-1.08116 v -2.1623 a 0.81086452,0.81086452 0 0 1 0.81087,-0.81087 0.81086452,0.81086452 0 0 1 0.81087,0.81087 v 2.1623 c 0.32705,0.24596 0.54058,0.63788 0.54058,1.08116 m -1.62173,-2.4326 v 1.66768 c -0.31625,0.11082 -0.54059,0.41083 -0.54059,0.76492 a 0.81086452,0.81086452 0 0 0 0.81087,0.81086 0.81086452,0.81086452 0 0 0 0.81087,-0.81086 c 0,-0.35409 -0.22434,-0.6541 -0.54057,-0.76492 v -1.66768 z"
       inkscape:connector-curvature="0"
       style="display:inline;fill:#2f00f8;fill-opacity:1;stroke:none;stroke-width:0.27028814;stroke-opacity:1"
       inkscape:label="#path2790-5" />
    <path
       id="path2790-5-2-4-2"
       d="m 35.334218,7.4954684 a 1.3514409,1.3514409 0 0 1 -1.35145,1.35143 1.3514409,1.3514409 0 0 1 -1.35143,-1.35143 c 0,-0.44328 0.21352,-0.8352 0.54056,-1.08116 v -2.1623 a 0.81086452,0.81086452 0 0 1 0.81087,-0.81087 0.81086452,0.81086452 0 0 1 0.81087,0.81087 v 2.1623 c 0.32705,0.24596 0.54058,0.63788 0.54058,1.08116 m -1.62173,-2.4326 v 1.66768 c -0.31625,0.11082 -0.54059,0.41083 -0.54059,0.76492 a 0.81086452,0.81086452 0 0 0 0.81087,0.81086 0.81086452,0.81086452 0 0 0 0.81087,-0.81086 c 0,-0.35409 -0.22434,-0.6541 -0.54057,-0.76492 v -1.66768 z"
       inkscape:connector-curvature="0"
       style="display:inline;fill:#2f00f8;fill-opacity:1;stroke:none;stroke-width:0.27028814;stroke-opacity:1"
       inkscape:label="#path2790-5" />
  </g>
  <g
     inkscape:groupmode="layer"
     id="layer14"
     inkscape:label="Buttons">
    <rect
       style="opacity:0.99842517;fill:#000000;fill-opacity:1;stroke:none;stroke-width:0.5;stroke-linecap:round;stroke-linejoin:miter;stroke-miterlimit:4;stroke-dasharray:none;stroke-opacity:1"
       id="rect6432"
       width="26.747511"
       height="7.5639539"
       x="18.520834"
       y="225.40166" />
    <path
       style="opacity:0.99842517;fill:#dfdfdf;fill-opacity:1;stroke:none;stroke-width:1.88976383;stroke-linecap:round;stroke-linejoin:miter;stroke-miterlimit:4;stroke-dasharray:none;stroke-opacity:1"
       d="m 42.902344,846.46094 c -1.046927,0 -1.890625,0.8437 -1.890625,1.89062 v 32.98828 c 0,1.04693 0.843698,1.89063 1.890625,1.89063 H 195.74609 c 1.04693,0 1.89063,-0.8437 1.89063,-1.89063 v -32.98828 c 0,-1.04692 -0.8437,-1.89062 -1.89063,-1.89062 z m 66.876786,9.93044 h 1.99699 v 16.53182 h -1.99699 z m 19.41963,0 h 1.99885 v 16.53182 h -1.99885 v -1.24421 c -0.57371,0.4958 -1.17124,0.88331 -1.79453,1.15954 -0.62329,0.27624 -1.30059,0.41412 -2.03013,0.41412 -1.41657,0 -2.54163,-0.54548 -3.3774,-1.63625 -0.8287,-1.09075 -1.24422,-2.60333 -1.24422,-4.53695 0,-1.00576 0.14186,-1.901 0.42518,-2.6872 0.29039,-0.7862 0.68002,-1.45558 1.16874,-2.00804 0.48163,-0.53829 1.04112,-0.94985 1.67858,-1.23317 0.64454,-0.28331 1.3118,-0.42517 1.99884,-0.42517 0.62329,0 1.17486,0.0679 1.6565,0.20247 0.48163,0.12749 0.98723,0.32931 1.51844,0.60553 z m -13.64031,0.60554 h 2.251 v 2.07246 h -2.251 z m -35.220751,0.10675 h 2.103748 v 6.2045 h 7.894117 v -6.2045 h 2.103748 v 15.81953 h -2.103748 v -7.74504 h -7.894117 v 7.74504 h -2.103748 z m 20.846061,3.6222 c 1.66448,0 2.99135,0.56345 3.98295,1.68963 0.9916,1.11909 1.48717,2.64566 1.48717,4.57929 0,1.93362 -0.49557,3.46019 -1.48717,4.57928 -0.9916,1.1191 -2.31847,1.67858 -3.98295,1.67858 -1.678639,0 -3.013431,-0.55948 -4.005033,-1.67858 -0.98452,-1.11909 -1.477962,-2.64566 -1.477962,-4.57928 0,-1.93363 0.493442,-3.4602 1.477962,-4.57929 0.991602,-1.12618 2.326394,-1.68963 4.005033,-1.68963 z m 38.00183,0.0423 c 0.83578,0 1.563,0.0719 2.17921,0.21352 0.6233,0.13456 1.16086,0.36835 1.61416,0.70124 0.44622,0.32582 0.78593,0.74741 1.01966,1.26445 0.23374,0.51706 0.19632,1.17251 0.35155,1.92155 v 8.05424 h -1.9878 v -1.26446 c -0.17707,0.12041 -0.41693,0.29026 -0.72149,0.50983 -0.29748,0.21249 -0.58727,0.38235 -0.87058,0.50984 -0.3329,0.1629 -0.71645,0.29683 -1.1485,0.40307 -0.43206,0.11333 -0.93766,0.17117 -1.51846,0.17117 -1.06951,0 -1.97663,-0.35555 -2.72033,-1.06384 -0.7437,-0.70828 -1.11537,-1.6096 -1.11537,-2.70744 0,-0.89953 0.19178,-1.62675 0.57426,-2.17921 0.38955,-0.55954 0.94111,-0.99911 1.65649,-1.31783 0.72245,-0.31873 1.58969,-0.53455 2.60254,-0.64788 1.01285,-0.11333 2.09986,-0.19733 3.26144,-0.25399 v -0.30922 c 0,-0.4533 -0.08,-0.82893 -0.24295,-1.12641 -0.15582,-0.29748 -0.38352,-0.52942 -0.68099,-0.69942 -0.28333,-0.1629 -0.62303,-0.27279 -1.01968,-0.32944 -0.39664,-0.0567 -0.81031,-0.0865 -1.24237,-0.0865 -0.52413,0 -1.1095,0.0718 -1.75404,0.2135 -0.64454,0.13458 -1.30995,0.33243 -1.99699,0.5945 h -0.10675 v -2.02829 c 0.38955,-0.10625 0.953,-0.22405 1.68961,-0.35154 0.73663,-0.1275 1.46201,-0.19143 2.17738,-0.19143 z m -23.50014,0.28713 h 1.997 v 11.86787 h -1.997 z m 31.04455,0 h 2.16633 l 3.64429,8.79783 3.67741,-8.79783 h 2.09271 l -6.92783,16.24469 h -2.13504 l 2.2105,-4.95107 z m -45.54624,1.39146 c -1.08368,0 -1.926868,0.37563 -2.528912,1.12642 -0.594962,0.7437 -0.892667,1.88459 -0.892667,3.42158 0,1.48741 0.301666,2.61642 0.90371,3.38845 0.602044,0.76495 1.441279,1.1485 2.517869,1.1485 1.06243,0 1.89374,-0.37959 2.49579,-1.13746 0.60912,-0.76495 0.91475,-1.89792 0.91475,-3.39949 0,-1.53699 -0.30167,-2.67788 -0.9037,-3.42158 -0.60205,-0.75079 -1.43732,-1.12642 -2.50684,-1.12642 z m 25.17872,0.10676 c -1.11909,0 -1.99028,0.38962 -2.61358,1.16874 -0.62329,0.77912 -0.935,1.88409 -0.935,3.31483 0,1.40949 0.2417,2.4825 0.72333,3.21912 0.48165,0.72954 1.25299,1.09329 2.31541,1.09329 0.56664,0 1.14013,-0.12389 1.72092,-0.37179 0.58079,-0.25499 1.12232,-0.58069 1.6252,-0.97733 v -6.81004 c -0.53829,-0.24082 -1.01985,-0.40671 -1.44483,-0.49879 -0.42496,-0.0921 -0.88857,-0.13803 -1.39145,-0.13803 z m 15.99989,4.14307 c -0.60912,0.0354 -1.32658,0.0893 -2.15527,0.16012 -0.82162,0.0708 -1.47487,0.17281 -1.95651,0.30737 -0.57371,0.16291 -1.03731,0.41862 -1.39146,0.76567 -0.35414,0.33999 -0.53007,0.80966 -0.53007,1.41171 0,0.67996 0.20393,1.19348 0.61474,1.54054 0.41081,0.33998 1.03818,0.51167 1.88104,0.51168 0.7012,0 1.34258,-0.13578 1.92337,-0.40493 0.5808,-0.27623 1.11837,-0.6059 1.61416,-0.98837 z"
       transform="scale(0.26458333)"
       id="input_boolean.holidays"
       inkscape:label="#rect6420"
       inkscape:connector-curvature="0"
       sodipodi:nodetypes="ssssssssscccccccccccscscccscccccccccccccccccccccscssscscsscccsccccccscsccscscccscccccsccccccccccccccscscscscsscscsccccsccccsccccc" />
    <rect
       y="213.37889"
       x="13.305737"
       height="7.5639539"
       width="36.8503"
       id="rect6434"
       style="opacity:0.99842517;fill:#000000;fill-opacity:1;stroke:none;stroke-width:0.58687937;stroke-linecap:round;stroke-linejoin:miter;stroke-miterlimit:4;stroke-dasharray:none;stroke-opacity:1" />
    <path
       style="opacity:0.99842517;fill:#dfdfdf;fill-opacity:1;stroke:none;stroke-width:1.88976383;stroke-linecap:round;stroke-linejoin:miter;stroke-miterlimit:4;stroke-dasharray:none;stroke-opacity:1"
       d="M 42.902344 801.02148 C 41.855418 801.02148 41.011719 801.86522 41.011719 802.91211 L 41.011719 835.90039 C 41.011719 836.94732 41.855418 837.79102 42.902344 837.79102 L 195.74609 837.79102 C 196.79303 837.79102 197.63672 836.94732 197.63672 835.90039 L 197.63672 802.91211 C 197.63672 801.86522 196.79303 801.02148 195.74609 801.02148 L 42.902344 801.02148 z M 53.371094 810.93164 L 55.476562 810.93164 L 55.476562 824.89062 L 63.384766 824.89062 L 63.384766 826.76172 L 53.371094 826.76172 L 53.371094 810.93164 z M 124.72461 810.93164 L 126.83008 810.93164 L 126.83008 817.14062 L 134.72852 817.14062 L 134.72852 810.93164 L 136.83398 810.93164 L 136.83398 826.76172 L 134.72852 826.76172 L 134.72852 819.01172 L 126.83008 819.01172 L 126.83008 826.76172 L 124.72461 826.76172 L 124.72461 810.93164 z M 70.263672 814.55664 C 71.86537 814.55664 73.098257 815.02543 73.962891 815.96094 C 74.834611 816.89644 75.269531 818.22509 75.269531 819.94727 L 75.269531 821.03125 L 66.521484 821.03125 C 66.521484 821.76123 66.631861 822.3996 66.851562 822.94531 C 67.071264 823.48394 67.3712 823.92617 67.753906 824.27344 C 68.122438 824.61362 68.559312 824.86897 69.0625 825.03906 C 69.572775 825.20915 70.132692 825.29297 70.742188 825.29297 C 71.550123 825.29297 72.360758 825.13533 73.175781 824.81641 C 73.997892 824.4904 74.582417 824.17121 74.929688 823.85938 L 75.037109 823.85938 L 75.037109 826.03711 C 74.363829 826.3206 73.676238 826.55865 72.974609 826.75 C 72.272981 826.94135 71.536172 827.03711 70.763672 827.03711 C 68.793442 827.03711 67.254034 826.50643 66.148438 825.44336 C 65.042841 824.3732 64.490234 822.85572 64.490234 820.89258 C 64.490234 818.9507 65.018232 817.40861 66.074219 816.26758 C 67.137292 815.12655 68.534405 814.55664 70.263672 814.55664 z M 108.875 814.55664 C 110.4767 814.55664 111.70959 815.02543 112.57422 815.96094 C 113.44594 816.89644 113.88086 818.22509 113.88086 819.94727 L 113.88086 821.03125 L 105.13281 821.03125 C 105.13281 821.76123 105.24124 822.3996 105.46094 822.94531 C 105.68064 823.48394 105.98253 823.92617 106.36523 824.27344 C 106.73377 824.61362 107.17064 824.86897 107.67383 825.03906 C 108.1841 825.20915 108.74402 825.29297 109.35352 825.29297 C 110.16145 825.29297 110.97209 825.13533 111.78711 824.81641 C 112.60922 824.4904 113.19374 824.17121 113.54102 823.85938 L 113.64648 823.85938 L 113.64648 826.03711 C 112.9732 826.3206 112.28757 826.55865 111.58594 826.75 C 110.88431 826.94135 110.14555 827.03711 109.37305 827.03711 C 107.40282 827.03711 105.86536 826.50643 104.75977 825.44336 C 103.65417 824.3732 103.10156 822.85572 103.10156 820.89258 C 103.10156 818.9507 103.62956 817.40861 104.68555 816.26758 C 105.74862 815.12655 107.14573 814.55664 108.875 814.55664 z M 145.58203 814.55664 C 147.24751 814.55664 148.57616 815.12119 149.56836 816.24805 C 150.56056 817.36782 151.05664 818.89333 151.05664 820.82812 C 151.05664 822.76292 150.56056 824.29039 149.56836 825.41016 C 148.57616 826.52993 147.24751 827.08984 145.58203 827.08984 C 143.90237 827.08984 142.56642 826.52993 141.57422 825.41016 C 140.5891 824.29039 140.0957 822.76292 140.0957 820.82812 C 140.0957 818.89333 140.5891 817.36782 141.57422 816.24805 C 142.56642 815.12119 143.90237 814.55664 145.58203 814.55664 z M 160.00781 814.55664 C 160.81575 814.55664 161.50066 814.72622 162.06055 815.06641 C 162.62752 815.40659 163.04782 815.87806 163.32422 816.48047 C 164.13215 815.8001 164.86896 815.31133 165.53516 815.01367 C 166.20135 814.70892 166.91355 814.55664 167.67188 814.55664 C 168.97591 814.55664 169.9381 814.95429 170.55469 815.74805 C 171.17836 816.53472 171.48828 817.6353 171.48828 819.05273 L 171.48828 826.76172 L 169.49023 826.76172 L 169.49023 820 C 169.49023 819.48972 169.46563 818.99632 169.41602 818.52148 C 169.37349 818.04664 169.27774 817.66825 169.12891 817.38477 C 168.9659 817.08002 168.73248 816.84928 168.42773 816.69336 C 168.12299 816.53744 167.68343 816.45898 167.10938 816.45898 C 166.54949 816.45898 165.98957 816.60128 165.42969 816.88477 C 164.8698 817.16116 164.30989 817.51495 163.75 817.94727 C 163.77126 818.11027 163.78856 818.30178 163.80273 818.52148 C 163.81691 818.7341 163.82422 818.94754 163.82422 819.16016 L 163.82422 826.76172 L 161.82617 826.76172 L 161.82617 820 C 161.82617 819.47555 161.80156 818.97947 161.75195 818.51172 C 161.70943 818.03688 161.61367 817.65653 161.46484 817.37305 C 161.30184 817.0683 161.06842 816.84219 160.76367 816.69336 C 160.45892 816.53744 160.01937 816.45898 159.44531 816.45898 C 158.8996 816.45898 158.34967 816.59397 157.79688 816.86328 C 157.25116 817.13259 156.70587 817.47639 156.16016 817.89453 L 156.16016 826.76172 L 154.16211 826.76172 L 154.16211 814.88672 L 156.16016 814.88672 L 156.16016 816.20508 C 156.78383 815.68772 157.40295 815.28276 158.01953 814.99219 C 158.6432 814.70161 159.30618 814.55664 160.00781 814.55664 z M 180.26953 814.55664 C 181.87123 814.55664 183.10607 815.02543 183.9707 815.96094 C 184.84242 816.89644 185.27734 818.22509 185.27734 819.94727 L 185.27734 821.03125 L 176.52734 821.03125 C 176.52734 821.76123 176.63772 822.3996 176.85742 822.94531 C 177.07712 823.48394 177.37901 823.92617 177.76172 824.27344 C 178.13025 824.61362 178.56517 824.86897 179.06836 825.03906 C 179.57863 825.20915 180.13855 825.29297 180.74805 825.29297 C 181.55598 825.29297 182.36857 825.13533 183.18359 824.81641 C 184.0057 824.4904 184.59023 824.17121 184.9375 823.85938 L 185.04297 823.85938 L 185.04297 826.03711 C 184.36969 826.3206 183.6821 826.55865 182.98047 826.75 C 182.27884 826.94135 181.54203 827.03711 180.76953 827.03711 C 178.7993 827.03711 177.26185 826.50643 176.15625 825.44336 C 175.05065 824.3732 174.49805 822.85572 174.49805 820.89258 C 174.49805 818.9507 175.02604 817.40861 176.08203 816.26758 C 177.1451 815.12655 178.54026 814.55664 180.26953 814.55664 z M 82.361328 814.59961 C 83.197613 814.59961 83.924433 814.67076 84.541016 814.8125 C 85.164686 814.94716 85.702672 815.18058 86.15625 815.51367 C 86.602741 815.83968 86.943858 816.26193 87.177734 816.7793 C 87.411611 817.29666 87.527344 817.93771 87.527344 818.70312 L 87.527344 826.76172 L 85.539062 826.76172 L 85.539062 825.49609 C 85.361884 825.61658 85.121154 825.78616 84.816406 826.00586 C 84.518746 826.21847 84.228799 826.38806 83.945312 826.51562 C 83.612216 826.67863 83.229192 826.81361 82.796875 826.91992 C 82.364558 827.03332 81.858491 827.08984 81.277344 827.08984 C 80.207183 827.08984 79.298839 826.73606 78.554688 826.02734 C 77.810536 825.31863 77.439453 824.41492 77.439453 823.31641 C 77.439453 822.41634 77.630965 821.68952 78.013672 821.13672 C 78.403466 820.57683 78.956072 820.13728 79.671875 819.81836 C 80.394765 819.49944 81.261927 819.28332 82.275391 819.16992 C 83.288854 819.05653 84.376769 818.97271 85.539062 818.91602 L 85.539062 818.60742 C 85.539062 818.15384 85.457927 817.77813 85.294922 817.48047 C 85.139004 817.18281 84.912895 816.94939 84.615234 816.7793 C 84.331748 816.61629 83.990631 816.50592 83.59375 816.44922 C 83.196869 816.39252 82.781926 816.36328 82.349609 816.36328 C 81.82516 816.36328 81.240634 816.43443 80.595703 816.57617 C 79.950772 816.71083 79.285111 816.90965 78.597656 817.17188 L 78.492188 817.17188 L 78.492188 815.14062 C 78.881981 815.03432 79.444576 814.91858 80.181641 814.79102 C 80.918705 814.66345 81.645525 814.59961 82.361328 814.59961 z M 89.908203 814.88672 L 92.078125 814.88672 L 95.755859 824.33789 L 99.402344 814.88672 L 101.49609 814.88672 L 96.691406 826.76172 L 94.681641 826.76172 L 89.908203 814.88672 z M 70.15625 816.20508 C 69.086089 816.20508 68.233547 816.51963 67.595703 817.15039 C 66.964946 817.78115 66.60653 818.5645 66.521484 819.5 L 73.324219 819.5 C 73.317132 818.4511 73.051793 817.64047 72.527344 817.06641 C 72.009981 816.49235 71.219324 816.20508 70.15625 816.20508 z M 108.76758 816.20508 C 107.69742 816.20508 106.84292 816.51963 106.20508 817.15039 C 105.57432 817.78115 105.21786 818.5645 105.13281 819.5 L 111.93555 819.5 C 111.92846 818.4511 111.66312 817.64047 111.13867 817.06641 C 110.62131 816.49235 109.83065 816.20508 108.76758 816.20508 z M 180.16406 816.20508 C 179.0939 816.20508 178.23941 816.51963 177.60156 817.15039 C 176.97081 817.78115 176.61239 818.5645 176.52734 819.5 L 183.33203 819.5 C 183.32494 818.4511 183.05961 817.64047 182.53516 817.06641 C 182.01779 816.49235 181.22714 816.20508 180.16406 816.20508 z M 145.58203 816.2793 C 144.4977 816.2793 143.65514 816.65501 143.05273 817.40625 C 142.45741 818.1504 142.1582 819.29021 142.1582 820.82812 C 142.1582 822.31643 142.46009 823.4482 143.0625 824.2207 C 143.66491 824.98612 144.50478 825.36914 145.58203 825.36914 C 146.6451 825.36914 147.47767 824.98879 148.08008 824.23047 C 148.68957 823.46506 148.99414 822.3306 148.99414 820.82812 C 148.99414 819.29021 148.69421 818.1504 148.0918 817.40625 C 147.48939 816.65501 146.65219 816.2793 145.58203 816.2793 z M 85.539062 820.53125 C 84.929567 820.56669 84.210057 820.62053 83.380859 820.69141 C 82.558749 820.76228 81.907708 820.86534 81.425781 821 C 80.851721 821.163 80.387561 821.4164 80.033203 821.76367 C 79.678845 822.10386 79.501953 822.57533 79.501953 823.17773 C 79.501953 823.8581 79.706132 824.37343 80.117188 824.7207 C 80.528243 825.06089 81.156628 825.23047 82 825.23047 C 82.701629 825.23047 83.342681 825.09548 83.923828 824.82617 C 84.504975 824.54977 85.042961 824.2206 85.539062 823.83789 L 85.539062 820.53125 z "
       id="input_boolean.start_leave_home_script"
       transform="scale(0.26458333)"
       inkscape:label="#path6436" />
  </g>
</svg>
