<?xml version="1.0" encoding="UTF-8" standalone="no"?>
<!-- Created with Inkscape (http://www.inkscape.org/) -->

<svg
   xmlns:dc="http://purl.org/dc/elements/1.1/"
   xmlns:cc="http://creativecommons.org/ns#"
   xmlns:rdf="http://www.w3.org/1999/02/22-rdf-syntax-ns#"
   xmlns:svg="http://www.w3.org/2000/svg"
   xmlns="http://www.w3.org/2000/svg"
   xmlns:sodipodi="http://sodipodi.sourceforge.net/DTD/sodipodi-0.dtd"
   xmlns:inkscape="http://www.inkscape.org/namespaces/inkscape"
   width="850"
   height="930"
   viewBox="0 0 224.89583 246.0625"
   version="1.1"
   id="svg8"
   inkscape:version="0.92.1 r15371"
   sodipodi:docname="floorplan.svg"
   inkscape:export-filename="C:\Users\sbl.BRIENZ\Downloads\floorplan.png"
   inkscape:export-xdpi="299.97177"
   inkscape:export-ydpi="299.97177"
   style="enable-background:new">
  <defs
     id="defs2">
    <filter
       style="color-interpolation-filters:sRGB"
       inkscape:label="Lightness-Contrast"
       id="filter6085">
      <feFlood
         flood-opacity="0.47451"
         flood-color="rgb(0,0,0)"
         result="flood"
         id="feFlood6075" />
      <feComposite
         in="flood"
         in2="SourceGraphic"
         operator="in"
         result="composite1"
         id="feComposite6077" />
      <feGaussianBlur
         in="composite1"
         stdDeviation="0.3"
         result="blur"
         id="feGaussianBlur6079" />
      <feOffset
         dx="0"
         dy="0.4"
         result="offset"
         id="feOffset6081" />
      <feComposite
         in="SourceGraphic"
         in2="offset"
         operator="over"
         result="fbSourceGraphic"
         id="feComposite6083" />
      <feColorMatrix
         id="feColorMatrix6211"
         values="1 0 0 0.2 -0 0 1 0 0.2 -0 0 0 1 0.2 -0 0 0 0 1 0"
         in="fbSourceGraphic" />
    </filter>
  </defs>
  <sodipodi:namedview
     id="base"
     pagecolor="#ffffff"
     bordercolor="#666666"
     borderopacity="1.0"
     inkscape:pageopacity="0.0"
     inkscape:pageshadow="2"
     inkscape:zoom="2.0000002"
     inkscape:cx="738.29509"
     inkscape:cy="47.576144"
     inkscape:document-units="mm"
     inkscape:current-layer="layer17"
     showgrid="false"
     fit-margin-top="0"
     fit-margin-left="0"
     fit-margin-right="0"
     fit-margin-bottom="0"
     showguides="false"
     inkscape:guide-bbox="true"
     inkscape:window-width="2560"
     inkscape:window-height="1361"
     inkscape:window-x="2391"
     inkscape:window-y="-9"
     inkscape:window-maximized="1"
     units="px">
    <sodipodi:guide
       position="2.5985874,38.052459"
       orientation="1,0"
       id="guide21"
       inkscape:locked="false" />
    <sodipodi:guide
       position="-2.8584437,-3.1233214"
       orientation="0,1"
       id="guide23"
       inkscape:locked="false" />
    <sodipodi:guide
       position="64.208705,127.68006"
       orientation="1,0"
       id="guide25"
       inkscape:locked="false" />
    <sodipodi:guide
       position="150.22259,123.58211"
       orientation="1,0"
       id="guide29"
       inkscape:locked="false" />
    <sodipodi:guide
       position="60.617935,-44.393596"
       orientation="0,1"
       id="guide37"
       inkscape:locked="false" />
    <sodipodi:guide
       position="69.448395,1.8588766"
       orientation="0,1"
       id="guide39"
       inkscape:locked="false" />
    <sodipodi:guide
       position="3.6601351e-007,36.44606"
       orientation="1,0"
       id="guide41"
       inkscape:locked="false" />
    <sodipodi:guide
       position="16.536459,42.304691"
       orientation="1,0"
       id="guide43"
       inkscape:locked="false" />
    <sodipodi:guide
       position="66.901785,125.97917"
       orientation="1,0"
       id="guide853"
       inkscape:locked="false" />
    <sodipodi:guide
       position="148.08443,125.65345"
       orientation="1,0"
       id="guide855"
       inkscape:locked="false" />
    <sodipodi:guide
       position="18.520833,48.966523"
       orientation="1,0"
       id="guide857"
       inkscape:locked="false" />
    <sodipodi:guide
       position="69.736605,5.0267905"
       orientation="0,1"
       id="guide861"
       inkscape:locked="false" />
    <sodipodi:guide
       position="152.93862,-21.573284"
       orientation="0,1"
       id="guide863"
       inkscape:locked="false" />
    <sodipodi:guide
       position="152.98586,-5.1785664"
       orientation="0,1"
       id="guide865"
       inkscape:locked="false" />
    <sodipodi:guide
       position="153.17485,28.083337"
       orientation="0,1"
       id="guide867"
       inkscape:locked="false" />
    <sodipodi:guide
       position="155.6317,49.108264"
       orientation="0,1"
       id="guide869"
       inkscape:locked="false" />
    <sodipodi:guide
       position="155.06473,69.9442"
       orientation="0,1"
       id="guide871"
       inkscape:locked="false" />
    <sodipodi:guide
       position="69.689355,-46.566959"
       orientation="0,1"
       id="guide873"
       inkscape:locked="false" />
    <sodipodi:guide
       position="60.219575,-4.3063564"
       orientation="1,0"
       id="guide875"
       inkscape:locked="false" />
    <sodipodi:guide
       position="22.18044,90.09324"
       orientation="0,1"
       id="guide883"
       inkscape:locked="false" />
    <sodipodi:guide
       position="23.396516,89.15779"
       orientation="0,1"
       id="guide885"
       inkscape:locked="false" />
    <sodipodi:guide
       position="33.171898,100.5702"
       orientation="1,0"
       id="guide887"
       inkscape:locked="false" />
    <sodipodi:guide
       position="34.621835,101.97337"
       orientation="1,0"
       id="guide889"
       inkscape:locked="false" />
    <sodipodi:guide
       position="39.299052,86.72564"
       orientation="0,1"
       id="guide891"
       inkscape:locked="false" />
    <sodipodi:guide
       position="38.129748,85.04184"
       orientation="0,1"
       id="guide893"
       inkscape:locked="false" />
    <sodipodi:guide
       position="20.239394,92.45523"
       orientation="1,0"
       id="guide895"
       inkscape:locked="false" />
    <sodipodi:guide
       position="81.685374,59.78609"
       orientation="0,1"
       id="guide901"
       inkscape:locked="false" />
    <sodipodi:guide
       position="81.983034,58.76083"
       orientation="0,1"
       id="guide903"
       inkscape:locked="false" />
    <sodipodi:guide
       position="97.924174,63.52333"
       orientation="1,0"
       id="guide905"
       inkscape:locked="false" />
    <sodipodi:guide
       position="110.75647,64.64781"
       orientation="1,0"
       id="guide907"
       inkscape:locked="false" />
    <sodipodi:guide
       position="70.986285,0.80054354"
       orientation="0,1"
       id="guide913"
       inkscape:locked="false" />
    <sodipodi:guide
       position="80.294855,0.80054454"
       orientation="1,0"
       id="guide915"
       inkscape:locked="false" />
    <sodipodi:guide
       position="93.461214,-0.17704246"
       orientation="1,0"
       id="guide917"
       inkscape:locked="false" />
    <sodipodi:guide
       position="8.3296493,116.39038"
       orientation="0,1"
       id="guide923"
       inkscape:locked="false" />
    <sodipodi:guide
       position="67.521905,18.014996"
       orientation="0,1"
       id="guide925"
       inkscape:locked="false" />
    <sodipodi:guide
       position="151.65749,91.95243"
       orientation="0,1"
       id="guide927"
       inkscape:locked="false" />
    <sodipodi:guide
       position="150.46464,119.31734"
       orientation="0,1"
       id="guide929"
       inkscape:locked="false" />
    <sodipodi:guide
       position="3.2033484,45.002497"
       orientation="0,1"
       id="guide931"
       inkscape:locked="false" />
    <sodipodi:guide
       position="1.3726714,31.622184"
       orientation="0,1"
       id="guide933"
       inkscape:locked="false" />
    <sodipodi:guide
       position="5.3424594,30.037777"
       orientation="0,1"
       id="guide935"
       inkscape:locked="false" />
    <sodipodi:guide
       position="3.3687124,1.2635646"
       orientation="0,1"
       id="guide937"
       inkscape:locked="false" />
    <sodipodi:guide
       position="45.268345,0.80054454"
       orientation="1,0"
       id="guide939"
       inkscape:locked="false" />
    <sodipodi:guide
       position="23.76289,105.1388"
       orientation="1,0"
       id="guide5797"
       inkscape:locked="false" />
    <sodipodi:guide
       position="20.239394,106.69323"
       orientation="0,1"
       id="guide5799"
       inkscape:locked="false" />
    <sodipodi:guide
       position="18.008202,104.85768"
       orientation="1,0"
       id="guide5801"
       inkscape:locked="false" />
    <sodipodi:guide
       position="19.727994,100.62435"
       orientation="0,1"
       id="guide5803"
       inkscape:locked="false" />
    <sodipodi:guide
       position="160.86929,26.711529"
       orientation="1,0"
       id="guide5967"
       inkscape:locked="false" />
    <sodipodi:guide
       position="43.209443,224.48814"
       orientation="1,0"
       id="guide4894"
       inkscape:locked="false" />
    <sodipodi:guide
       position="10.851143,58.760831"
       orientation="1,0"
       id="guide6422"
       inkscape:locked="false" />
    <sodipodi:guide
       position="38.914443,9.728611"
       orientation="0,1"
       id="guide6424"
       inkscape:locked="false" />
  </sodipodi:namedview>
  <metadata
     id="metadata5">
    <rdf:RDF>
      <cc:Work
         rdf:about="">
        <dc:format>image/svg+xml</dc:format>
        <dc:type
           rdf:resource="http://purl.org/dc/dcmitype/StillImage" />
        <dc:title />
      </cc:Work>
    </rdf:RDF>
  </metadata>
  <g
     inkscape:groupmode="layer"
     id="layer1"
     inkscape:label="BACKGROUND"
     style="display:none"
     transform="translate(0,-5.2916667)">
    <rect
       style="opacity:1;fill:#ffffff;fill-opacity:1;stroke:none;stroke-width:0.5;stroke-linecap:round;stroke-linejoin:round;stroke-miterlimit:4;stroke-dasharray:none;stroke-opacity:1"
       id="rect4724"
       width="241.03542"
       height="262.88272"
       x="-8.7312498"
       y="-6.3499999" />
  </g>
  <g
     inkscape:groupmode="layer"
     id="layer17"
     inkscape:label="DeviceTrackerImage"
     transform="translate(0,2.6458333)" />
  <g
     inkscape:groupmode="layer"
     id="layer18"
     inkscape:label="DeviceTracker"
     transform="translate(0,2.6458333)"
     style="opacity:1">
    <g
       id="device_tracker.mazda_6"
       transform="matrix(1,0,0,-1,-87.01753,580.8395)"
       inkscape:label="#g4816"
       style="opacity:1">
      <path
         sodipodi:nodetypes="csscscccccccsscccc"
         inkscape:connector-curvature="0"
         id="path4680"
         d="m 195.32864,329.10859 c 0,0 0.0602,3.23895 0.24805,4.84519 0.22325,1.90928 0.55864,3.83487 1.12447,5.672 0.42569,1.38213 1.4056,3.57187 1.67019,3.96875 0.26458,0.39687 1.75286,1.85208 4.33255,2.41432 2.57969,0.56224 3.20807,0.59531 3.50573,0.62839 0.29765,0.0331 1.12448,0.56223 1.71979,0.7276 0.59531,0.16536 1.5875,0.39687 1.5875,0.39687 h 31.05547 16.99947 l 16.04038,0.23151 5.78776,-0.33072 c 0,0 3.10885,-0.23151 4.03489,-0.56224 0.92604,-0.33073 2.01745,-0.99219 2.48047,-1.32292 0.46302,-0.33073 3.37344,-4.26641 3.37344,-4.26641 0,0 1.35599,-1.71979 1.85208,-3.10885 0.4961,-1.38906 0.76068,-5.72162 0.76068,-5.72162 v -6.15156 l -96.46406,0.0136 z"
         style="fill:#383636;fill-opacity:1;stroke:#000000;stroke-width:0.26458332px;stroke-linecap:butt;stroke-linejoin:miter;stroke-opacity:1" />
      <path
         inkscape:connector-curvature="0"
         id="path4770"
         d="m 199.23124,341.7507 1.0666,1.33945 1.28985,0.82682 2.45566,0.74415 2.4722,0.44648 0.5209,0.2894 -0.34727,0.20669 -2.158,-0.10747 -2.56315,-0.49609 -2.05052,-1.25677 -0.87644,-1.36428 -0.17363,-0.66971 z"
         style="fill:#640606;fill-opacity:1;stroke:none;stroke-width:0.26458332px;stroke-linecap:butt;stroke-linejoin:miter;stroke-opacity:1" />
      <path
         inkscape:connector-curvature="0"
         id="path4768"
         d="m 221.0759,342.80903 0.68627,1.52136 3.21634,0.22325 -0.73587,-2.04226 z"
         style="fill:#252525;fill-opacity:1;stroke:none;stroke-width:0.26458332px;stroke-linecap:butt;stroke-linejoin:miter;stroke-opacity:1" />
      <path
         inkscape:connector-curvature="0"
         id="path4766"
         d="m 224.79661,342.49484 5.95387,-0.0732 6.48964,0.0351 0.53788,2.7128 -5.98684,-0.25725 -6.3827,-0.35036 z"
         style="fill:#252525;fill-opacity:1;stroke:none;stroke-width:0.26458332px;stroke-linecap:butt;stroke-linejoin:miter;stroke-opacity:1" />
      <path
         inkscape:connector-curvature="0"
         id="path4764"
         d="m 240.11076,342.50934 1.69549,2.84726 15.1703,0.0241 -0.48369,-0.62439 -10.3973,-2.02986 z"
         style="fill:#252525;fill-opacity:1;stroke:none;stroke-width:0.26458332px;stroke-linecap:butt;stroke-linejoin:miter;stroke-opacity:1" />
      <path
         inkscape:connector-curvature="0"
         id="path4762"
         d="m 205.02579,329.00971 15.03725,-0.53787 0.0117,3.8938 0.43264,4.24457 1.00675,4.39635 -13.66738,0.75242 -0.98392,-1.27331 -0.64492,-1.23198 -0.678,-2.54661 -0.39718,-3.21892 z"
         style="fill:#252525;fill-opacity:1;stroke:none;stroke-width:0.26458332px;stroke-linecap:butt;stroke-linejoin:miter;stroke-opacity:1" />
      <path
         inkscape:connector-curvature="0"
         id="path4760"
         d="m 250.5108,328.49674 18.38855,2.53008 -0.19326,2.96415 -0.60804,3.32081 -1.28624,3.62485 -1.12252,2.0112 -0.78343,0.88868 -0.96746,0.49388 -2.48873,0.11578 -6.05611,-1.22939 -6.56564,-1.34472 0.78164,-3.03178 0.69453,-4.16719 0.18424,-3.21952 z"
         style="fill:#252525;fill-opacity:1;stroke:none;stroke-width:0.26458332px;stroke-linecap:butt;stroke-linejoin:miter;stroke-opacity:1" />
      <path
         inkscape:connector-curvature="0"
         id="path4684"
         d="m 238.69005,342.4918 c 0,0 0.25725,0.93546 0.42095,1.39147 0.16371,0.45603 0.6782,1.43825 0.6782,1.43825 0,0 0,0.66651 0.24555,1.26285 0.24556,0.59635 0.54958,1.181 0.54958,1.181"
         style="fill:none;stroke:#000000;stroke-width:0.26458332px;stroke-linecap:butt;stroke-linejoin:miter;stroke-opacity:1" />
      <path
         inkscape:connector-curvature="0"
         id="path4686"
         d="m 219.43161,342.93614 c 0,0 0.23387,0.70159 0.36249,0.95882 0.12862,0.25726 0.3274,0.88868 0.3274,0.88868 0,0 -0.35079,0.80682 -0.33909,1.29792 0.0117,0.49112 1.36808,1.67211 1.36808,1.67211"
         style="fill:none;stroke:#000000;stroke-width:0.26458332px;stroke-linecap:butt;stroke-linejoin:miter;stroke-opacity:1" />
      <path
         inkscape:connector-curvature="0"
         id="path4688"
         d="m 204.96732,345.5203 2.45554,0.94713 2.09406,1.29428"
         style="fill:none;stroke:#000000;stroke-width:0.26458332px;stroke-linecap:butt;stroke-linejoin:miter;stroke-opacity:1" />
      <path
         inkscape:connector-curvature="0"
         id="path4692"
         d="m 202.22434,342.33776 c 0,0 5.60778,1.63906 13.25503,2.0834 7.64724,0.44432 22.35709,1.28622 22.35709,1.28622 l 19.43384,0.0468 3.81193,-0.11692 0.36744,-1.1911"
         style="fill:none;stroke:#000000;stroke-width:0.26458332px;stroke-linecap:butt;stroke-linejoin:miter;stroke-opacity:1" />
      <path
         inkscape:connector-curvature="0"
         id="path4694"
         d="m 198.86744,341.70937 c 0,0 0.29766,1.07487 0.78548,1.67844 0.48783,0.60359 1.62884,1.35599 2.51354,1.63711 0.8847,0.28112 2.9683,0.50437 3.38171,0.52091 0.41341,0.0164 1.07487,0.0331 1.2237,0 0.14883,-0.0331 0.24804,-0.0496 0.24804,-0.15711 0,-0.10747 -0.42994,-0.21497 -0.66145,-0.2563 -0.23151,-0.0414 -2.24069,-0.46302 -2.92696,-0.62013 -0.68626,-0.15709 -1.90996,-0.52089 -2.6789,-1.07487 -0.76895,-0.55396 -1.52136,-1.68672 -1.52136,-1.68672"
         style="fill:none;stroke:#000000;stroke-width:0.26458332px;stroke-linecap:butt;stroke-linejoin:miter;stroke-opacity:1" />
      <path
         inkscape:connector-curvature="0"
         id="path4696"
         d="m 200.79291,342.93614 c 0,0 0.5028,0.43264 0.99391,0.57295 0.4911,0.14031 5.50742,1.06408 8.2202,1.40317 2.71279,0.33911 7.2655,0.7824 9.77904,0.93123 2.51354,0.14882 13.57643,0.59531 13.57643,0.59531"
         style="fill:none;stroke:#000000;stroke-width:0.26458332px;stroke-linecap:butt;stroke-linejoin:miter;stroke-opacity:1" />
      <path
         inkscape:connector-curvature="0"
         id="path4698"
         d="m 227.65741,347.77825 c 0,0 8.02019,-0.57878 11.19519,-0.69453 3.175,-0.11576 14.51222,-0.32396 15.45936,-0.31226 0.94713,0.0116 3.1922,-0.0585 3.88209,-0.10525 0.68989,-0.0467 8.57101,-0.92374 9.12057,-1.01727 0.54957,-0.0936 8.34814,-1.29374 11.3247,-1.88905 2.97656,-0.59531 7.1737,-2.02814 7.1737,-2.02814"
         style="fill:none;stroke:#000000;stroke-width:0.26458332px;stroke-linecap:butt;stroke-linejoin:miter;stroke-opacity:1" />
      <path
         inkscape:connector-curvature="0"
         id="path4700"
         d="m 261.92413,345.21629 c 0,0 10.24311,-0.86529 15.13079,-2.08137 4.8877,-1.21608 8.41898,-2.47893 9.35444,-2.94664 0.93544,-0.46773 4.09255,-2.43215 4.09255,-2.43215"
         style="fill:none;stroke:#000000;stroke-width:0.26458332px;stroke-linecap:butt;stroke-linejoin:miter;stroke-opacity:1" />
      <path
         inkscape:connector-curvature="0"
         id="path4702"
         d="m 196.70034,329.19683 c 0,0 0.0468,4.06916 0.23386,5.09815 0.18709,1.02899 0.60804,3.7184 0.8419,4.3498 0.23386,0.63143 1.45514,3.10592 1.45514,3.10592"
         style="fill:none;stroke:#000000;stroke-width:0.26458332px;stroke-linecap:butt;stroke-linejoin:miter;stroke-opacity:1" />
      <path
         inkscape:connector-curvature="0"
         id="path4704"
         d="m 197.2733,329.22019 c 0,0 -0.0117,2.43216 0.0585,3.23898 0.0701,0.80682 0.39756,3.27406 1.23946,5.37879 0.8419,2.10476 2.29184,3.97566 2.29184,3.97566"
         style="fill:none;stroke:#000000;stroke-width:0.26458332px;stroke-linecap:butt;stroke-linejoin:miter;stroke-opacity:1" />
      <path
         inkscape:connector-curvature="0"
         id="path4706"
         d="m 197.39023,332.73981 c 0,0 0.0468,2.31521 0.65481,4.86431 0.60804,2.54908 1.1862,4.14658 1.1862,4.14658"
         style="fill:none;stroke:#000000;stroke-width:0.26458332px;stroke-linecap:butt;stroke-linejoin:miter;stroke-opacity:1" />
      <path
         inkscape:connector-curvature="0"
         id="path4708"
         d="m 221.0759,342.80903 0.68627,1.52136"
         style="fill:none;stroke:#000000;stroke-width:0.26458332px;stroke-linecap:butt;stroke-linejoin:miter;stroke-opacity:1" />
      <path
         inkscape:connector-curvature="0"
         id="path4710"
         d="m 260.38306,345.56238 c 0,0 -13.05185,-2.68471 -14.17438,-2.82501 -1.12253,-0.14031 -8.00973,-0.30401 -8.92179,-0.30401 -0.91206,0 -8.99282,-0.0791 -12.91196,0.0863 -3.91914,0.16536 -6.60632,0.76067 -6.60632,0.76067 0,0 -0.62838,0.12403 -0.78134,0.17777 -0.15297,0.0537 -0.55811,0.19017 -0.57465,0.3514 -0.0165,0.16123 0.22325,0.24392 1.05007,0.41341 0.82682,0.1695 2.20348,0.45889 2.20348,0.45889"
         style="fill:none;stroke:#000000;stroke-width:0.26458332px;stroke-linecap:butt;stroke-linejoin:miter;stroke-opacity:1" />
      <path
         inkscape:connector-curvature="0"
         id="path4712"
         d="m 217.91152,343.24599 c 0,0 -0.14032,0.11695 -0.14032,0.30403 0,0.18709 0.12278,0.2748 1.06407,0.48528 0.94129,0.21047 6.47397,0.53488 7.51576,0.60928 1.0418,0.0744 11.42697,0.52493 11.42697,0.52493 l -0.53788,-2.7128"
         style="fill:none;stroke:#000000;stroke-width:0.26458332px;stroke-linecap:butt;stroke-linejoin:miter;stroke-opacity:1" />
      <path
         inkscape:connector-curvature="0"
         id="path4714"
         d="m 224.24264,342.51138 0.73587,2.04226"
         style="fill:none;stroke:#000000;stroke-width:0.26458332px;stroke-linecap:butt;stroke-linejoin:miter;stroke-opacity:1" />
      <path
         inkscape:connector-curvature="0"
         id="path4716"
         d="m 224.79661,342.49484 0.61185,2.06706"
         style="fill:none;stroke:#000000;stroke-width:0.26458332px;stroke-linecap:butt;stroke-linejoin:miter;stroke-opacity:1" />
      <path
         inkscape:connector-curvature="0"
         id="path4718"
         d="m 237.8356,345.31019 c 0,0 6.38526,0.0756 8.03398,0.0815 1.64872,0.006 11.10697,-0.0111 11.10697,-0.0111"
         style="fill:none;stroke:#000000;stroke-width:0.26458332px;stroke-linecap:butt;stroke-linejoin:miter;stroke-opacity:1" />
      <path
         inkscape:connector-curvature="0"
         id="path4720"
         d="m 256.49286,344.75621 0.74001,1.02526"
         style="fill:none;stroke:#000000;stroke-width:0.26458332px;stroke-linecap:butt;stroke-linejoin:miter;stroke-opacity:1" />
      <path
         inkscape:connector-curvature="0"
         id="path4722"
         d="m 240.11076,342.50934 1.69549,2.84726"
         style="fill:none;stroke:#000000;stroke-width:0.26458332px;stroke-linecap:butt;stroke-linejoin:miter;stroke-opacity:1" />
      <path
         inkscape:connector-curvature="0"
         id="path4724"
         d="m 241.84133,347.26255 c 0,0 4.07502,-0.0116 4.17442,-0.0116 0.0994,0 0.20462,0.0877 0.19878,0.152 -0.006,0.0643 -0.12278,0.28062 -0.37418,0.3157 -0.2514,0.0351 -3.56053,0.0643 -3.56053,0.0643 0,0 -0.40926,-0.14615 -0.43265,-0.29233 -0.0234,-0.14616 -0.006,-0.22802 -0.006,-0.22802 z"
         style="fill:none;stroke:#000000;stroke-width:0.26458332px;stroke-linecap:butt;stroke-linejoin:miter;stroke-opacity:1" />
      <path
         inkscape:connector-curvature="0"
         id="path4726"
         d="m 243.06526,347.26562 0.40101,0.52504"
         style="fill:none;stroke:#000000;stroke-width:0.26458332px;stroke-linecap:butt;stroke-linejoin:miter;stroke-opacity:1" />
      <path
         inkscape:connector-curvature="0"
         id="path4728"
         d="m 245.14058,347.26149 -0.23151,0.48369"
         style="fill:none;stroke:#000000;stroke-width:0.26458332px;stroke-linecap:butt;stroke-linejoin:miter;stroke-opacity:1" />
      <path
         inkscape:connector-curvature="0"
         id="path4730"
         d="m 222.68813,346.73053 c 0.0175,-0.2748 1.35054,-0.21633 1.44993,-0.18124 0.0994,0.0351 0.39757,0.0819 0.39172,0.22217 -0.006,0.14031 -0.0643,0.21632 -0.1754,0.23386 -0.11108,0.0175 -0.54372,0.0292 -0.78343,0.0233 -0.23971,-0.006 -0.76005,-0.0351 -0.80682,-0.076 -0.0468,-0.0409 -0.076,-0.14615 -0.076,-0.22217 z"
         style="fill:none;stroke:#000000;stroke-width:0.26458332px;stroke-linecap:butt;stroke-linejoin:miter;stroke-opacity:1" />
      <path
         inkscape:connector-curvature="0"
         id="path4732"
         d="m 224.52393,346.73637 c 0,0 0.74836,0.0643 0.88867,0.0877 0.14032,0.0233 0.22802,0.10523 0.22217,0.21048 -0.006,0.10522 -0.12862,0.23384 -0.38002,0.29231 -0.2514,0.0585 -1.15176,0.076 -1.58441,0.076 -0.43264,0 -1.60194,-0.0468 -1.82996,-0.12864 -0.22801,-0.0818 -0.61388,-0.29232 -0.64311,-0.42678 -0.0292,-0.13448 0.0643,-0.16957 0.21632,-0.17542 0.152,-0.006 1.27454,0.0585 1.27454,0.0585"
         style="fill:none;stroke:#000000;stroke-width:0.26458332px;stroke-linecap:butt;stroke-linejoin:miter;stroke-opacity:1" />
      <path
         inkscape:connector-curvature="0"
         id="path4734"
         d="m 261.08223,345.63724 c 0,0 1.30377,0.80098 1.37393,0.9179 0.0702,0.11691 0.0351,0.29818 0.0585,0.50863 0.0234,0.21048 0.4385,0.7893 0.4385,0.7893"
         style="fill:none;stroke:#000000;stroke-width:0.26458332px;stroke-linecap:butt;stroke-linejoin:miter;stroke-opacity:1" />
      <path
         inkscape:connector-curvature="0"
         id="path4736"
         d="m 264.90586,343.83651 1.39147,0.93544 2.95833,0.59634 c 0,0 5.51913,0.14031 7.0743,0.0819 1.55516,-0.0585 7.19121,-0.60804 7.19121,-0.60804"
         style="fill:none;stroke:#000000;stroke-width:0.26458332px;stroke-linecap:butt;stroke-linejoin:miter;stroke-opacity:1" />
      <path
         inkscape:connector-curvature="0"
         id="path4738"
         d="m 289.48724,328.84401 c 0,0 0.11575,3.5388 -0.11576,4.96093 -0.23151,1.42214 -0.69453,4.63021 -0.95911,5.22552 -0.26459,0.59532 -0.36381,0.79375 -0.55399,1.05006 -0.19015,0.25632 -3.21633,3.84474 -3.3569,3.96875 -0.14055,0.12403 -1.00044,0.91778 -2.40604,1.5875 -1.4056,0.66974 -2.18742,0.80436 -2.28388,0.8365 -0.0965,0.0322 -0.3157,0.076 -0.32155,0.22802 -0.006,0.15203 0.152,0.16079 0.45601,0.22802 0.30403,0.0672 2.97209,-0.15566 2.97209,-0.15566"
         style="fill:none;stroke:#000000;stroke-width:0.26458332px;stroke-linecap:butt;stroke-linejoin:miter;stroke-opacity:1" />
      <path
         inkscape:connector-curvature="0"
         id="path4740"
         d="m 281.32235,347.48472 c 0,0 2.17869,-0.79375 3.19154,-1.83142 1.01285,-1.03764 2.91277,-3.19074 3.57341,-4.88622"
         style="fill:none;stroke:#000000;stroke-width:0.26458332px;stroke-linecap:butt;stroke-linejoin:miter;stroke-opacity:1" />
      <path
         inkscape:connector-curvature="0"
         id="path4742"
         d="m 284.71386,343.83067 c 0,0 -0.23386,0.35078 -0.23386,0.91204 0,0.56126 0.14618,0.80098 0.14618,0.80098"
         style="fill:none;stroke:#000000;stroke-width:0.26458332px;stroke-linecap:butt;stroke-linejoin:miter;stroke-opacity:1" />
      <path
         inkscape:connector-curvature="0"
         id="path4744"
         d="m 290.42153,338.17057 c 0,0 -1.0914,1.30638 -1.62883,1.75286 -0.53744,0.44649 -1.54617,1.44693 -1.71979,1.6619 -0.17364,0.21498 -1.24851,2.64584 -1.49656,2.93524"
         style="fill:none;stroke:#000000;stroke-width:0.26458332px;stroke-linecap:butt;stroke-linejoin:miter;stroke-opacity:1" />
      <path
         inkscape:connector-curvature="0"
         id="path4746"
         d="m 291.47161,328.95148 c 0,0 0.0164,3.96875 -0.23979,5.42396 -0.2563,1.45521 -0.50483,2.84149 -0.81029,3.79513 -0.30549,0.95364 -1.81387,3.3624 -2.03605,3.66644 -0.22217,0.304 -0.94876,1.57562 -1.27949,2.07996 -0.33073,0.50438 -2.36472,2.61277 -2.59623,2.7368"
         style="fill:none;stroke:#000000;stroke-width:0.26458332px;stroke-linecap:butt;stroke-linejoin:miter;stroke-opacity:1" />
      <path
         inkscape:connector-curvature="0"
         id="path4748"
         d="m 280.30559,345.63724 c 0,0 -2.91156,0.6314 -8.38391,0.90035 -5.47235,0.26895 -14.2506,0.59574 -14.2506,0.59574"
         style="fill:none;stroke:#000000;stroke-width:0.26458332px;stroke-linecap:butt;stroke-linejoin:miter;stroke-opacity:1" />
      <path
         inkscape:connector-curvature="0"
         id="path4750"
         d="m 205.02579,329.00971 c 0,0 0,3.92888 0.25725,6.01023 0.25724,2.08137 0.67819,3.36761 1.05237,4.44336 0.37417,1.07577 1.51133,2.29568 1.51133,2.29568"
         style="fill:none;stroke:#000000;stroke-width:0.26458332px;stroke-linecap:butt;stroke-linejoin:miter;stroke-opacity:1" />
      <path
         inkscape:connector-curvature="0"
         id="path4752"
         d="m 220.06304,328.47184 c 0,0 -0.0468,3.32084 0.11693,5.2151 0.1637,1.89428 0.37418,3.46115 0.56126,4.23288 0.18709,0.77174 0.77289,3.08674 0.77289,3.08674"
         style="fill:none;stroke:#000000;stroke-width:0.26458332px;stroke-linecap:butt;stroke-linejoin:miter;stroke-opacity:1" />
      <path
         d="m 196.73249,339.70178 2.13495,2.00759 c 0,0 3.34036,0.19844 3.9026,0.26458 0.56224,0.0661 2.16628,0.26459 2.79467,0.21498 0.62838,-0.0496 1.40559,-0.0827 1.70325,-0.16537 0.29766,-0.0827 0.57878,-0.26458 0.57878,-0.26458 l 13.65911,-0.77721 c 0,0 8.82368,-0.34915 12.35498,-0.23223 3.53129,0.11692 8.16174,0.39756 9.63506,0.56126 1.47333,0.1637 5.33203,0.56126 5.33203,0.56126 0,0 12.0347,2.49968 12.51426,2.54929 0.47955,0.0496 2.24895,0.0164 2.62929,-0.11576 0.38034,-0.13229 1.40561,-0.67799 2.23243,-2.16627 0.82683,-1.48828 1.65365,-3.70417 2.01745,-5.42396 0.3638,-1.71979 0.64492,-3.85299 0.678,-5.68854 m -20.07143,10.84524 c 0,0 0.69851,-1.82127 1.4679,-7.20722 0.28108,-1.96784 0.21498,-6.1681 0.21498,-6.1681 l 18.38855,2.53008"
         style="fill:none;fill-opacity:1;stroke:#000000;stroke-width:0.26458332px;stroke-linecap:butt;stroke-linejoin:miter;stroke-opacity:1"
         id="path4754"
         inkscape:connector-curvature="0" />
      <path
         sodipodi:nodetypes="csc"
         inkscape:connector-curvature="0"
         id="path4756"
         d="m 221.45451,340.58584 c 0,0 3.58716,-0.27396 10.28988,-0.33911 6.38349,-0.062 17.32281,1.21829 17.142,1.25116"
         style="fill:none;stroke:#000000;stroke-width:0.26458332px;stroke-linecap:butt;stroke-linejoin:miter;stroke-opacity:1" />
      <path
         inkscape:connector-curvature="0"
         id="path4682"
         d="m 257.38723,346.63115 c 0,0 -0.43265,-0.56129 -1.27455,-0.60804 -0.84189,-0.0468 -1.18099,0.25723 -1.3447,0.51448 -0.1637,0.25726 -1.48501,3.81193 -1.46163,3.92888 0.0234,0.11692 0.40926,0.39756 0.74836,0.35078 0.3391,-0.0468 1.181,-0.152 2.04628,-1.35638 0.86529,-1.20438 1.20439,-2.16323 1.25116,-2.35032 0.0468,-0.18709 0.0351,-0.4794 0.0351,-0.4794 z"
         style="fill:#383636;fill-opacity:1;stroke:#000000;stroke-width:0.26458332px;stroke-linecap:butt;stroke-linejoin:miter;stroke-opacity:1" />
    </g>
  </g>
  <g
     inkscape:groupmode="layer"
     id="layer2"
     inkscape:label="Walls"
     style="display:inline"
     transform="translate(-54.806547,126.59396)">
    <path
       style="fill:#2c2c2c;fill-opacity:1;stroke:none;stroke-width:0.35756892px;stroke-linecap:butt;stroke-linejoin:miter;stroke-opacity:1"
       d="m 268.67155,-123.85618 v 36.982159 h -2.8896 v -33.026509 l -109.71362,-0.006 V 13.04812 h -3.63954 V -119.9064 l -83.262488,0.006 v 56.041647 h 18.905639 v -4.560145 h 2.64127 v 45.578827 h -2.73157 V -61.127183 H 69.166302 v 37.703272 H 65.654463 V -123.85618 c 67.660967,0.0367 135.355537,-0.002 203.017087,0 z"
       id="path46"
       inkscape:connector-curvature="0"
       sodipodi:nodetypes="ccccccccccccccccccccc" />
    <path
       style="fill:#2c2c2c;fill-opacity:1;stroke:none;stroke-width:0.35756892px;stroke-linecap:butt;stroke-linejoin:miter;stroke-opacity:1"
       d="m 88.002523,-6.6245617 v 1.2929989 l -22.34806,-0.0096 V 41.615303 h 62.871797 v -3.593409 h -1.69313 l -10e-4,-2.335169 H 69.166302 V -3.1999688 h 21.517987 l -3e-6,-3.4405539 z"
       id="path859"
       inkscape:connector-curvature="0"
       sodipodi:nodetypes="ccccccccccccc" />
    <path
       style="fill:#2c2c2c;fill-opacity:1;stroke:none;stroke-width:0.35756892px;stroke-linecap:butt;stroke-linejoin:miter;stroke-opacity:1"
       d="m 147.03771,41.615272 h 5.39108 V 100.32655 H 268.67153 V 66.549178 h -2.8896 V 97.389385 H 156.06833 V 30.600916 h -3.63954 v 5.073169 h -2.90526 v 2.30167 h -2.48582 z"
       id="path877"
       inkscape:connector-curvature="0" />
    <path
       style="fill:#2c2c2c;fill-opacity:1;stroke:none;stroke-width:0.35756892px;stroke-linecap:butt;stroke-linejoin:miter;stroke-opacity:1"
       d="m 265.78193,-57.131173 h 2.8896 v 28.158559 h -2.8896 z"
       id="path879"
       inkscape:connector-curvature="0" />
    <path
       style="fill:#2c2c2c;fill-opacity:1;stroke:none;stroke-width:0.35756892px;stroke-linecap:butt;stroke-linejoin:miter;stroke-opacity:1"
       d="m 265.78193,-0.55865681 h 2.8896 V 44.392807 h -2.8896 z"
       id="path881"
       inkscape:connector-curvature="0" />
    <path
       style="fill:#626262;fill-opacity:1;stroke:none;stroke-width:0.35756892px;stroke-linecap:butt;stroke-linejoin:miter;stroke-opacity:1"
       d="m 69.166302,-84.361435 h 23.84052 v 1.264206 h -23.84052 z"
       id="path897"
       inkscape:connector-curvature="0" />
    <path
       style="fill:#626262;fill-opacity:1;stroke:none;stroke-width:0.35756892px;stroke-linecap:butt;stroke-linejoin:miter;stroke-opacity:1"
       d="m 110.48435,-84.361435 v 6.826674 h 41.94444 v -2.275558 h -39.98493 v -4.551116 z"
       id="path899"
       inkscape:connector-curvature="0" />
    <path
       style="fill:#626262;fill-opacity:1;stroke:none;stroke-width:0.35756892px;stroke-linecap:butt;stroke-linejoin:miter;stroke-opacity:1"
       d="m 156.06833,-43.403077 h 41.92495 v 1.38558 h -41.92495 z"
       id="path909"
       inkscape:connector-curvature="0" />
    <path
       style="fill:#626262;fill-opacity:1;stroke:none;stroke-width:0.35756892px;stroke-linecap:butt;stroke-linejoin:miter;stroke-opacity:1"
       d="m 215.33537,-43.403077 v 1.38558 h 50.44656 v -1.38558 z"
       id="path911"
       inkscape:connector-curvature="0" />
    <path
       style="fill:#626262;fill-opacity:1;stroke:none;stroke-width:0.35756892px;stroke-linecap:butt;stroke-linejoin:miter;stroke-opacity:1"
       d="m 156.06833,34.882167 h 18.09995 v 1.430276 h -18.09995 z"
       id="path919"
       inkscape:connector-curvature="0" />
    <path
       style="fill:#626262;fill-opacity:1;stroke:none;stroke-width:0.35756892px;stroke-linecap:butt;stroke-linejoin:miter;stroke-opacity:1"
       d="m 191.96184,34.882157 v 1.430276 h 73.82009 v -1.430276 z"
       id="path921"
       inkscape:connector-curvature="0" />
    <rect
       style="opacity:1;fill:#2c2c2c;fill-opacity:1;stroke:none;stroke-width:0.25;stroke-linejoin:round;stroke-miterlimit:4;stroke-dasharray:none;stroke-opacity:1;paint-order:normal"
       id="rect5927"
       width="14.527147"
       height="14.282794"
       x="138.20357"
       y="-26.835569" />
  </g>
  <g
     inkscape:groupmode="layer"
     id="layer3"
     inkscape:label="Windows"
     transform="translate(-54.806547,126.59396)">
    <path
       style="fill:#fefefe;fill-opacity:1;stroke:#000000;stroke-width:0.35756892px;stroke-linecap:butt;stroke-linejoin:miter;stroke-opacity:1"
       d="m 265.78193,-28.972614 v 28.41395719 h 2.8896 V -28.972614 Z"
       id="path942"
       inkscape:connector-curvature="0" />
    <path
       style="fill:#fefefe;fill-opacity:1;stroke:#000000;stroke-width:0.31575081px;stroke-linecap:butt;stroke-linejoin:miter;stroke-opacity:1"
       d="m 265.78195,44.392807 v 22.156391 h 2.8896 V 44.392807 Z"
       id="path942-2"
       inkscape:connector-curvature="0" />
    <path
       style="fill:#fefefe;fill-opacity:1;stroke:#000000;stroke-width:0.36583483px;stroke-linecap:butt;stroke-linejoin:miter;stroke-opacity:1"
       d="m 265.78195,-86.874021 v 29.742851 h 2.8896 v -29.742851 z"
       id="path942-9"
       inkscape:connector-curvature="0" />
    <path
       style="fill:#fefefe;fill-opacity:1;stroke:#000000;stroke-width:0.4576247px;stroke-linecap:butt;stroke-linejoin:miter;stroke-opacity:1"
       d="m 98.780691,35.685874 v 5.885527 h 22.849659 v -5.885527 z"
       id="path942-9-8"
       inkscape:connector-curvature="0" />
  </g>
  <g
     inkscape:groupmode="layer"
     id="layer4"
     inkscape:label="Doors"
     transform="translate(-54.806547,126.59396)"
     style="display:inline">
    <path
       style="fill:none;stroke:#000000;stroke-width:0.35756892px;stroke-linecap:butt;stroke-linejoin:miter;stroke-opacity:1"
       d="m 215.33537,-42.017496 v -1.385581 c -0.43909,-11.074685 -7.64604,-18.036736 -17.34209,-18.380543 v 19.766081"
       id="path1005-2"
       inkscape:connector-curvature="0"
       sodipodi:nodetypes="cccc" />
    <path
       style="fill:none;stroke:#000000;stroke-width:1.35144174;stroke-linecap:butt;stroke-linejoin:miter;stroke-miterlimit:4;stroke-dasharray:none;stroke-opacity:1"
       d="M 90.156095,-22.840173 V -6.6377297"
       id="path1067"
       inkscape:connector-curvature="0" />
    <path
       style="fill:none;stroke:#000000;stroke-width:0.67572087;stroke-linecap:butt;stroke-linejoin:miter;stroke-miterlimit:4;stroke-dasharray:none;stroke-opacity:1"
       d="m 90.456619,-83.097229 v 14.680491"
       id="path1069"
       inkscape:connector-curvature="0" />
    <path
       style="fill:none;stroke:#000000;stroke-width:0.36565682px;stroke-linecap:butt;stroke-linejoin:miter;stroke-opacity:1"
       d="m 191.90489,34.887664 v 1.416921 c -0.449,11.32519 -7.81898,18.444716 -17.73434,18.796291 V 34.887704"
       id="path1005-2-6"
       inkscape:connector-curvature="0"
       sodipodi:nodetypes="cccc" />
    <path
       style="fill:none;stroke:#000000;stroke-width:0.36565685px;stroke-linecap:butt;stroke-linejoin:miter;stroke-opacity:1"
       d="m 152.42879,13.04812 h 1.41692 c 11.3252,0.449 18.44473,7.81898 18.79629,17.73434 h -20.21316"
       id="path1005-2-6-9"
       inkscape:connector-curvature="0"
       sodipodi:nodetypes="cccc" />
    <path
       style="fill:none;stroke:#000000;stroke-width:0.37979847px;stroke-linecap:butt;stroke-linejoin:miter;stroke-opacity:1"
       d="m 128.47176,41.615322 v -1.471719 c 0.46636,-11.763196 8.12137,-19.158069 18.4202,-19.523225 v 20.994891"
       id="path1005-2-6-9-8"
       inkscape:connector-curvature="0"
       sodipodi:nodetypes="cccc" />
    <path
       style="fill:none;stroke:#000000;stroke-width:0.36161679px;stroke-linecap:butt;stroke-linejoin:miter;stroke-opacity:1"
       d="m 110.53611,-83.097169 v -1.401266 c -0.44403,-11.200072 -7.73258,-18.240955 -17.538379,-18.588625 v 19.989834"
       id="path1005-2-6-9-8-2"
       inkscape:connector-curvature="0"
       sodipodi:nodetypes="cccc" />
  </g>
  <g
     inkscape:groupmode="layer"
     id="layer5"
     inkscape:label="Furniture"
     transform="translate(0,126.74508)"
     style="display:inline">
    <path
       style="opacity:1;fill:#dfdfdf;fill-opacity:1;stroke:none;stroke-width:0.35756892px;stroke-linecap:butt;stroke-linejoin:miter;stroke-opacity:1"
       d="M 27.530741,-3.3510887 V 21.264749 H 68.461212 V 35.535574 H 14.359755 V -3.3510887 Z"
       id="path1072"
       inkscape:connector-curvature="0" />
    <rect
       style="display:inline;opacity:1;fill:#f9f9f9;fill-opacity:1;stroke:#b2b2b2;stroke-width:0.25;stroke-linejoin:round;stroke-miterlimit:4;stroke-dasharray:none;stroke-opacity:1;paint-order:normal"
       id="rect5902-6"
       width="3.7482173"
       height="10.636106"
       x="39.858379"
       y="21.885595"
       ry="0.60076159" />
    <rect
       style="opacity:1;fill:#dfdfdf;fill-opacity:1;stroke:none;stroke-width:0.67572087;stroke-miterlimit:4;stroke-dasharray:none"
       id="rect2537"
       width="14.225209"
       height="50.699192"
       x="83.397026"
       y="-77.685883" />
    <rect
       style="opacity:1;fill:#dfdfdf;fill-opacity:1;stroke:none;stroke-width:0.71106285;stroke-miterlimit:4;stroke-dasharray:none"
       id="rect2539"
       width="19.80006"
       height="32.418465"
       x="35.877743"
       y="-54.294029" />
    <rect
       style="opacity:1;fill:#dfdfdf;fill-opacity:1;stroke:none;stroke-width:0.67572087;stroke-miterlimit:4;stroke-dasharray:none"
       id="rect2541"
       width="7.9187207"
       height="7.9187207"
       x="42.018253"
       y="-20.540789" />
    <rect
       style="opacity:1;fill:#dfdfdf;fill-opacity:1;stroke:none;stroke-width:0.67572087;stroke-miterlimit:4;stroke-dasharray:none"
       id="rect2541-7"
       width="7.9187207"
       height="7.9187207"
       x="56.578972"
       y="-33.473076" />
    <rect
       style="opacity:1;fill:#dfdfdf;fill-opacity:1;stroke:none;stroke-width:0.67572087;stroke-miterlimit:4;stroke-dasharray:none"
       id="rect2541-2"
       width="7.9187207"
       height="7.9187207"
       x="56.578972"
       y="-50.746506" />
    <rect
       style="opacity:1;fill:#dfdfdf;fill-opacity:1;stroke:none;stroke-width:0.67572087;stroke-miterlimit:4;stroke-dasharray:none"
       id="rect2541-3"
       width="7.9187207"
       height="7.9187207"
       x="42.159653"
       y="-63.451714" />
    <rect
       style="opacity:1;fill:#dfdfdf;fill-opacity:1;stroke:none;stroke-width:0.67572087;stroke-miterlimit:4;stroke-dasharray:none"
       id="rect2570"
       width="15.863927"
       height="35.539051"
       x="14.359756"
       y="-120.05163" />
    <rect
       style="opacity:1;fill:#dfdfdf;fill-opacity:1;stroke:none;stroke-width:0.72873849;stroke-miterlimit:4;stroke-dasharray:none"
       id="rect2572"
       width="16.578491"
       height="15.848017"
       x="56.61417"
       y="-120.05163" />
    <rect
       style="opacity:1;fill:#dfdfdf;fill-opacity:1;stroke:none;stroke-width:0.67572087;stroke-miterlimit:4;stroke-dasharray:none"
       id="rect2576"
       width="20.534676"
       height="18.469069"
       x="77.087563"
       y="-120.05163" />
    <rect
       style="opacity:1;fill:#dfdfdf;fill-opacity:1;stroke:none;stroke-width:0.5;stroke-miterlimit:4;stroke-dasharray:none;stroke-opacity:0.96323529"
       id="light.bedroom_4"
       width="38.221565"
       height="52.996826"
       x="160.52884"
       y="44.241749"
       inkscape:label="#rect2580" />
    <rect
       style="opacity:1;fill:#dfdfdf;fill-opacity:1;stroke:none;stroke-width:0.67572087;stroke-miterlimit:4;stroke-dasharray:none"
       id="rect2582"
       width="15.909838"
       height="40.380703"
       x="101.26179"
       y="36.161327" />
    <rect
       style="opacity:1;fill:#dfdfdf;fill-opacity:1;stroke:none;stroke-width:0.67572087;stroke-miterlimit:4;stroke-dasharray:none"
       id="rect2584"
       width="11.285045"
       height="11.285045"
       x="146.93663"
       y="85.953842" />
    <rect
       style="opacity:1;fill:#dfdfdf;fill-opacity:1;stroke:none;stroke-width:0.67572087;stroke-miterlimit:4;stroke-dasharray:none"
       id="rect2586"
       width="45.674843"
       height="11.767828"
       x="101.26179"
       y="85.471039" />
    <rect
       style="opacity:1;fill:#dfdfdf;fill-opacity:1;stroke:none;stroke-width:0.81577045;stroke-miterlimit:4;stroke-dasharray:none"
       id="rect2588"
       width="13.096745"
       height="15.411631"
       x="101.26179"
       y="-13.475559" />
    <rect
       style="opacity:1;fill:#dfdfdf;fill-opacity:1;stroke:none;stroke-width:0.67572087;stroke-miterlimit:4;stroke-dasharray:none"
       id="rect2590"
       width="35.893524"
       height="16.658882"
       x="101.26179"
       y="-42.168602" />
    <rect
       style="opacity:1;fill:#dfdfdf;fill-opacity:1;stroke:none;stroke-width:0.67572087;stroke-miterlimit:4;stroke-dasharray:none"
       id="rect2596"
       width="20.790081"
       height="54.09507"
       x="101.26179"
       y="-97.649292" />
    <rect
       style="opacity:1;fill:#dfdfdf;fill-opacity:1;stroke:none;stroke-width:0.67572087;stroke-miterlimit:4;stroke-dasharray:none"
       id="rect2598"
       width="39.026096"
       height="18.785137"
       x="101.26179"
       y="-62.339336" />
    <rect
       style="opacity:1;fill:#dfdfdf;fill-opacity:1;stroke:none;stroke-width:0.67572087;stroke-miterlimit:4;stroke-dasharray:none"
       id="rect2600"
       width="48.831116"
       height="13.728093"
       x="162.14429"
       y="-57.282288" />
    <rect
       style="opacity:1;fill:#dfdfdf;fill-opacity:1;stroke:none;stroke-width:0.67572087;stroke-miterlimit:4;stroke-dasharray:none"
       id="rect2602"
       width="30.348663"
       height="10.01193"
       x="137.42072"
       y="-116.31882"
       transform="rotate(26.838285)" />
    <rect
       style="opacity:1;fill:#dfdfdf;fill-opacity:1;stroke:none;stroke-width:0.67572087;stroke-miterlimit:4;stroke-dasharray:none"
       id="rect2604"
       width="73.820091"
       height="8.9934912"
       x="137.15532"
       y="-120.05163" />
    <rect
       style="fill:#dfdfdf;fill-opacity:1;stroke:none;stroke-width:0.28886098;stroke-linejoin:round;stroke-miterlimit:4;stroke-dasharray:none;stroke-opacity:1;paint-order:normal"
       id="light.livingroom_plant"
       width="9.9956045"
       height="10.286886"
       x="200.75011"
       y="-14.920627"
       inkscape:label="#rect5569" />
    <g
       id="g5900"
       style="opacity:0.4"
       transform="translate(0,-9.5250005)">
      <rect
         ry="0.5"
         y="9.3168945"
         x="14.585156"
         height="12.666927"
         width="12.666927"
         id="rect5757"
         style="opacity:1;fill:#000000;fill-opacity:1;stroke:#afafaf;stroke-width:0.35299999;stroke-linejoin:round;stroke-miterlimit:4;stroke-dasharray:none;stroke-opacity:1;paint-order:normal" />
      <circle
         r="2.0091796"
         cy="12.615918"
         cx="17.999939"
         id="path5759"
         style="opacity:1;fill:#000000;fill-opacity:1;stroke:#db0000;stroke-width:0.35299999;stroke-linejoin:round;stroke-miterlimit:4;stroke-dasharray:none;stroke-opacity:1;paint-order:normal" />
      <circle
         r="2.0091796"
         cy="18.693071"
         cx="18.008202"
         id="path5759-9"
         style="display:inline;opacity:1;fill:#000000;fill-opacity:1;stroke:#db0000;stroke-width:0.35299999;stroke-linejoin:round;stroke-miterlimit:4;stroke-dasharray:none;stroke-opacity:1;paint-order:normal" />
      <circle
         r="2.0091796"
         cy="12.624189"
         cx="23.746353"
         id="path5759-9-8"
         style="display:inline;opacity:1;fill:#000000;fill-opacity:1;stroke:#db0000;stroke-width:0.35299999;stroke-linejoin:round;stroke-miterlimit:4;stroke-dasharray:none;stroke-opacity:1;paint-order:normal" />
      <circle
         r="2.0091796"
         cy="18.693071"
         cx="23.779428"
         id="path5759-9-9"
         style="display:inline;opacity:1;fill:#000000;fill-opacity:1;stroke:#db0000;stroke-width:0.35299999;stroke-linejoin:round;stroke-miterlimit:4;stroke-dasharray:none;stroke-opacity:1;paint-order:normal" />
    </g>
    <rect
       style="opacity:1;fill:#f9f9f9;fill-opacity:1;stroke:#b2b2b2;stroke-width:0.25;stroke-linejoin:round;stroke-miterlimit:4;stroke-dasharray:none;stroke-opacity:1;paint-order:normal"
       id="rect5902"
       width="11.46291"
       height="10.494606"
       x="27.985291"
       y="21.956343"
       ry="0.59276915" />
    <g
       id="g5910"
       transform="translate(-4.7940472,-9.5238253)">
      <circle
         r="1.3388532"
         cy="43.528957"
         cx="44.404327"
         id="path5906"
         style="opacity:1;fill:#cecece;fill-opacity:1;stroke:#b2b2b2;stroke-width:0.25;stroke-linejoin:round;stroke-miterlimit:4;stroke-dasharray:none;stroke-opacity:1;paint-order:normal" />
      <rect
         transform="rotate(-41.023785)"
         ry="0.64999998"
         y="54.406403"
         x="4.3191714"
         height="8.1719656"
         width="1.2394624"
         id="rect5904"
         style="opacity:1;fill:#cecece;fill-opacity:1;stroke:#b2b2b2;stroke-width:0.25;stroke-linejoin:round;stroke-miterlimit:4;stroke-dasharray:none;stroke-opacity:1;paint-order:normal" />
    </g>
    <path
       style="fill:#dfdfdf;fill-opacity:1;stroke:none;stroke-width:0.26458332px;stroke-linecap:butt;stroke-linejoin:miter;stroke-opacity:1"
       d="m 97.616779,-94.962536 c -6.749167,-3.487907 -14.236856,-0.821513 -14.236856,4.134115 0,4.955628 5.711371,8.077874 14.236856,4.637961 z"
       id="path4881"
       inkscape:connector-curvature="0"
       sodipodi:nodetypes="czcc" />
    <path
       style="fill:#dfdfdf;fill-opacity:1;stroke:none;stroke-width:0.26458332px;stroke-linecap:butt;stroke-linejoin:miter;stroke-opacity:1"
       d="m 43.209442,-109.63488 c -4.233251,0 -8.217708,-3.18674 -5.919602,-10.41412 h 11.473799 c 2.530099,7.20792 -1.320946,10.41412 -5.554197,10.41412 z"
       id="path4896"
       inkscape:connector-curvature="0"
       sodipodi:nodetypes="zccz" />
    <path
       style="fill:#dfdfdf;fill-opacity:1;stroke:none;stroke-width:0.5;stroke-linecap:butt;stroke-linejoin:miter;stroke-miterlimit:4;stroke-dasharray:none;stroke-opacity:1"
       d="m 147.26026,16.951562 h 35.57819 V -0.70988598 h 19.5771 V 34.730837 h -55.15529 z"
       id="light.living_room_under_couch"
       inkscape:connector-curvature="0"
       inkscape:label="#path6215" />
  </g>
  <g
     inkscape:groupmode="layer"
     id="layer12"
     inkscape:label="Plants"
     style="display:inline"
     transform="translate(0,-5.2916667)" />
  <g
     inkscape:groupmode="layer"
     id="layer11"
     inkscape:label="Arrows"
     style="display:inline"
     transform="translate(0,-5.2916667)" />
  <g
     inkscape:groupmode="layer"
     id="layer9"
     inkscape:label="Media"
     transform="translate(0,126.74508)"
     style="display:inline">
    <path
       id="binary_sensor.tv_power_status"
       d="m 184.64688,-34.569558 -0.56398,0.563998 1.036,1.036 h -2.136 c -0.44402,0 -0.8,0.356002 -0.8,0.800006 v 3.999998 c 0,0.444004 0.35598,0.800006 0.8,0.800006 h 6.4 c 0.44402,0 0.80001,-0.356002 0.80001,-0.800006 v -3.999998 c 0,-0.444004 -0.35598,-0.800006 -0.80001,-0.800006 h -2.13597 l 1.03597,-1.036 -0.56399,-0.563998 -1.536,1.536004 -1.53603,-1.536004 m -1.66398,2.400004 h 5.20002 v 3.999998 h -5.20002 v -3.999998 m 6.2,0 a 0.40000048,0.40000048 0 0 1 0.4,0.399994 0.40000048,0.40000048 0 0 1 -0.4,0.399998 0.40000048,0.40000048 0 0 1 -0.39998,-0.399998 0.40000048,0.40000048 0 0 1 0.39998,-0.399994 m 0,1.2 a 0.40000048,0.40000048 0 0 1 0.4,0.399996 0.40000048,0.40000048 0 0 1 -0.4,0.399996 0.40000048,0.40000048 0 0 1 -0.39998,-0.399996 0.40000048,0.40000048 0 0 1 0.39998,-0.399996 z"
       inkscape:connector-curvature="0"
       style="fill:#6f96a4;fill-opacity:1;stroke-width:0.40000042"
       inkscape:label="#path2838" />
    <path
       id="binary_sensor.computer_power_status"
       d="m 123.82167,-35.396701 h -6.54544 v -4.363631 h 6.54544 m 0,-0.727263 h -6.54544 c -0.40364,0 -0.72728,0.323637 -0.72728,0.727263 v 4.363631 a 0.7272719,0.7272719 0 0 0 0.72728,0.727277 h 2.54544 v 0.727276 h -0.72726 v 0.727263 h 2.90908 v -0.727263 h -0.72726 v -0.727276 h 2.54544 a 0.7272719,0.7272719 0 0 0 0.72728,-0.727277 v -4.363631 c 0,-0.403626 -0.32728,-0.727263 -0.72728,-0.727263 z"
       inkscape:connector-curvature="0"
       style="fill:#6f96a4;fill-opacity:1;stroke-width:0.36363593"
       inkscape:label="#path4691" />
  </g>
  <g
     inkscape:groupmode="layer"
     id="layer13"
     inkscape:label="Devices"
     transform="translate(0,2.6458333)" />
  <g
     inkscape:groupmode="layer"
     id="layer15"
     inkscape:label="Sensors"
     transform="translate(0,-5.2916667)">
    <rect
       style="opacity:0.99842517;fill:#6f96a4;fill-opacity:1;stroke:none;stroke-width:0.2688134;stroke-linecap:round;stroke-linejoin:miter;stroke-miterlimit:4;stroke-dasharray:none;stroke-opacity:1"
       id="binary_sensor.bathroomdoor_state"
       width="17.949865"
       height="1.6775172"
       x="37.989471"
       y="47.520393"
       inkscape:label="#rect4681" />
    <rect
       style="opacity:0.99842517;fill:#6f96a4;fill-opacity:1;stroke:none;stroke-width:0.29917616;stroke-linecap:round;stroke-linejoin:miter;stroke-miterlimit:4;stroke-dasharray:none;stroke-opacity:1"
       id="binary_sensor.entrancedoor_state"
       width="18.790302"
       height="1.9849359"
       x="73.48497"
       y="169.90016"
       inkscape:label="#rect4681" />
    <rect
       style="opacity:0.99842517;fill:#6f96a4;fill-opacity:1;stroke:none;stroke-width:0.42265645;stroke-linecap:round;stroke-linejoin:miter;stroke-miterlimit:4;stroke-dasharray:none;stroke-opacity:1"
       id="binary_sensor.officewindow_state"
       width="2.5327182"
       height="29.391008"
       x="211.15587"
       y="45.185581"
       inkscape:label="#rect4681" />
    <rect
       style="opacity:0.99842517;fill:#6f96a4;fill-opacity:1;stroke:none;stroke-width:0.36772484;stroke-linecap:round;stroke-linejoin:miter;stroke-miterlimit:4;stroke-dasharray:none;stroke-opacity:1"
       id="binary_sensor.bedroomwindow_state"
       width="2.5784519"
       height="21.853113"
       x="211.13095"
       y="176.42886"
       inkscape:label="#rect4681" />
    <rect
       style="opacity:0.99842517;fill:#6f96a4;fill-opacity:1;stroke:none;stroke-width:0.42241201;stroke-linecap:round;stroke-linejoin:miter;stroke-miterlimit:4;stroke-dasharray:none;stroke-opacity:1"
       id="binary_sensor.kitchenwindow_state"
       width="22.405125"
       height="3.3185737"
       x="44.192928"
       y="168.56653"
       inkscape:label="#rect4681" />
    <rect
       style="opacity:0.99842517;fill:#6f96a4;fill-opacity:1;stroke:none;stroke-width:0.41378766;stroke-linecap:round;stroke-linejoin:miter;stroke-miterlimit:4;stroke-dasharray:none;stroke-opacity:1"
       id="binary_sensor.livingroomwindow_state"
       width="2.5422783"
       height="28.064571"
       x="211.14488"
       y="103.08842"
       inkscape:label="#rect4681" />
    <rect
       style="opacity:0.99842517;fill:#6f96a4;fill-opacity:1;stroke:none;stroke-width:0.24253076;stroke-linecap:round;stroke-linejoin:miter;stroke-miterlimit:4;stroke-dasharray:none;stroke-opacity:1"
       id="binary_sensor.officedoor_state"
       width="17.69499"
       height="1.3851911"
       x="143.00897"
       y="88.482552"
       inkscape:label="#rect4681" />
    <rect
       style="opacity:0.99842517;fill:#6f96a4;fill-opacity:1;stroke:none;stroke-width:0.24832603;stroke-linecap:round;stroke-linejoin:miter;stroke-miterlimit:4;stroke-dasharray:none;stroke-opacity:1"
       id="binary_sensor.bedroomdoor_state"
       width="18.092554"
       height="1.4202702"
       x="119.18118"
       y="166.76758"
       inkscape:label="#rect4681" />
    <rect
       style="opacity:0.99842517;fill:#6f96a4;fill-opacity:1;stroke:none;stroke-width:0.28570116;stroke-linecap:round;stroke-linejoin:miter;stroke-miterlimit:4;stroke-dasharray:none;stroke-opacity:1"
       id="binary_sensor.livingroomdoor_state"
       width="1.8785565"
       height="18.106144"
       x="99.375107"
       y="144.74371"
       inkscape:label="#rect4681" />
  </g>
  <g
     inkscape:groupmode="layer"
     id="layer7"
     inkscape:label="Switchs"
     transform="translate(0,126.74508)"
     style="display:inline">
    <path
       id="switch.bedroom_fan"
       class="fan"
       d="m 121.99643,64.919734 a 0.99850297,0.99850297 0 0 0 -0.99847,0.99849 0.99850297,0.99850297 0 0 0 0.99847,0.99849 0.99850297,0.99850297 0 0 0 0.99849,-0.99849 0.99850297,0.99850297 0 0 0 -0.99849,-0.99849 m 0.49926,-8.98653 c 4.49328,0 4.60309,3.56465 2.24665,4.74289 -0.98853,0.48924 -1.42787,1.5377 -1.6176,2.4663 0.47929,0.19963 0.89868,0.50924 1.21817,0.90863 3.69448,-1.99702 7.66851,-1.2082 7.66851,2.36644 0,4.49329 -3.56464,4.5931 -4.74289,2.22666 -0.49924,-0.98853 -1.55767,-1.42784 -2.48626,-1.61756 -0.19963,0.47929 -0.50925,0.88868 -0.90863,1.22814 1.98702,3.6845 1.1982,7.64854 -2.37644,7.64854 -4.49328,0 -4.58315,-3.57465 -2.22667,-4.75285 0.97853,-0.48929 1.41789,-1.52774 1.61756,-2.44634 -0.48925,-0.19964 -0.91859,-0.51925 -1.23813,-0.91863 -3.68446,1.97705 -7.63854,1.1982 -7.63854,-2.36645 0,-4.49328 3.55465,-4.6031 4.73289,-2.23666 0.49925,0.98853 1.5477,1.41788 2.47629,1.6076 0.18983,-0.47928 0.50926,-0.89864 0.91864,-1.21817 -1.98701,-3.68447 -1.1982,-7.63854 2.35645,-7.63854 z"
       inkscape:connector-curvature="0"
       style="display:none;fill:#ffffff;fill-opacity:1;stroke:#818181;stroke-width:0.5;stroke-miterlimit:4;stroke-dasharray:none;stroke-opacity:1"
       inkscape:label="#path5975" />
    <path
       id="switch.bathroom_heater"
       class="heater"
       d="m 66.305466,-99.511451 -1.419998,2.190009 1.419998,2.210003 h -0.0102 l -1.990001,3.099968 -1.729999,-0.899981 1.419999,-2.210003 -1.419999,-2.199987 2.000001,-3.100008 1.729999,0.909999 m 6,-0.109985 -1.419999,2.209966 1.419999,2.200025 -0.0098,0.01134 -1.99,3.090028 -1.73,-0.900019 1.419999,-2.199987 -1.419999,-2.200025 2.000002,-3.099972 1.729999,0.890007 m 6.049999,0 -1.44,2.209965 1.44,2.200025 v 0.01134 l -2.000001,3.090028 -1.750001,-0.900019 1.420003,-2.199987 -1.420003,-2.200025 2.000001,-3.099964 1.750001,0.889999 m -17.999999,19.10997 v -7.999974 a 1.9999999,1.9999999 0 0 1 2.000001,-2.000013 h 15.999998 a 1.9999999,1.9999999 0 0 1 2.000001,2.000013 v 7.999974 h -1.999971 v -1.999975 H 62.355467 v 1.999975 h -2.000001 m 4.000003,-8.002696 a 0.99999992,0.99999992 0 0 0 -1.000003,0.999988 v 2.000012 a 0.99999992,0.99999992 0 0 0 1.000003,0.999988 0.99999992,0.99999992 0 0 0 0.999998,-0.999988 v -2.000012 a 0.99999992,0.99999992 0 0 0 -0.999998,-0.999988 m 3.999998,0 a 0.99999992,0.99999992 0 0 0 -0.999999,0.999988 v 2.000012 a 0.99999992,0.99999992 0 0 0 0.999999,0.999988 0.99999992,0.99999992 0 0 0 0.999999,-0.999988 v -2.000012 a 0.99999992,0.99999992 0 0 0 -0.999999,-0.999988 m 3.999998,0 a 0.99999992,0.99999992 0 0 0 -0.999998,0.999988 v 2.000012 a 0.99999992,0.99999992 0 0 0 0.999998,0.999988 0.99999992,0.99999992 0 0 0 1.000003,-0.999988 v -2.000012 a 0.99999992,0.99999992 0 0 0 -1.000003,-0.999988 m 4.000003,0 a 0.99999992,0.99999992 0 0 0 -1.000003,0.999988 v 2.000012 a 0.99999992,0.99999992 0 0 0 1.000003,0.999988 0.99999992,0.99999992 0 0 0 0.999998,-0.999988 v -2.000012 a 0.99999992,0.99999992 0 0 0 -0.999998,-0.999988 z"
       inkscape:connector-curvature="0"
       style="fill:#ffffff;fill-opacity:1;stroke:#818181;stroke-width:0.5;stroke-linecap:round;stroke-linejoin:round;stroke-miterlimit:4;stroke-dasharray:none;stroke-opacity:1"
       inkscape:label="#path4723" />
    <path
       id="fan.livingroom_fan"
       class="fan"
       d="m 137.9629,-5.7292538 a 0.99850297,0.99850297 0 0 0 -0.99847,0.9984899 0.99850297,0.99850297 0 0 0 0.99847,0.99849 0.99850297,0.99850297 0 0 0 0.99849,-0.99849 0.99850297,0.99850297 0 0 0 -0.99849,-0.9984899 m 0.49926,-8.9865322 c 4.49328,0 4.60309,3.564651 2.24665,4.742892 -0.98853,0.48924 -1.42787,1.5377001 -1.6176,2.4663002 0.47929,0.19963 0.89868,0.50924 1.21817,0.90863 3.69448,-1.9970201 7.66851,-1.2082 7.66851,2.3664399 0,4.49329016 -3.56464,4.59310016 -4.74289,2.2266601 -0.49924,-0.98853 -1.55767,-1.42784 -2.48626,-1.61756 -0.19963,0.4792899 -0.50925,0.88868 -0.90863,1.22814 1.98702,3.6844999 1.1982,7.6485375 -2.37644,7.6485375 -4.49328,0 -4.58315,-3.5746479 -2.22667,-4.75284727 0.97853,-0.48929017 1.41789,-1.52774033 1.61756,-2.44634023 -0.48925,-0.1996401 -0.91859,-0.51925 -1.23813,-0.91863 -3.68446,1.97704992 -7.63854,1.1982 -7.63854,-2.36645 0,-4.4932802 3.55465,-4.6031002 4.73289,-2.23666 0.49925,0.98853 1.5477,1.41788 2.47629,1.6075999 0.18983,-0.47928 0.50926,-0.8986399 0.91864,-1.2181699 -1.98701,-3.6844702 -1.1982,-7.6385422 2.35645,-7.6385422 z"
       inkscape:connector-curvature="0"
       style="display:inline;fill:#ffffff;fill-opacity:1;stroke:#818181;stroke-width:0.5;stroke-miterlimit:4;stroke-dasharray:none;stroke-opacity:1"
       inkscape:label="#path5975" />
  </g>
  <g
     inkscape:groupmode="layer"
     id="layer6"
     inkscape:label="Lights"
     style="display:inline"
     transform="translate(0,126.74508)">
    <path
       id="light.bedroom_ceiling"
       d="m 157.87382,45.51274 a 7.0000699,7.0000699 0 0 0 -7.00014,6.999999 c 0,2.379971 1.19009,4.469989 3.00006,5.740017 v 2.260039 a 1.0000101,1.0000101 0 0 0 1.00001,0.99997 h 6.00009 a 1.0000101,1.0000101 0 0 0 1,-0.99997 v -2.260039 c 1.81002,-1.270028 3.00002,-3.360046 3.00002,-5.740017 a 7.0000699,7.0000699 0 0 0 -7.00004,-6.999999 m -3.00007,18.999984 a 1.0000101,1.0000101 0 0 0 1.00001,1.000016 h 4.00002 a 1.0000101,1.0000101 0 0 0 1.00006,-1.000016 v -0.999951 h -6.00009 z"
       inkscape:connector-curvature="0"
       style="fill:#ffffff;fill-opacity:1;stroke:#818181;stroke-width:0.5;stroke-miterlimit:4;stroke-dasharray:none;stroke-opacity:1"
       inkscape:label="#path2607" />
    <path
       id="light.living_room_ceiling_2"
       d="m 167.91079,-18.746341 a 7.0000087,7.0000087 0 0 0 -7.00003,7.000014 c 0,2.3799515 1.19003,4.4699628 3.00004,5.7400143 v 2.2599982 a 1.0000013,1.0000013 0 0 0 1.00004,0.9999566 h 5.99994 a 1.0000013,1.0000013 0 0 0 1,-0.9999566 v -2.2599982 c 1.80996,-1.2700515 3.00004,-3.3600628 3.00004,-5.7400143 a 7.0000087,7.0000087 0 0 0 -7.00003,-7.000014 m -2.99995,18.99998976 a 1.0000013,1.0000013 0 0 0 1,1.00001584 h 3.9999 a 1.0000013,1.0000013 0 0 0 1.00004,-1.00001584 v -0.9999703 h -5.99994 z"
       inkscape:connector-curvature="0"
       style="fill:#ffffff;fill-opacity:1;stroke:#818181;stroke-width:0.5;stroke-miterlimit:4;stroke-dasharray:none;stroke-opacity:1"
       inkscape:label="#path2607-0-5" />
    <path
       id="light.living_room_corner_lamp"
       d="m 205.68371,16.731008 a 7.0000059,7.0000059 0 0 0 -6.99998,7.000009 c 0,2.379962 1.18999,4.46997 2.99995,5.740018 v 2.260005 a 1.000001,1.000001 0 0 0 0.99999,0.999956 h 6.00003 a 1.000001,1.000001 0 0 0 1,-0.999956 v -2.260005 c 1.81,-1.270048 3.00004,-3.360056 3.00004,-5.740018 a 7.0000059,7.0000059 0 0 0 -7.00003,-7.000009 m -3.00004,18.99998 a 1.000001,1.000001 0 0 0 1.00005,1.00002 h 3.99994 a 1.000001,1.000001 0 0 0 1.00004,-1.00002 v -0.999952 h -6.00003 z"
       inkscape:connector-curvature="0"
       style="fill:#ffffff;fill-opacity:1;stroke:#818181;stroke-width:0.5;stroke-miterlimit:4;stroke-dasharray:none;stroke-opacity:1"
       inkscape:label="#path2607-0-4" />
    <path
       id="light.kitchen_1"
       d="m 54.71797,-71.118217 a 6.9999995,6.9999995 0 0 0 -6.999997,7.000011 c 0,2.37996 1.19001,4.469967 2.999994,5.740009 v 2.260007 a 1,1 0 0 0 1.000014,0.999969 h 5.999983 a 1,1 0 0 0 1.000019,-0.999969 v -2.260007 c 1.809975,-1.270042 2.999989,-3.360049 2.999989,-5.740009 a 6.9999995,6.9999995 0 0 0 -7.000002,-7.000011 m -2.999989,18.999985 a 1,1 0 0 0 1.000015,1.000015 h 3.999949 a 1,1 0 0 0 1.000019,-1.000015 v -0.999959 h -5.999983 z"
       inkscape:connector-curvature="0"
       style="fill:#ffffff;fill-opacity:1;stroke:#818181;stroke-width:0.5;stroke-miterlimit:4;stroke-dasharray:none;stroke-opacity:1"
       inkscape:label="#path2607-0-51" />
    <path
       id="light.kitchen_2"
       d="M 55.759005,-0.37533791 A 7.0000042,7.0000042 0 0 0 48.758999,6.6246751 c 0,2.3799505 1.190015,4.4699629 2.999991,5.7400019 v 2.260004 a 1.0000007,1.0000007 0 0 0 1.000015,0.999969 h 5.999991 a 1.0000007,1.0000007 0 0 0 1.000016,-0.999969 v -2.260004 c 1.80998,-1.270039 2.999995,-3.3600514 2.999995,-5.7400019 a 7.0000042,7.0000042 0 0 0 -7.000002,-7.00001301 m -3,18.99997491 a 1.0000007,1.0000007 0 0 0 1.000025,1.00002 h 3.999947 a 1.0000007,1.0000007 0 0 0 1.000019,-1.00002 v -0.999951 h -5.999991 z"
       inkscape:connector-curvature="0"
       style="fill:#ffffff;fill-opacity:1;stroke:#818181;stroke-width:0.5;stroke-linejoin:round;stroke-miterlimit:4;stroke-dasharray:none;stroke-opacity:1;paint-order:normal"
       inkscape:label="#path2607-0-6" />
    <path
       id="light.computer_lamp_bulb"
       d="m 103.24514,-44.479208 a 6.9999995,6.9999995 0 0 0 -6.999996,7.00001 c 0,2.37996 1.19001,4.46997 3,5.74001 v 2.26001 a 1,1 0 0 0 1.000006,0.99997 h 5.99998 a 1,1 0 0 0 1.00002,-0.99997 v -2.26001 c 1.80998,-1.27004 2.99999,-3.36005 2.99999,-5.74001 a 6.9999995,6.9999995 0 0 0 -7,-7.00001 m -2.99999,18.99999 a 1,1 0 0 0 1.00002,1.00001 h 3.99995 a 1,1 0 0 0 1.00001,-1.00001 v -0.99996 h -5.99998 z"
       inkscape:connector-curvature="0"
       style="display:inline;fill:#ffffff;fill-opacity:1;stroke:#818181;stroke-width:0.5;stroke-miterlimit:4;stroke-dasharray:none;stroke-opacity:1"
       inkscape:label="#path2607-0-51" />
    <path
       id="light.office_ceiling"
       d="m 146.22258,-95.602381 a 6.9999995,6.9999995 0 0 0 -7,7.00001 c 0,2.37996 1.19001,4.46997 3.00001,5.74001 v 2.26001 a 1,1 0 0 0 1,0.99997 h 5.99998 a 1,1 0 0 0 1.00002,-0.99997 v -2.26001 c 1.80998,-1.27004 2.99999,-3.36005 2.99999,-5.74001 a 6.9999995,6.9999995 0 0 0 -7,-7.00001 m -2.99999,18.99999 a 1,1 0 0 0 1.00002,1.00001 h 3.99995 a 1,1 0 0 0 1.00001,-1.00001 v -0.99996 h -5.99998 z"
       inkscape:connector-curvature="0"
       style="display:none;fill:#ffffff;fill-opacity:1;stroke:#818181;stroke-width:0.5;stroke-miterlimit:4;stroke-dasharray:none;stroke-opacity:1"
       inkscape:label="#path2607-0-51" />
    <path
       id="light.outdoor_1"
       d="m 93.461214,55.805431 a 7.0000699,7.0000699 0 0 0 -7.00014,7 c 0,2.37997 1.19009,4.46999 3.00006,5.74002 v 2.26004 a 1.0000101,1.0000101 0 0 0 1.00001,0.99997 h 6.00009 a 1.0000101,1.0000101 0 0 0 1,-0.99997 v -2.26004 c 1.81002,-1.27003 3.000016,-3.36005 3.000016,-5.74002 a 7.0000699,7.0000699 0 0 0 -7.000036,-7 m -3.00007,18.99998 a 1.0000101,1.0000101 0 0 0 1.00001,1.00002 h 4.00002 a 1.0000101,1.0000101 0 0 0 1.00006,-1.00002 v -0.99995 h -6.00009 z"
       inkscape:connector-curvature="0"
       style="display:inline;fill:#ffffff;fill-opacity:1;stroke:#818181;stroke-width:0.5;stroke-miterlimit:4;stroke-dasharray:none;stroke-opacity:1"
       inkscape:label="#path2607" />
    <path
       id="light.bedroom_nightstand"
       d="m 147.22257,82.680515 a 7.0000699,7.0000699 0 0 0 -7.00014,7.000012 c 0,2.379961 1.19009,4.469969 3.00006,5.73999 v 2.260028 a 1.0000101,1.0000101 0 0 0 1.00001,0.999964 h 6.00009 a 1.0000101,1.0000101 0 0 0 1,-0.999964 v -2.260028 c 1.81002,-1.270021 3.00002,-3.360029 3.00002,-5.73999 a 7.0000699,7.0000699 0 0 0 -7.00004,-7.000012 m -3.00007,18.999935 a 1.0000101,1.0000101 0 0 0 1.00001,1.00002 h 4.00002 a 1.0000101,1.0000101 0 0 0 1.00006,-1.00002 v -0.99995 h -6.00009 z"
       inkscape:connector-curvature="0"
       style="display:inline;fill:#ffffff;fill-opacity:1;stroke:#818181;stroke-width:0.5;stroke-miterlimit:4;stroke-dasharray:none;stroke-opacity:1"
       inkscape:label="#path2607" />
    <path
       id="group.bathroom_ceiling"
       d="m 49.268348,-112.17911 a 6.9999995,6.9999995 0 0 0 -6.999997,7.00004 c 0,2.37997 1.19001,4.46999 2.999994,5.740037 v 2.26001 a 1,1 0 0 0 1.000014,0.99997 h 5.999983 a 1,1 0 0 0 1.000019,-0.99997 v -2.26001 c 1.809975,-1.270047 2.999989,-3.360067 2.999989,-5.740037 a 6.9999995,6.9999995 0 0 0 -7.000002,-7.00004 m -2.999989,19.000047 a 1,1 0 0 0 1.000015,1.00001 h 3.999949 a 1,1 0 0 0 1.000019,-1.00001 v -0.99996 h -5.999983 z"
       inkscape:connector-curvature="0"
       style="display:inline;fill:#ffffff;fill-opacity:1;stroke:#818181;stroke-width:0.5;stroke-miterlimit:4;stroke-dasharray:none;stroke-opacity:1"
       inkscape:label="#path2607-0-51" />
    <path
       id="switch.3d_printer_light"
       d="m 185.27112,-58.732586 c -5.53956,1.23103 -6.83212,5.028721 -8.11237,8.210881 l 1.1633,0.40625 0.58472,-1.41567 c 0.29545,0.10469 0.6032,0.18471 0.82479,0.18471 6.77059,0 8.61712,-10.463671 8.61712,-10.463671 -0.6155,1.23104 -4.92408,1.38492 -8.0016,2.00042 -3.07755,0.61551 -4.30858,3.23143 -4.30858,4.462461 0,1.23102 1.07714,2.30816 1.07714,2.30816 2.00041,-5.693471 8.15548,-5.693471 8.15548,-5.693471 z"
       inkscape:connector-curvature="0"
       style="display:none;fill:#ffffff;fill-opacity:1;stroke:#818181;stroke-width:0.61550784;stroke-opacity:1"
       inkscape:label="#path4734" />
    <path
       id="light.tv_light_bulb"
       d="m 205.21288,-46.516775 a 7.0000088,7.0000088 0 0 0 -7.00003,7.00001 c 0,2.37995 1.19003,4.46996 3.00004,5.74001 v 2.26 a 1.0000013,1.0000013 0 0 0 1.00004,0.99996 h 5.99994 a 1.0000013,1.0000013 0 0 0 1,-0.99996 v -2.26 c 1.80996,-1.27005 3.00004,-3.36006 3.00004,-5.74001 a 7.0000088,7.0000088 0 0 0 -7.00003,-7.00001 m -2.99995,18.99998 a 1.0000013,1.0000013 0 0 0 1,1.00002 h 3.9999 a 1.0000013,1.0000013 0 0 0 1.00004,-1.00002 v -0.99997 h -5.99994 z"
       inkscape:connector-curvature="0"
       style="display:inline;fill:#ffffff;fill-opacity:1;stroke:#818181;stroke-width:0.5;stroke-miterlimit:4;stroke-dasharray:none;stroke-opacity:1"
       inkscape:label="#path2607-0-5" />
    <path
       style="opacity:0.99842517;fill:#f99600;fill-opacity:1;stroke:#818181;stroke-width:0.5;stroke-linecap:round;stroke-linejoin:miter;stroke-miterlimit:4;stroke-dasharray:none;stroke-opacity:1;filter:url(#filter6085)"
       id="path5929"
       sodipodi:type="arc"
       sodipodi:cx="1024.3066"
       sodipodi:cy="-43.261253"
       sodipodi:rx="7.9375"
       sodipodi:ry="7.9375"
       sodipodi:start="0"
       sodipodi:end="6.2806371"
       sodipodi:open="true"
       d="m 1032.2441,-43.261253 a 7.9375,7.9375 0 0 1 -7.9324,7.937498 7.9375,7.9375 0 0 1 -7.9426,-7.927385 7.9375,7.9375 0 0 1 7.9224,-7.947599 7.9375,7.9375 0 0 1 7.9526,7.917259" />
    <path
       id="light.bedroom_corner_left_2"
       d="m 206.21471,79.037385 a 7.0000058,7.0000058 0 0 0 -6.99998,7.00001 c 0,2.37996 1.18999,4.469969 2.99995,5.740013 v 2.259988 a 1.000001,1.000001 0 0 0 0.99999,0.999954 h 6.00003 a 1.000001,1.000001 0 0 0 1,-0.999954 v -2.259988 c 1.81,-1.270044 3.00004,-3.360053 3.00004,-5.740013 a 7.0000058,7.0000058 0 0 0 -7.00003,-7.00001 m -3.00004,18.999937 a 1.000001,1.000001 0 0 0 1.00005,1.000014 h 3.99994 a 1.000001,1.000001 0 0 0 1.00004,-1.000014 v -0.999944 h -6.00003 z"
       inkscape:connector-curvature="0"
       style="display:inline;fill:#ffffff;fill-opacity:1;stroke:#818181;stroke-width:0.5;stroke-miterlimit:4;stroke-dasharray:none;stroke-opacity:1"
       inkscape:label="#path2607-0-4" />
    <path
       inkscape:label="#path2607-0-4"
       style="display:inline;fill:#ffffff;fill-opacity:1;stroke:#818181;stroke-width:0.5;stroke-miterlimit:4;stroke-dasharray:none;stroke-opacity:1"
       inkscape:connector-curvature="0"
       d="m 106.75648,79.037385 a 7.0000058,7.0000058 0 0 0 -6.99998,7.00001 c 0,2.37996 1.18999,4.469969 2.99995,5.740013 v 2.259988 a 1.000001,1.000001 0 0 0 0.99999,0.999954 h 6.00003 a 1.000001,1.000001 0 0 0 1,-0.999954 v -2.259988 c 1.81,-1.270044 3.00004,-3.360053 3.00004,-5.740013 a 7.0000058,7.0000058 0 0 0 -7.00003,-7.00001 m -3.00004,18.999937 a 1.000001,1.000001 0 0 0 1.00005,1.000014 h 3.99994 a 1.000001,1.000001 0 0 0 1.00004,-1.000014 v -0.999944 h -6.00003 z"
       id="light.bedroom_corner_right_2" />
  </g>
  <g
     inkscape:groupmode="layer"
     id="layer16"
     inkscape:label="Locks"
     transform="translate(0,2.6458333)">
    <path
       id="lock.home"
       d="m 83.33049,155.48321 a 1.2142537,1.2142537 0 0 0 1.214254,-1.21423 c 0,-0.67392 -0.546414,-1.21426 -1.214254,-1.21426 a 1.2142537,1.2142537 0 0 0 -1.214254,1.21426 1.2142537,1.2142537 0 0 0 1.214254,1.21423 m 3.642761,-5.46414 a 1.2142537,1.2142537 0 0 1 1.214254,1.21426 v 6.07127 a 1.2142537,1.2142537 0 0 1 -1.214254,1.21426 h -7.285522 a 1.2142537,1.2142537 0 0 1 -1.214254,-1.21426 v -6.07127 c 0,-0.67391 0.546414,-1.21426 1.214254,-1.21426 h 0.607126 v -1.21423 a 3.0356343,3.0356343 0 0 1 3.035635,-3.03565 3.0356343,3.0356343 0 0 1 3.035635,3.03565 v 1.21423 h 0.607126 m -3.642761,-3.03562 a 1.8213805,1.8213805 0 0 0 -1.821381,1.82139 v 1.21423 h 3.642762 v -1.21423 a 1.8213805,1.8213805 0 0 0 -1.821381,-1.82139 z"
       inkscape:connector-curvature="0"
       style="fill:#ffffff;fill-opacity:1;stroke:#818181;stroke-width:0.60712683;stroke-opacity:1"
       inkscape:label="#path4666" />
  </g>
  <g
     inkscape:groupmode="layer"
     id="layer19"
     inkscape:label="Motionsensors"
     transform="translate(0,2.6458333)">
    <path
       id="binary_sensor.bathroom_presence"
       d="m 26.984276,18.001236 c -0.402668,0 -0.724811,0.322139 -0.724811,0.724811 0,0.402674 0.322143,0.724811 0.724811,0.724811 0.402667,0 0.72481,-0.322137 0.72481,-0.724811 0,-0.402672 -0.322143,-0.724811 -0.72481,-0.724811 m 2.283157,0.322139 a 2.9515899,2.9515899 0 0 0 2.951581,2.95159 V 20.73941 a 2.4160354,2.4160354 0 0 1 -2.416035,-2.416035 h -0.535546 m 1.071106,0 c 0,1.038895 0.841587,1.880481 1.880475,1.880481 v -0.539582 c -0.740912,0 -1.340896,-0.599982 -1.340896,-1.340899 h -0.539579 m 1.07514,0 a 0.80534515,0.80534515 0 0 0 0.805335,0.805346 v -0.805346 h -0.805335 m -5.266957,1.220097 c -0.06849,0 -0.136972,0.01202 -0.201349,0.03222 l -2.182483,0.680517 v 2.093897 h 0.724811 v -1.477809 l 0.849637,-0.265764 -1.574448,6.172972 h 0.724811 l 1.155679,-3.265675 0.938228,1.252311 v 2.013364 h 0.724811 v -2.581131 l -1.002666,-1.828135 0.293957,-1.15567 0.434886,0.732865 h 1.965048 v -0.724811 h -1.457688 l -0.805335,-1.3409 c -0.12084,-0.201336 -0.338245,-0.338245 -0.587899,-0.338245 z"
       inkscape:connector-curvature="0"
       style="fill:#818181;fill-opacity:1;stroke-width:0.40267256"
       inkscape:label="#path4977" />
  </g>
  <g
     inkscape:groupmode="layer"
     id="layer10"
     inkscape:label="Temps"
     transform="translate(0,126.74508)"
     style="display:inline">
    <text
       xml:space="preserve"
       style="font-style:normal;font-variant:normal;font-weight:normal;font-stretch:normal;font-size:4.23333311px;line-height:1.25;font-family:sans-serif;-inkscape-font-specification:'sans-serif, Normal';font-variant-ligatures:normal;font-variant-caps:normal;font-variant-numeric:normal;font-feature-settings:normal;text-align:center;letter-spacing:0px;word-spacing:0px;writing-mode:lr-tb;text-anchor:middle;fill:#000000;fill-opacity:1;stroke:none;stroke-width:0.35756892"
       x="87.319229"
       y="-109.94712"
       id="climate.bathroom"
       inkscape:label="#text2907"><tspan
         sodipodi:role="line"
         id="tspan2905"
         x="87.319229"
         y="-109.94712"
         style="font-style:normal;font-variant:normal;font-weight:normal;font-stretch:normal;font-size:4.23333311px;font-family:sans-serif;-inkscape-font-specification:'sans-serif, Normal';font-variant-ligatures:normal;font-variant-caps:normal;font-variant-numeric:normal;font-feature-settings:normal;text-align:center;writing-mode:lr-tb;text-anchor:middle;stroke-width:0.35756892">Temp</tspan></text>
    <text
       xml:space="preserve"
       style="font-style:normal;font-variant:normal;font-weight:normal;font-stretch:normal;font-size:4.23333311px;line-height:1.25;font-family:sans-serif;-inkscape-font-specification:'sans-serif, Normal';font-variant-ligatures:normal;font-variant-caps:normal;font-variant-numeric:normal;font-feature-settings:normal;text-align:end;letter-spacing:0px;word-spacing:0px;writing-mode:lr-tb;text-anchor:end;fill:#000000;fill-opacity:1;stroke:none;stroke-width:0.35756892"
       x="190.66557"
       y="90.96257"
       id="sensor.netatmo_bedroom_temperature"
       inkscape:label="#text2907-5"><tspan
         sodipodi:role="line"
         id="tspan2905-6"
         x="190.66557"
         y="90.96257"
         style="font-style:normal;font-variant:normal;font-weight:normal;font-stretch:normal;font-size:4.23333311px;font-family:sans-serif;-inkscape-font-specification:'sans-serif, Normal';font-variant-ligatures:normal;font-variant-caps:normal;font-variant-numeric:normal;font-feature-settings:normal;text-align:end;writing-mode:lr-tb;text-anchor:end;stroke-width:0.35756892">Temp</tspan></text>
    <text
       xml:space="preserve"
       style="font-style:normal;font-variant:normal;font-weight:normal;font-stretch:normal;font-size:4.23333311px;line-height:1.25;font-family:sans-serif;-inkscape-font-specification:'sans-serif, Normal';font-variant-ligatures:normal;font-variant-caps:normal;font-variant-numeric:normal;font-feature-settings:normal;text-align:center;letter-spacing:0px;word-spacing:0px;writing-mode:lr-tb;text-anchor:middle;fill:#000000;fill-opacity:1;stroke:none;stroke-width:0.35756892"
       x="48.20639"
       y="47.957481"
       id="sensor.netatmo_outdoormodule_temperature"
       inkscape:label="#text2907"><tspan
         sodipodi:role="line"
         id="tspan2905-7"
         x="48.20639"
         y="47.957481"
         style="font-style:normal;font-variant:normal;font-weight:normal;font-stretch:normal;font-size:4.23333311px;font-family:sans-serif;-inkscape-font-specification:'sans-serif, Normal';font-variant-ligatures:normal;font-variant-caps:normal;font-variant-numeric:normal;font-feature-settings:normal;text-align:center;writing-mode:lr-tb;text-anchor:middle;stroke-width:0.35756892">Temp</tspan></text>
    <text
       xml:space="preserve"
       style="font-style:normal;font-variant:normal;font-weight:normal;font-stretch:normal;font-size:4.23333311px;line-height:1.25;font-family:sans-serif;-inkscape-font-specification:'sans-serif, Normal';font-variant-ligatures:normal;font-variant-caps:normal;font-variant-numeric:normal;font-feature-settings:normal;text-align:center;letter-spacing:0px;word-spacing:0px;writing-mode:lr-tb;text-anchor:middle;display:inline;fill:#000000;fill-opacity:1;stroke:none;stroke-width:0.35756892"
       x="161.68036"
       y="-36.822876"
       id="climate.netatmo_living_room"
       inkscape:label="#text2907"><tspan
         sodipodi:role="line"
         id="tspan2905-7-6"
         x="161.68036"
         y="-36.822876"
         style="font-style:normal;font-variant:normal;font-weight:normal;font-stretch:normal;font-size:4.23333311px;font-family:sans-serif;-inkscape-font-specification:'sans-serif, Normal';font-variant-ligatures:normal;font-variant-caps:normal;font-variant-numeric:normal;font-feature-settings:normal;text-align:center;writing-mode:lr-tb;text-anchor:middle;stroke-width:0.35756892">Temp</tspan></text>
    <text
       xml:space="preserve"
       style="font-style:normal;font-variant:normal;font-weight:normal;font-stretch:normal;font-size:4.23333311px;line-height:1.25;font-family:sans-serif;-inkscape-font-specification:'sans-serif, Normal';font-variant-ligatures:normal;font-variant-caps:normal;font-variant-numeric:normal;font-feature-settings:normal;text-align:center;letter-spacing:0px;word-spacing:0px;writing-mode:lr-tb;text-anchor:middle;display:inline;fill:#000000;fill-opacity:1;stroke:none;stroke-width:0.35756892"
       x="68.074387"
       y="-15.370893"
       id="sensor.kitchen_temperature"
       inkscape:label="#text2907-5"><tspan
         sodipodi:role="line"
         id="tspan2905-6-7"
         x="68.074387"
         y="-15.370893"
         style="font-style:normal;font-variant:normal;font-weight:normal;font-stretch:normal;font-size:4.23333311px;font-family:sans-serif;-inkscape-font-specification:'sans-serif, Normal';font-variant-ligatures:normal;font-variant-caps:normal;font-variant-numeric:normal;font-feature-settings:normal;text-align:center;writing-mode:lr-tb;text-anchor:middle;stroke-width:0.35756892">Temp</tspan></text>
    <text
       xml:space="preserve"
       style="font-style:normal;font-variant:normal;font-weight:normal;font-stretch:normal;font-size:4.23333311px;line-height:1.25;font-family:sans-serif;-inkscape-font-specification:'sans-serif, Normal';font-variant-ligatures:normal;font-variant-caps:normal;font-variant-numeric:normal;font-feature-settings:normal;text-align:center;letter-spacing:0px;word-spacing:0px;writing-mode:lr-tb;text-anchor:middle;display:inline;fill:#000000;fill-opacity:1;stroke:none;stroke-width:0.35756892"
       x="178.32584"
       y="-80.040657"
       id="sensor.netatmo_office_temperature"
       inkscape:label="#text2907-5"><tspan
         sodipodi:role="line"
         id="tspan2905-6-7-3"
         x="178.32584"
         y="-80.040657"
         style="font-style:normal;font-variant:normal;font-weight:normal;font-stretch:normal;font-size:4.23333311px;font-family:sans-serif;-inkscape-font-specification:'sans-serif, Normal';font-variant-ligatures:normal;font-variant-caps:normal;font-variant-numeric:normal;font-feature-settings:normal;text-align:center;writing-mode:lr-tb;text-anchor:middle;stroke-width:0.35756892">Temp</tspan></text>
    <text
       xml:space="preserve"
       style="font-style:normal;font-variant:normal;font-weight:normal;font-stretch:normal;font-size:4.23333311px;line-height:1.25;font-family:sans-serif;-inkscape-font-specification:'sans-serif, Normal';font-variant-ligatures:normal;font-variant-caps:normal;font-variant-numeric:normal;font-feature-settings:normal;text-align:center;letter-spacing:0px;word-spacing:0px;writing-mode:lr-tb;text-anchor:middle;display:none;fill:#000000;fill-opacity:1;stroke:none;stroke-width:0.35756892"
       x="-27.362835"
       y="-217.74419"
       id="sensor.tsl2561_ambient_light"
       inkscape:label="#text2907-5"
       transform="rotate(90)"><tspan
         sodipodi:role="line"
         id="tspan2905-6-7-9"
         x="-27.362835"
         y="-217.74419"
         style="font-style:normal;font-variant:normal;font-weight:normal;font-stretch:normal;font-size:4.23333311px;font-family:sans-serif;-inkscape-font-specification:'sans-serif, Normal';font-variant-ligatures:normal;font-variant-caps:normal;font-variant-numeric:normal;font-feature-settings:normal;text-align:center;writing-mode:lr-tb;text-anchor:middle;stroke-width:0.35756892">Lux</tspan></text>
  </g>
  <g
     inkscape:groupmode="layer"
     id="layer8"
     inkscape:label="Weather"
     transform="translate(0,126.74508)"
     style="display:inline">
    <path
       id="path2790"
       d="m 59.183709,46.734768 a 1.3514409,1.3514409 0 0 1 -1.351445,1.351438 1.3514409,1.3514409 0 0 1 -1.351433,-1.351438 c 0,-0.443264 0.213526,-0.835186 0.54057,-1.081153 v -2.162286 a 0.81086451,0.81086451 0 0 1 0.810863,-0.810858 0.81086451,0.81086451 0 0 1 0.810866,0.810858 v 2.162286 c 0.327053,0.245967 0.540579,0.637889 0.540579,1.081153 m -1.621728,-2.432577 v 1.667667 c -0.316236,0.110817 -0.54058,0.410825 -0.54058,0.76491 a 0.81086451,0.81086451 0 0 0 0.810863,0.810862 0.81086451,0.81086451 0 0 0 0.810866,-0.810862 c 0,-0.354085 -0.224337,-0.654093 -0.540571,-0.76491 v -1.667667 z"
       inkscape:connector-curvature="0"
       style="fill:#2f00f8;fill-opacity:1;stroke-width:0.27028814"
       inkscape:label="#path2790" />
    <path
       id="path2790-0"
       d="m 97.432609,-89.420439 a 1.3514409,1.3514409 0 0 1 -1.351444,1.35144 1.3514409,1.3514409 0 0 1 -1.351433,-1.35144 c 0,-0.44327 0.213526,-0.83519 0.54057,-1.08116 v -2.16231 a 0.81086451,0.81086451 0 0 1 0.810863,-0.81086 0.81086451,0.81086451 0 0 1 0.810866,0.81086 v 2.16231 c 0.327052,0.24597 0.540578,0.63789 0.540578,1.08116 m -1.621728,-2.4326 v 1.66768 c -0.316235,0.11082 -0.540579,0.41083 -0.540579,0.76492 a 0.81086451,0.81086451 0 0 0 0.810863,0.81086 0.81086451,0.81086451 0 0 0 0.810866,-0.81086 c 0,-0.35409 -0.224337,-0.6541 -0.540571,-0.76492 v -1.66768 z"
       inkscape:connector-curvature="0"
       style="fill:#2f00f8;fill-opacity:1;stroke-width:0.27028814"
       inkscape:label="#path2790-0" />
    <path
       id="path2790-5"
       d="m 157.39603,95.268327 a 1.3514409,1.3514409 0 0 1 -1.35145,1.351424 1.3514409,1.3514409 0 0 1 -1.35143,-1.351424 c 0,-0.443277 0.21352,-0.835194 0.54056,-1.081154 v -2.162285 a 0.81086451,0.81086451 0 0 1 0.81087,-0.810867 0.81086451,0.81086451 0 0 1 0.81087,0.810867 v 2.162285 c 0.32705,0.24596 0.54058,0.637877 0.54058,1.081154 m -1.62173,-2.432585 v 1.667671 c -0.31625,0.11082 -0.54059,0.410827 -0.54059,0.764914 a 0.81086451,0.81086451 0 0 0 0.81087,0.810857 0.81086451,0.81086451 0 0 0 0.81087,-0.810857 c 0,-0.354087 -0.22434,-0.654094 -0.54057,-0.764914 v -1.667671 z"
       inkscape:connector-curvature="0"
       style="fill:#2f00f8;fill-opacity:1;stroke-width:0.27028814"
       inkscape:label="#path2790-5" />
    <path
       id="path2790-5-2-4"
       d="m 176.76595,-114.09464 a 1.3514409,1.3514409 0 0 1 -1.35145,1.35143 1.3514409,1.3514409 0 0 1 -1.35143,-1.35143 c 0,-0.44328 0.21352,-0.8352 0.54056,-1.08116 v -2.1623 a 0.81086452,0.81086452 0 0 1 0.81087,-0.81087 0.81086452,0.81086452 0 0 1 0.81087,0.81087 v 2.1623 c 0.32705,0.24596 0.54058,0.63788 0.54058,1.08116 m -1.62173,-2.4326 v 1.66768 c -0.31625,0.11082 -0.54059,0.41083 -0.54059,0.76492 a 0.81086452,0.81086452 0 0 0 0.81087,0.81086 0.81086452,0.81086452 0 0 0 0.81087,-0.81086 c 0,-0.35409 -0.22434,-0.6541 -0.54057,-0.76492 v -1.66768 z"
       inkscape:connector-curvature="0"
       style="display:inline;fill:#2f00f8;fill-opacity:1;stroke:none;stroke-width:0.27028814;stroke-opacity:1"
       inkscape:label="#path2790-5" />
    <path
       id="path2790-5-2-4-2"
       d="m 35.334218,-2.029532 a 1.3514409,1.3514409 0 0 1 -1.35145,1.35142992 1.3514409,1.3514409 0 0 1 -1.35143,-1.35142992 c 0,-0.44328 0.21352,-0.8352 0.54056,-1.08116 v -2.1623001 a 0.81086452,0.81086452 0 0 1 0.81087,-0.8108699 0.81086452,0.81086452 0 0 1 0.81087,0.8108699 v 2.1623001 c 0.32705,0.24596 0.54058,0.63788 0.54058,1.08116 m -1.62173,-2.4326 v 1.66768 c -0.31625,0.1108199 -0.54059,0.41083 -0.54059,0.76492 a 0.81086452,0.81086452 0 0 0 0.81087,0.81086 0.81086452,0.81086452 0 0 0 0.81087,-0.81086 c 0,-0.35409 -0.22434,-0.6541001 -0.54057,-0.76492 v -1.66768 z"
       inkscape:connector-curvature="0"
       style="display:inline;fill:#2f00f8;fill-opacity:1;stroke:none;stroke-width:0.27028814;stroke-opacity:1"
       inkscape:label="#path2790-5" />
  </g>
  <g
     inkscape:groupmode="layer"
     id="layer14"
     inkscape:label="Buttons"
     transform="translate(0,2.6458333)">
    <rect
       style="opacity:0.99842517;fill:#000000;fill-opacity:1;stroke:none;stroke-width:0.5;stroke-linecap:round;stroke-linejoin:miter;stroke-miterlimit:4;stroke-dasharray:none;stroke-opacity:1"
       id="rect6432"
       width="26.747511"
       height="7.5639539"
       x="18.520834"
       y="215.87679" />
    <path
       style="opacity:0.99842517;fill:#dfdfdf;fill-opacity:1;stroke:none;stroke-width:0.5;stroke-linecap:round;stroke-linejoin:miter;stroke-miterlimit:4;stroke-dasharray:none;stroke-opacity:1"
       d="m 11.351245,214.4344 c -0.276999,0 -0.500228,0.22323 -0.500228,0.50022 v 8.72815 c 0,0.277 0.223229,0.50023 0.500228,0.50023 h 40.439907 c 0.277001,0 0.50023,-0.22323 0.50023,-0.50023 v -8.72815 c 0,-0.27699 -0.223229,-0.50022 -0.50023,-0.50022 z m 17.694483,2.62743 h 0.52837 v 4.37404 h -0.52837 z m 5.13811,0 h 0.528863 v 4.37404 h -0.528863 v -0.3292 c -0.151794,0.13118 -0.30989,0.23371 -0.474803,0.3068 -0.164912,0.0731 -0.344114,0.10957 -0.537138,0.10957 -0.374801,0 -0.672473,-0.14433 -0.893604,-0.43293 -0.21926,-0.28859 -0.3292,-0.68879 -0.3292,-1.2004 0,-0.26611 0.03753,-0.50297 0.112496,-0.71099 0.07683,-0.20801 0.179922,-0.38512 0.309229,-0.53129 0.127431,-0.14242 0.275463,-0.25132 0.444124,-0.32628 0.170535,-0.075 0.347081,-0.11249 0.52886,-0.11249 0.164912,0 0.310848,0.018 0.438282,0.0536 0.127432,0.0337 0.261205,0.0871 0.401754,0.16021 z m -3.608998,0.16021 h 0.595577 v 0.54834 H 30.57484 Z m -9.318824,0.0283 h 0.556617 v 1.6416 h 2.088651 v -1.6416 h 0.556617 v 4.18558 h -0.556617 v -2.04921 h -2.088651 v 2.04921 h -0.556617 z m 5.51552,0.95837 c 0.440394,0 0.791462,0.14908 1.053822,0.44705 0.262361,0.29609 0.393481,0.7 0.393481,1.2116 0,0.51161 -0.13112,0.91551 -0.393481,1.2116 -0.26236,0.2961 -0.613428,0.44413 -1.053822,0.44413 -0.44414,0 -0.797303,-0.14803 -1.059665,-0.44413 -0.260487,-0.29609 -0.391044,-0.69999 -0.391044,-1.2116 0,-0.5116 0.130557,-0.91551 0.391044,-1.2116 0.262362,-0.29797 0.615525,-0.44705 1.059665,-0.44705 z m 10.054651,0.0112 c 0.221133,0 0.413544,0.019 0.576583,0.0565 0.164914,0.0356 0.307144,0.0975 0.427079,0.18553 0.118063,0.0862 0.207944,0.19775 0.269785,0.33455 0.06184,0.13681 0.05194,0.31023 0.09302,0.50841 v 2.13102 H 37.66671 v -0.33455 c -0.04685,0.0319 -0.110313,0.0768 -0.190894,0.13489 -0.07871,0.0562 -0.155382,0.10116 -0.230341,0.1349 -0.08808,0.0431 -0.189561,0.0785 -0.303874,0.10664 -0.114316,0.03 -0.248089,0.0453 -0.401759,0.0453 -0.282975,0 -0.522984,-0.0941 -0.719754,-0.28147 -0.196771,-0.1874 -0.295109,-0.42588 -0.295109,-0.71635 0,-0.238 0.05074,-0.43041 0.15194,-0.57658 0.103068,-0.14805 0.249002,-0.26435 0.43828,-0.34868 0.191148,-0.0843 0.420605,-0.14143 0.688588,-0.17142 0.267983,-0.03 0.555588,-0.0522 0.862923,-0.0672 v -0.0818 c 0,-0.11994 -0.02117,-0.21932 -0.06428,-0.29803 -0.04123,-0.0787 -0.101473,-0.14008 -0.180178,-0.18506 -0.07497,-0.0431 -0.164844,-0.0722 -0.269791,-0.0872 -0.104944,-0.015 -0.214394,-0.0229 -0.32871,-0.0229 -0.138676,0 -0.293555,0.019 -0.46409,0.0565 -0.170534,0.0356 -0.346591,0.088 -0.52837,0.1573 h -0.02824 v -0.53665 c 0.103068,-0.0281 0.252148,-0.0593 0.447042,-0.093 0.1949,-0.0337 0.386824,-0.0506 0.576099,-0.0506 z m -6.217745,0.076 h 0.528373 v 3.14004 h -0.528373 z m 8.21387,0 h 0.573175 l 0.964218,2.32776 0.972982,-2.32776 h 0.553696 l -1.832989,4.29808 h -0.564896 l 0.584862,-1.30997 z m -12.050776,0.36816 c -0.286724,0 -0.509817,0.0994 -0.669108,0.29803 -0.157417,0.19677 -0.236185,0.49863 -0.236185,0.90529 0,0.39355 0.07982,0.69227 0.239107,0.89653 0.159291,0.20239 0.381338,0.30388 0.666186,0.30388 0.281101,0 0.501052,-0.10044 0.660345,-0.30096 0.161163,-0.20239 0.242027,-0.50216 0.242027,-0.89945 0,-0.40666 -0.07982,-0.70852 -0.239104,-0.90529 -0.159292,-0.19865 -0.380291,-0.29803 -0.663268,-0.29803 z m 6.66187,0.0282 c -0.296093,0 -0.526595,0.10308 -0.69151,0.30923 -0.164912,0.20614 -0.247385,0.49849 -0.247385,0.87704 0,0.37293 0.06395,0.65683 0.191381,0.85173 0.127436,0.19302 0.33152,0.28927 0.612619,0.28927 0.149923,0 0.301659,-0.0328 0.455326,-0.0984 0.153668,-0.0675 0.296947,-0.15364 0.430001,-0.25859 v -1.80182 c -0.142422,-0.0637 -0.269835,-0.10761 -0.382278,-0.13197 -0.112437,-0.0244 -0.235101,-0.0365 -0.368154,-0.0365 z m 4.233304,1.09618 c -0.161163,0.009 -0.350991,0.0236 -0.570249,0.0424 -0.217387,0.0187 -0.390226,0.0457 -0.51766,0.0813 -0.151794,0.0431 -0.274454,0.11076 -0.368157,0.20259 -0.0937,0.0899 -0.140247,0.21422 -0.140247,0.37351 0,0.17991 0.05396,0.31578 0.16265,0.4076 0.108693,0.09 0.274685,0.13538 0.497691,0.13538 0.185526,0 0.355225,-0.0359 0.508892,-0.10713 0.15367,-0.0731 0.295902,-0.16031 0.42708,-0.26151 z"
       id="input_boolean.holidays"
       inkscape:label="#rect6420"
       inkscape:connector-curvature="0"
       sodipodi:nodetypes="ssssssssscccccccccccscscccscccccccccccccccccccccscssscscsscccsccccccscsccscscccscccccsccccccccccccccscscscscsscscsccccsccccsccccc" />
    <rect
       y="203.85402"
       x="13.305737"
       height="7.5639539"
       width="36.8503"
       id="rect6434"
       style="opacity:0.99842517;fill:#000000;fill-opacity:1;stroke:none;stroke-width:0.58687937;stroke-linecap:round;stroke-linejoin:miter;stroke-miterlimit:4;stroke-dasharray:none;stroke-opacity:1" />
    <path
       style="opacity:0.99842517;fill:#dfdfdf;fill-opacity:1;stroke:none;stroke-width:0.5;stroke-linecap:round;stroke-linejoin:miter;stroke-miterlimit:4;stroke-dasharray:none;stroke-opacity:1"
       d="m 11.351245,202.41187 c -0.276999,0 -0.500228,0.22324 -0.500228,0.50023 v 8.72815 c 0,0.277 0.223229,0.50023 0.500228,0.50023 h 40.439907 c 0.277003,0 0.50023,-0.22323 0.50023,-0.50023 v -8.72815 c 0,-0.27699 -0.223227,-0.50023 -0.50023,-0.50023 z m 2.769857,2.62207 h 0.557072 v 3.69331 h 2.092378 v 0.49506 h -2.64945 z m 18.878951,0 h 0.557072 v 1.64279 h 2.089795 v -1.64279 h 0.55707 v 4.18837 h -0.55707 v -2.05052 h -2.089795 v 2.05052 h -0.557072 z m -14.409457,0.95911 c 0.423783,0 0.749984,0.12404 0.978752,0.37156 0.230643,0.24751 0.345715,0.59905 0.345715,1.05471 v 0.28681 h -2.314587 c 0,0.19314 0.0292,0.36204 0.08733,0.50642 0.05813,0.14252 0.137487,0.25952 0.238745,0.3514 0.09751,0.09 0.213097,0.15757 0.346232,0.20258 0.13501,0.045 0.283155,0.0672 0.444418,0.0672 0.213766,0 0.428246,-0.0417 0.643888,-0.12609 0.217517,-0.0863 0.372172,-0.17071 0.464054,-0.25322 h 0.02842 v 0.57619 c -0.178138,0.075 -0.360064,0.13799 -0.545703,0.18862 -0.185639,0.0506 -0.380586,0.076 -0.584977,0.076 -0.52129,0 -0.928592,-0.14041 -1.221114,-0.42168 -0.292523,-0.28315 -0.438733,-0.68465 -0.438733,-1.20406 0,-0.51379 0.139699,-0.9218 0.419096,-1.2237 0.281271,-0.3019 0.650924,-0.45269 1.108459,-0.45269 z m 10.215914,0 c 0.423783,0 0.749985,0.12404 0.978752,0.37156 0.230643,0.24751 0.345715,0.59905 0.345715,1.05471 v 0.28681 h -2.314588 c 0,0.19314 0.02869,0.36204 0.08682,0.50642 0.05813,0.14252 0.138004,0.25952 0.23926,0.3514 0.09751,0.09 0.213098,0.15757 0.346233,0.20258 0.135009,0.045 0.283155,0.0672 0.444418,0.0672 0.213765,0 0.428247,-0.0417 0.643888,-0.12609 0.217516,-0.0863 0.372171,-0.17071 0.464055,-0.25322 h 0.0279 v 0.57619 c -0.178139,0.075 -0.359545,0.13799 -0.545184,0.18862 -0.18564,0.0506 -0.381104,0.076 -0.585494,0.076 -0.52129,0 -0.928077,-0.14041 -1.220597,-0.42168 -0.292524,-0.28315 -0.438735,-0.68465 -0.438735,-1.20406 0,-0.51379 0.1397,-0.9218 0.419097,-1.2237 0.281271,-0.3019 0.650923,-0.45269 1.108459,-0.45269 z m 9.712068,0 c 0.440659,0 0.792197,0.14937 1.054717,0.44752 0.262519,0.29627 0.393774,0.6999 0.393774,1.21181 0,0.51192 -0.131255,0.91606 -0.393774,1.21233 -0.26252,0.29627 -0.614058,0.44442 -1.054717,0.44442 -0.44441,0 -0.79788,-0.14815 -1.060399,-0.44442 -0.260647,-0.29627 -0.391192,-0.70041 -0.391192,-1.21233 0,-0.51191 0.130545,-0.91554 0.391192,-1.21181 0.262519,-0.29815 0.615989,-0.44752 1.060399,-0.44752 z m 3.816821,0 c 0.213768,0 0.394983,0.0449 0.543121,0.13488 0.150011,0.09 0.261215,0.21475 0.334346,0.37413 0.213765,-0.18001 0.408712,-0.30933 0.584978,-0.38809 0.176263,-0.0806 0.364699,-0.12092 0.56534,-0.12092 0.345025,0 0.599604,0.10521 0.762744,0.31523 0.165013,0.20814 0.247012,0.49933 0.247012,0.87436 v 2.03967 h -0.528651 v -1.78904 c 0,-0.13501 -0.0065,-0.26555 -0.01963,-0.39119 -0.01124,-0.12563 -0.03659,-0.22575 -0.07596,-0.30075 -0.04313,-0.0806 -0.104889,-0.14168 -0.185521,-0.18294 -0.08063,-0.0413 -0.196929,-0.062 -0.348813,-0.062 -0.148138,0 -0.296283,0.0377 -0.444418,0.11266 -0.148138,0.0731 -0.296281,0.16673 -0.444418,0.28112 0.0056,0.0431 0.01021,0.0938 0.01394,0.15192 0.0038,0.0563 0.0057,0.11273 0.0057,0.16899 v 2.01124 h -0.528651 v -1.78904 c 0,-0.13876 -0.0065,-0.27001 -0.01963,-0.39377 -0.01125,-0.12563 -0.03659,-0.22627 -0.07596,-0.30127 -0.04313,-0.0806 -0.104886,-0.14046 -0.185518,-0.17984 -0.08063,-0.0413 -0.19693,-0.062 -0.348816,-0.062 -0.144386,0 -0.289888,0.0357 -0.436147,0.10697 -0.144389,0.0713 -0.288663,0.16222 -0.433049,0.27285 v 2.34611 h -0.528651 v -3.14192 h 0.528651 v 0.34881 c 0.165012,-0.13688 0.328821,-0.24403 0.491958,-0.32091 0.165013,-0.0769 0.340426,-0.11524 0.526066,-0.11524 z m 5.360914,0 c 0.423783,0 0.750501,0.12404 0.979267,0.37156 0.230643,0.24751 0.345716,0.59905 0.345716,1.05471 v 0.28681 h -2.315105 c 0,0.19314 0.02921,0.36204 0.08733,0.50642 0.05813,0.14252 0.138004,0.25952 0.239263,0.3514 0.09751,0.09 0.212579,0.15757 0.345715,0.20258 0.135009,0.045 0.283154,0.0672 0.444418,0.0672 0.213765,0 0.428763,-0.0417 0.644403,-0.12609 0.217517,-0.0863 0.372174,-0.17071 0.464056,-0.25322 h 0.02791 v 0.57619 c -0.178138,0.075 -0.360063,0.13799 -0.545703,0.18862 -0.18564,0.0506 -0.380587,0.076 -0.584978,0.076 -0.52129,0 -0.928073,-0.14041 -1.220597,-0.42168 -0.292523,-0.28315 -0.438732,-0.68465 -0.438732,-1.20406 0,-0.51379 0.139697,-0.9218 0.419095,-1.2237 0.28127,-0.3019 0.650407,-0.45269 1.107943,-0.45269 z m -25.904879,0.0114 c 0.221267,0 0.413572,0.0188 0.57671,0.0563 0.165012,0.0356 0.307354,0.0974 0.427364,0.18551 0.118134,0.0863 0.208387,0.19798 0.270267,0.33487 0.06188,0.13688 0.0925,0.30649 0.0925,0.50901 v 2.13217 H 22.63221 v -0.33486 c -0.04688,0.0319 -0.110572,0.0767 -0.191203,0.13487 -0.07876,0.0563 -0.155471,0.10113 -0.230477,0.13488 -0.08813,0.0431 -0.189473,0.0788 -0.303857,0.10697 -0.114384,0.03 -0.248281,0.045 -0.402043,0.045 -0.283146,0 -0.523479,-0.0936 -0.720369,-0.28112 -0.19689,-0.18752 -0.295073,-0.42662 -0.295073,-0.71727 0,-0.23814 0.05067,-0.43045 0.151929,-0.57671 0.103133,-0.14814 0.249343,-0.26444 0.438733,-0.34882 0.191265,-0.0844 0.420701,-0.14156 0.688847,-0.17156 0.268145,-0.03 0.55599,-0.0522 0.863513,-0.0672 v -0.0816 c 0,-0.12001 -0.02147,-0.21942 -0.0646,-0.29817 -0.04125,-0.0788 -0.101077,-0.14052 -0.179834,-0.18552 -0.07501,-0.0431 -0.165259,-0.0723 -0.270267,-0.0873 -0.105008,-0.015 -0.214795,-0.0227 -0.329179,-0.0227 -0.138761,0 -0.293417,0.0188 -0.464055,0.0563 -0.170638,0.0356 -0.34676,0.0882 -0.528649,0.15762 h -0.02791 v -0.53744 c 0.103133,-0.0281 0.251986,-0.0588 0.447002,-0.0925 0.195014,-0.0337 0.387319,-0.0506 0.576708,-0.0506 z m 1.996778,0.076 h 0.574125 l 0.973067,2.50063 0.964799,-2.50063 h 0.55397 l -1.271239,3.14193 h -0.53175 z m -5.226038,0.34882 c -0.283147,0 -0.508715,0.0832 -0.677478,0.25011 -0.166888,0.16689 -0.261718,0.37415 -0.28422,0.62167 h 1.79989 c -0.0019,-0.27752 -0.07208,-0.492 -0.21084,-0.64389 -0.136885,-0.15188 -0.34608,-0.22789 -0.627352,-0.22789 z m 10.215915,0 c -0.283147,0 -0.509233,0.0832 -0.677995,0.25011 -0.166889,0.16689 -0.261202,0.37415 -0.283705,0.62167 h 1.799892 c -0.0019,-0.27752 -0.07208,-0.492 -0.210842,-0.64389 -0.136884,-0.15188 -0.34608,-0.22789 -0.62735,-0.22789 z m 18.890318,0 c -0.283147,0 -0.50923,0.0832 -0.677995,0.25011 -0.166886,0.16689 -0.261718,0.37415 -0.284221,0.62167 h 1.800408 c -0.0019,-0.27752 -0.07208,-0.492 -0.210839,-0.64389 -0.136887,-0.15188 -0.34608,-0.22789 -0.627353,-0.22789 z m -9.149829,0.0196 c -0.286895,0 -0.509823,0.0994 -0.66921,0.29817 -0.157512,0.19689 -0.236678,0.49847 -0.236678,0.90537 0,0.39379 0.07988,0.69323 0.239263,0.89762 0.159387,0.20252 0.381603,0.30386 0.666625,0.30386 0.281271,0 0.501555,-0.10063 0.660943,-0.30127 0.161261,-0.20252 0.241845,-0.50268 0.241845,-0.90021 0,-0.4069 -0.07936,-0.70848 -0.238744,-0.90537 -0.159388,-0.19876 -0.380897,-0.29817 -0.664044,-0.29817 z m -15.886368,1.125 c -0.161262,0.009 -0.351633,0.0236 -0.571025,0.0424 -0.217516,0.0188 -0.389771,0.046 -0.517281,0.0816 -0.151886,0.0431 -0.274695,0.11017 -0.368453,0.20205 -0.09376,0.09 -0.14056,0.21476 -0.14056,0.37414 0,0.18002 0.05402,0.31636 0.162781,0.40825 0.108759,0.09 0.275019,0.13487 0.498161,0.13487 0.185639,0 0.355251,-0.0357 0.509013,-0.10697 0.153762,-0.0731 0.296104,-0.16022 0.427364,-0.26148 z"
       id="input_boolean.start_leave_home_script"
       inkscape:label="#path6436"
       inkscape:connector-curvature="0" />
  </g>
</svg>
